NotoSansChakma-Regular.ufo
<glyph name="uni09E6" format="2">
  <advance width="592"/>
  <unicode hex="09E6"/>
  <outline>
    <contour>
      <point x="290" y="91" type="curve" smooth="yes"/>
      <point x="446" y="91"/>
      <point x="520" y="193"/>
      <point x="520" y="314" type="curve" smooth="yes"/>
      <point x="520" y="443"/>
      <point x="456" y="544"/>
      <point x="300" y="544" type="curve" smooth="yes"/>
      <point x="141" y="544"/>
      <point x="72" y="431"/>
      <point x="72" y="320" type="curve" smooth="yes"/>
      <point x="72" y="158"/>
      <point x="167" y="91"/>
    </contour>
    <contour>
      <point x="289" y="162" type="curve" smooth="yes"/>
      <point x="191" y="162"/>
      <point x="152" y="229"/>
      <point x="152" y="311" type="curve" smooth="yes"/>
      <point x="152" y="413"/>
      <point x="212" y="473"/>
      <point x="305" y="473" type="curve" smooth="yes"/>
      <point x="393" y="473"/>
      <point x="439" y="416"/>
      <point x="439" y="324" type="curve" smooth="yes"/>
      <point x="439" y="227"/>
      <point x="384" y="162"/>
    </contour>
  </outline>
</glyph>
<glyph name="uni09E7" format="2">
  <advance width="592"/>
  <unicode hex="09E7"/>
  <outline>
    <contour>
      <point x="287" y="0" type="curve" smooth="yes"/>
      <point x="406" y="0"/>
      <point x="495" y="70"/>
      <point x="495" y="178" type="curve" smooth="yes"/>
      <point x="495" y="277"/>
      <point x="455" y="325"/>
      <point x="341" y="401" type="curve" smooth="yes"/>
      <point x="218" y="483"/>
      <point x="206" y="500"/>
      <point x="206" y="536" type="curve" smooth="yes"/>
      <point x="206" y="558"/>
      <point x="219" y="576"/>
      <point x="238" y="596" type="curve"/>
      <point x="174" y="631" type="line"/>
      <point x="140" y="599"/>
      <point x="122" y="560"/>
      <point x="122" y="529" type="curve" smooth="yes"/>
      <point x="122" y="469"/>
      <point x="158" y="435"/>
      <point x="287" y="344" type="curve" smooth="yes"/>
      <point x="385" y="275"/>
      <point x="415" y="240"/>
      <point x="415" y="181" type="curve" smooth="yes"/>
      <point x="415" y="120"/>
      <point x="367" y="75"/>
      <point x="286" y="75" type="curve" smooth="yes"/>
      <point x="233" y="75"/>
      <point x="205" y="93"/>
      <point x="205" y="120" type="curve" smooth="yes"/>
      <point x="205" y="144"/>
      <point x="222" y="157"/>
      <point x="263" y="167" type="curve"/>
      <point x="234" y="243" type="line"/>
      <point x="153" y="220"/>
      <point x="123" y="174"/>
      <point x="123" y="122" type="curve" smooth="yes"/>
      <point x="123" y="56"/>
      <point x="173" y="0"/>
    </contour>
  </outline>
</glyph>
<glyph name="uni09E8" format="2">
  <advance width="592"/>
  <unicode hex="09E8"/>
  <outline>
    <contour>
      <point x="507" y="-26" type="curve"/>
      <point x="553" y="28" type="line"/>
      <point x="469" y="98"/>
      <point x="377" y="153"/>
      <point x="289" y="184" type="curve"/>
      <point x="289" y="170" type="line"/>
      <point x="422" y="179"/>
      <point x="500" y="247"/>
      <point x="500" y="333" type="curve" smooth="yes"/>
      <point x="500" y="421"/>
      <point x="454" y="469"/>
      <point x="322" y="494" type="curve" smooth="yes"/>
      <point x="228" y="512"/>
      <point x="211" y="521"/>
      <point x="211" y="549" type="curve" smooth="yes"/>
      <point x="211" y="563"/>
      <point x="217" y="579"/>
      <point x="233" y="596" type="curve"/>
      <point x="170" y="631" type="line"/>
      <point x="141" y="596"/>
      <point x="127" y="568"/>
      <point x="127" y="539" type="curve" smooth="yes"/>
      <point x="127" y="483"/>
      <point x="173" y="450"/>
      <point x="285" y="428" type="curve" smooth="yes"/>
      <point x="384" y="409"/>
      <point x="419" y="389"/>
      <point x="419" y="333" type="curve" smooth="yes"/>
      <point x="419" y="273"/>
      <point x="370" y="233"/>
      <point x="235" y="233" type="curve" smooth="yes"/>
      <point x="169" y="233"/>
      <point x="126" y="242"/>
      <point x="80" y="256" type="curve"/>
      <point x="65" y="185" type="line"/>
      <point x="253" y="143"/>
      <point x="349" y="104"/>
    </contour>
  </outline>
</glyph>
<glyph name="uni09E9" format="2">
  <advance width="592"/>
  <unicode hex="09E9"/>
  <outline>
    <contour>
      <point x="347" y="39" type="curve" smooth="yes"/>
      <point x="495" y="39"/>
      <point x="553" y="151"/>
      <point x="553" y="295" type="curve" smooth="yes"/>
      <point x="553" y="450"/>
      <point x="476" y="579"/>
      <point x="337" y="579" type="curve" smooth="yes"/>
      <point x="280" y="579"/>
      <point x="207" y="551"/>
      <point x="207" y="467" type="curve" smooth="yes"/>
      <point x="207" y="437"/>
      <point x="215" y="402"/>
      <point x="231" y="369" type="curve"/>
      <point x="311" y="390" type="line"/>
      <point x="297" y="417"/>
      <point x="292" y="436"/>
      <point x="292" y="458" type="curve" smooth="yes"/>
      <point x="292" y="490"/>
      <point x="312" y="509"/>
      <point x="347" y="509" type="curve" smooth="yes"/>
      <point x="417" y="509"/>
      <point x="473" y="417"/>
      <point x="473" y="295" type="curve" smooth="yes"/>
      <point x="473" y="194"/>
      <point x="441" y="114"/>
      <point x="342" y="114" type="curve" smooth="yes"/>
      <point x="228" y="114"/>
      <point x="163" y="210"/>
      <point x="103" y="510" type="curve"/>
      <point x="29" y="490" type="line"/>
      <point x="96" y="117"/>
      <point x="204" y="39"/>
    </contour>
  </outline>
</glyph>
<glyph name="uni09EA" format="2">
  <advance width="592"/>
  <unicode hex="09EA"/>
  <outline>
    <contour>
      <point x="296" y="0" type="curve" smooth="yes"/>
      <point x="450" y="0"/>
      <point x="530" y="57"/>
      <point x="530" y="174" type="curve" smooth="yes"/>
      <point x="530" y="262"/>
      <point x="469" y="305"/>
      <point x="365" y="341" type="curve"/>
      <point x="368" y="321" type="line"/>
      <point x="453" y="353"/>
      <point x="519" y="392"/>
      <point x="519" y="476" type="curve" smooth="yes"/>
      <point x="519" y="547"/>
      <point x="460" y="622"/>
      <point x="290" y="622" type="curve" smooth="yes"/>
      <point x="152" y="622"/>
      <point x="74" y="551"/>
      <point x="74" y="471" type="curve" smooth="yes"/>
      <point x="74" y="395"/>
      <point x="122" y="359"/>
      <point x="229" y="312" type="curve"/>
      <point x="229" y="337" type="line"/>
      <point x="113" y="297"/>
      <point x="62" y="245"/>
      <point x="62" y="174" type="curve" smooth="yes"/>
      <point x="62" y="68"/>
      <point x="147" y="0"/>
    </contour>
    <contour>
      <point x="296" y="71" type="curve" smooth="yes"/>
      <point x="194" y="71"/>
      <point x="143" y="114"/>
      <point x="143" y="169" type="curve" smooth="yes"/>
      <point x="143" y="228"/>
      <point x="195" y="266"/>
      <point x="296" y="292" type="curve"/>
      <point x="372" y="276"/>
      <point x="450" y="236"/>
      <point x="450" y="173" type="curve" smooth="yes"/>
      <point x="450" y="111"/>
      <point x="403" y="71"/>
    </contour>
    <contour>
      <point x="297" y="363" type="curve"/>
      <point x="196" y="389"/>
      <point x="154" y="421"/>
      <point x="154" y="471" type="curve" smooth="yes"/>
      <point x="154" y="524"/>
      <point x="221" y="551"/>
      <point x="291" y="551" type="curve" smooth="yes"/>
      <point x="388" y="551"/>
      <point x="438" y="519"/>
      <point x="438" y="471" type="curve" smooth="yes"/>
      <point x="438" y="419"/>
      <point x="366" y="380"/>
    </contour>
  </outline>
</glyph>
<glyph name="uni09EB" format="2">
  <advance width="592"/>
  <unicode hex="09EB"/>
  <outline>
    <contour>
      <point x="313" y="0" type="curve" smooth="yes"/>
      <point x="408" y="0"/>
      <point x="496" y="23"/>
      <point x="561" y="62" type="curve"/>
      <point x="528" y="146" type="line"/>
      <point x="519" y="145"/>
      <point x="505" y="144"/>
      <point x="492" y="144" type="curve" smooth="yes"/>
      <point x="414" y="144"/>
      <point x="392" y="183"/>
      <point x="392" y="221" type="curve" smooth="yes"/>
      <point x="392" y="288"/>
      <point x="454" y="338"/>
      <point x="566" y="400" type="curve"/>
      <point x="533" y="456" type="line"/>
      <point x="528" y="455"/>
      <point x="522" y="455"/>
      <point x="518" y="455" type="curve" smooth="yes"/>
      <point x="468" y="455"/>
      <point x="434" y="480"/>
      <point x="434" y="519" type="curve" smooth="yes"/>
      <point x="434" y="539"/>
      <point x="439" y="557"/>
      <point x="453" y="575" type="curve"/>
      <point x="414" y="629" type="line"/>
      <point x="190" y="523"/>
      <point x="49" y="408"/>
      <point x="49" y="248" type="curve" smooth="yes"/>
      <point x="49" y="89"/>
      <point x="160" y="0"/>
    </contour>
    <contour>
      <point x="320" y="71" type="curve" smooth="yes"/>
      <point x="226" y="71"/>
      <point x="130" y="113"/>
      <point x="130" y="238" type="curve" smooth="yes"/>
      <point x="130" y="360"/>
      <point x="234" y="459"/>
      <point x="384" y="533" type="curve"/>
      <point x="375" y="547" type="line"/>
      <point x="369" y="535"/>
      <point x="367" y="522"/>
      <point x="367" y="507" type="curve" smooth="yes"/>
      <point x="367" y="456"/>
      <point x="403" y="409"/>
      <point x="473" y="401" type="curve"/>
      <point x="475" y="426" type="line"/>
      <point x="369" y="358"/>
      <point x="316" y="300"/>
      <point x="316" y="222" type="curve" smooth="yes"/>
      <point x="316" y="152"/>
      <point x="360" y="101"/>
      <point x="458" y="89" type="curve"/>
      <point x="460" y="91" type="line"/>
      <point x="412" y="78"/>
      <point x="383" y="71"/>
    </contour>
  </outline>
</glyph>
<glyph name="uni09EC" format="2">
  <advance width="592"/>
  <unicode hex="09EC"/>
  <outline>
    <contour>
      <point x="347" y="39" type="curve" smooth="yes"/>
      <point x="493" y="39"/>
      <point x="559" y="137"/>
      <point x="559" y="268" type="curve" smooth="yes"/>
      <point x="559" y="328"/>
      <point x="536" y="402"/>
      <point x="499" y="452" type="curve"/>
      <point x="443" y="438" type="line"/>
      <point x="410" y="348"/>
      <point x="380" y="328"/>
      <point x="348" y="328" type="curve" smooth="yes"/>
      <point x="341" y="328"/>
      <point x="330" y="330"/>
      <point x="321" y="340" type="curve" smooth="yes"/>
      <point x="313" y="349"/>
      <point x="312" y="365"/>
      <point x="312" y="387" type="curve" smooth="yes"/>
      <point x="312" y="471" type="line" smooth="yes"/>
      <point x="312" y="511"/>
      <point x="305" y="541"/>
      <point x="286" y="560" type="curve" smooth="yes"/>
      <point x="265" y="581"/>
      <point x="230" y="591"/>
      <point x="175" y="593" type="curve"/>
      <point x="166" y="517" type="line"/>
      <point x="225" y="515"/>
      <point x="235" y="500"/>
      <point x="235" y="451" type="curve" smooth="yes"/>
      <point x="235" y="400" type="line" smooth="yes"/>
      <point x="235" y="328"/>
      <point x="250" y="301"/>
      <point x="270" y="282" type="curve" smooth="yes"/>
      <point x="288" y="265"/>
      <point x="312" y="257"/>
      <point x="340" y="257" type="curve" smooth="yes"/>
      <point x="406" y="257"/>
      <point x="455" y="303"/>
      <point x="489" y="392" type="curve"/>
      <point x="449" y="391" type="line"/>
      <point x="461" y="370"/>
      <point x="483" y="329"/>
      <point x="483" y="271" type="curve" smooth="yes"/>
      <point x="483" y="167"/>
      <point x="428" y="114"/>
      <point x="342" y="114" type="curve" smooth="yes"/>
      <point x="226" y="114"/>
      <point x="152" y="212"/>
      <point x="96" y="475" type="curve"/>
      <point x="21" y="452" type="line"/>
      <point x="96" y="129"/>
      <point x="208" y="39"/>
    </contour>
  </outline>
</glyph>
<glyph name="uni09ED" format="2">
  <advance width="592"/>
  <unicode hex="09ED"/>
  <outline>
    <contour>
      <point x="520" y="0" type="curve"/>
      <point x="528" y="77" type="line"/>
      <point x="469" y="79"/>
      <point x="459" y="93"/>
      <point x="459" y="143" type="curve" smooth="yes"/>
      <point x="459" y="455" type="line" smooth="yes"/>
      <point x="459" y="529"/>
      <point x="442" y="559"/>
      <point x="415" y="584" type="curve" smooth="yes"/>
      <point x="385" y="611"/>
      <point x="345" y="622"/>
      <point x="297" y="622" type="curve" smooth="yes"/>
      <point x="183" y="622"/>
      <point x="70" y="530"/>
      <point x="70" y="411" type="curve" smooth="yes"/>
      <point x="70" y="309"/>
      <point x="137" y="248"/>
      <point x="268" y="248" type="curve" smooth="yes"/>
      <point x="320" y="248"/>
      <point x="379" y="260"/>
      <point x="432" y="286" type="curve"/>
      <point x="383" y="301" type="line"/>
      <point x="383" y="122" type="line" smooth="yes"/>
      <point x="383" y="39"/>
      <point x="413" y="4"/>
    </contour>
    <contour>
      <point x="266" y="322" type="curve" smooth="yes"/>
      <point x="204" y="322"/>
      <point x="151" y="342"/>
      <point x="151" y="406" type="curve" smooth="yes"/>
      <point x="151" y="489"/>
      <point x="228" y="551"/>
      <point x="297" y="551" type="curve" smooth="yes"/>
      <point x="327" y="551"/>
      <point x="347" y="544"/>
      <point x="361" y="530" type="curve" smooth="yes"/>
      <point x="379" y="511"/>
      <point x="382" y="488"/>
      <point x="382" y="439" type="curve" smooth="yes"/>
      <point x="382" y="338" type="line"/>
      <point x="404" y="357" type="line"/>
      <point x="359" y="333"/>
      <point x="322" y="322"/>
    </contour>
  </outline>
</glyph>
<glyph name="uni09EE" format="2">
  <advance width="592"/>
  <unicode hex="09EE"/>
  <outline>
    <contour>
      <point x="237" y="0" type="curve" smooth="yes"/>
      <point x="354" y="0"/>
      <point x="448" y="81"/>
      <point x="448" y="213" type="curve" smooth="yes"/>
      <point x="448" y="250"/>
      <point x="438" y="285"/>
      <point x="418" y="312" type="curve"/>
      <point x="398" y="297" type="line"/>
      <point x="414" y="293"/>
      <point x="430" y="292"/>
      <point x="442" y="292" type="curve" smooth="yes"/>
      <point x="504" y="292"/>
      <point x="560" y="316"/>
      <point x="586" y="383" type="curve"/>
      <point x="514" y="418" type="line"/>
      <point x="488" y="370"/>
      <point x="458" y="360"/>
      <point x="408" y="360" type="curve" smooth="yes"/>
      <point x="374" y="360"/>
      <point x="346" y="366"/>
      <point x="313" y="372" type="curve" smooth="yes"/>
      <point x="300" y="374"/>
      <point x="295" y="375"/>
      <point x="269" y="375" type="curve" smooth="yes"/>
      <point x="247" y="375"/>
      <point x="208" y="370"/>
      <point x="167" y="355" type="curve"/>
      <point x="167" y="501" type="line" smooth="yes"/>
      <point x="167" y="544"/>
      <point x="159" y="575"/>
      <point x="136" y="595" type="curve" smooth="yes"/>
      <point x="115" y="613"/>
      <point x="82" y="622"/>
      <point x="31" y="624" type="curve"/>
      <point x="22" y="547" type="line"/>
      <point x="81" y="545"/>
      <point x="91" y="530"/>
      <point x="91" y="481" type="curve" smooth="yes"/>
      <point x="91" y="164" type="line" smooth="yes"/>
      <point x="91" y="95"/>
      <point x="105" y="66"/>
      <point x="132" y="38" type="curve" smooth="yes"/>
      <point x="153" y="16"/>
      <point x="185" y="0"/>
    </contour>
    <contour>
      <point x="238" y="71" type="curve" smooth="yes"/>
      <point x="207" y="71"/>
      <point x="193" y="81"/>
      <point x="184" y="92" type="curve"/>
      <point x="175" y="104"/>
      <point x="167" y="124"/>
      <point x="167" y="168" type="curve" smooth="yes"/>
      <point x="167" y="281" type="line"/>
      <point x="198" y="295"/>
      <point x="230" y="304"/>
      <point x="274" y="304" type="curve" smooth="yes"/>
      <point x="317" y="304"/>
      <point x="368" y="286"/>
      <point x="368" y="212" type="curve" smooth="yes"/>
      <point x="368" y="145"/>
      <point x="326" y="71"/>
    </contour>
  </outline>
</glyph>
<glyph name="uni09EF" format="2">
  <advance width="592"/>
  <unicode hex="09EF"/>
  <outline>
    <contour>
      <point x="183" y="0" type="line"/>
      <point x="197" y="0" type="line" smooth="yes"/>
      <point x="390" y="0"/>
      <point x="558" y="53"/>
      <point x="558" y="216" type="curve" smooth="yes"/>
      <point x="558" y="315"/>
      <point x="517" y="389"/>
      <point x="308" y="446" type="curve" smooth="yes"/>
      <point x="135" y="493"/>
      <point x="118" y="513"/>
      <point x="118" y="549" type="curve" smooth="yes"/>
      <point x="118" y="561"/>
      <point x="127" y="577"/>
      <point x="146" y="596" type="curve"/>
      <point x="83" y="631" type="line"/>
      <point x="48" y="599"/>
      <point x="35" y="569"/>
      <point x="35" y="536" type="curve" smooth="yes"/>
      <point x="35" y="460"/>
      <point x="91" y="427"/>
      <point x="274" y="375" type="curve" smooth="yes"/>
      <point x="437" y="329"/>
      <point x="476" y="286"/>
      <point x="476" y="214" type="curve" smooth="yes"/>
      <point x="476" y="131"/>
      <point x="400" y="85"/>
      <point x="275" y="72" type="curve"/>
      <point x="278" y="62" type="line"/>
      <point x="315" y="95"/>
      <point x="333" y="129"/>
      <point x="333" y="181" type="curve" smooth="yes"/>
      <point x="333" y="259"/>
      <point x="266" y="315"/>
      <point x="174" y="315" type="curve" smooth="yes"/>
      <point x="78" y="315"/>
      <point x="27" y="271"/>
      <point x="27" y="207" type="curve" smooth="yes"/>
      <point x="27" y="182"/>
      <point x="33" y="159"/>
      <point x="44" y="135" type="curve"/>
      <point x="120" y="152" type="line"/>
      <point x="112" y="165"/>
      <point x="108" y="183"/>
      <point x="108" y="196" type="curve" smooth="yes"/>
      <point x="108" y="224"/>
      <point x="127" y="245"/>
      <point x="175" y="245" type="curve" smooth="yes"/>
      <point x="229" y="245"/>
      <point x="257" y="214"/>
      <point x="257" y="169" type="curve" smooth="yes"/>
      <point x="257" y="120"/>
      <point x="221" y="89"/>
      <point x="161" y="68" type="curve"/>
    </contour>
  </outline>
</glyph>
<glyph name="uni1040" format="2">
  <advance width="652"/>
  <unicode hex="1040"/>
  <note>
zero_m
</note>
  <outline>
    <contour>
      <point x="323" y="-10" type="curve" smooth="yes"/>
      <point x="493" y="-10"/>
      <point x="597" y="114"/>
      <point x="597" y="268" type="curve" smooth="yes"/>
      <point x="597" y="424"/>
      <point x="493" y="546"/>
      <point x="326" y="546" type="curve" smooth="yes"/>
      <point x="159" y="546"/>
      <point x="55" y="424"/>
      <point x="55" y="268" type="curve" smooth="yes"/>
      <point x="55" y="108"/>
      <point x="161" y="-10"/>
    </contour>
    <contour>
      <point x="326" y="64" type="curve" smooth="yes"/>
      <point x="221" y="64"/>
      <point x="146" y="143"/>
      <point x="146" y="266" type="curve" smooth="yes"/>
      <point x="146" y="390"/>
      <point x="216" y="472"/>
      <point x="327" y="472" type="curve" smooth="yes"/>
      <point x="437" y="472"/>
      <point x="506" y="389"/>
      <point x="506" y="266" type="curve" smooth="yes"/>
      <point x="506" y="146"/>
      <point x="434" y="64"/>
    </contour>
  </outline>
</glyph>
<glyph name="uni1041" format="2">
  <advance width="623"/>
  <unicode hex="1041"/>
  <note>
one_m
</note>
  <outline>
    <contour>
      <point x="297" y="-10" type="curve" smooth="yes"/>
      <point x="460" y="-10"/>
      <point x="568" y="108"/>
      <point x="568" y="269" type="curve" smooth="yes"/>
      <point x="568" y="428"/>
      <point x="463" y="546"/>
      <point x="297" y="546" type="curve" smooth="yes"/>
      <point x="183" y="546"/>
      <point x="90" y="482"/>
      <point x="55" y="383" type="curve"/>
      <point x="125" y="347" type="line"/>
      <point x="158" y="430"/>
      <point x="221" y="472"/>
      <point x="298" y="472" type="curve" smooth="yes"/>
      <point x="407" y="472"/>
      <point x="477" y="391"/>
      <point x="477" y="270" type="curve" smooth="yes"/>
      <point x="477" y="144"/>
      <point x="409" y="64"/>
      <point x="298" y="64" type="curve" smooth="yes"/>
      <point x="221" y="64"/>
      <point x="158" y="106"/>
      <point x="125" y="189" type="curve"/>
      <point x="55" y="153" type="line"/>
      <point x="90" y="55"/>
      <point x="183" y="-10"/>
    </contour>
  </outline>
</glyph>
<glyph name="uni1042" format="2">
  <advance width="675"/>
  <unicode hex="1042"/>
  <note>
two_m
</note>
  <outline>
    <contour>
      <point x="314" y="-467" type="curve" smooth="yes"/>
      <point x="478" y="-467"/>
      <point x="584" y="-353"/>
      <point x="584" y="-165" type="curve" smooth="yes"/>
      <point x="584" y="536" type="line"/>
      <point x="499" y="536" type="line"/>
      <point x="499" y="-168" type="line" smooth="yes"/>
      <point x="499" y="-317"/>
      <point x="428" y="-397"/>
      <point x="315" y="-397" type="curve" smooth="yes"/>
      <point x="207" y="-397"/>
      <point x="128" y="-313"/>
      <point x="128" y="-200" type="curve" smooth="yes"/>
      <point x="128" y="-196" type="line"/>
      <point x="43" y="-196" type="line"/>
      <point x="43" y="-198" type="line" smooth="yes"/>
      <point x="43" y="-353"/>
      <point x="153" y="-467"/>
    </contour>
  </outline>
</glyph>
<glyph name="uni1043" format="2">
  <advance width="618"/>
  <unicode hex="1043"/>
  <note>
three_m
</note>
  <outline>
    <contour>
      <point x="380" y="-467" type="line"/>
      <point x="477" y="-467" type="line"/>
      <point x="308" y="-153" type="line" smooth="yes"/>
      <point x="280" y="-101"/>
      <point x="237" y="-31"/>
      <point x="206" y="17" type="curve"/>
      <point x="192" y="15" type="line"/>
      <point x="224" y="-1"/>
      <point x="257" y="-10"/>
      <point x="292" y="-10" type="curve" smooth="yes"/>
      <point x="456" y="-10"/>
      <point x="563" y="107"/>
      <point x="563" y="269" type="curve" smooth="yes"/>
      <point x="563" y="427"/>
      <point x="457" y="546"/>
      <point x="292" y="546" type="curve" smooth="yes"/>
      <point x="179" y="546"/>
      <point x="86" y="483"/>
      <point x="50" y="383" type="curve"/>
      <point x="120" y="347" type="line"/>
      <point x="153" y="430"/>
      <point x="215" y="472"/>
      <point x="293" y="472" type="curve" smooth="yes"/>
      <point x="401" y="472"/>
      <point x="472" y="391"/>
      <point x="472" y="270" type="curve" smooth="yes"/>
      <point x="472" y="143"/>
      <point x="403" y="64"/>
      <point x="293" y="64" type="curve" smooth="yes"/>
      <point x="215" y="64"/>
      <point x="153" y="106"/>
      <point x="120" y="189" type="curve"/>
      <point x="50" y="153" type="line"/>
    </contour>
  </outline>
</glyph>
<glyph name="uni1044" format="2">
  <advance width="618"/>
  <unicode hex="1044"/>
  <note>
four_m
</note>
  <outline>
    <contour>
      <point x="141" y="-467" type="line"/>
      <point x="238" y="-467" type="line"/>
      <point x="568" y="153" type="line"/>
      <point x="498" y="189" type="line"/>
      <point x="465" y="106"/>
      <point x="402" y="64"/>
      <point x="325" y="64" type="curve" smooth="yes"/>
      <point x="214" y="64"/>
      <point x="146" y="144"/>
      <point x="146" y="270" type="curve" smooth="yes"/>
      <point x="146" y="391"/>
      <point x="216" y="472"/>
      <point x="325" y="472" type="curve" smooth="yes"/>
      <point x="402" y="472"/>
      <point x="465" y="430"/>
      <point x="498" y="347" type="curve"/>
      <point x="568" y="383" type="line"/>
      <point x="533" y="480"/>
      <point x="440" y="546"/>
      <point x="326" y="546" type="curve" smooth="yes"/>
      <point x="162" y="546"/>
      <point x="55" y="430"/>
      <point x="55" y="269" type="curve" smooth="yes"/>
      <point x="55" y="111"/>
      <point x="161" y="-10"/>
      <point x="326" y="-10" type="curve" smooth="yes"/>
      <point x="357" y="-10"/>
      <point x="387" y="-3"/>
      <point x="415" y="9" type="curve"/>
      <point x="413" y="17" type="line"/>
      <point x="384" y="-24"/>
      <point x="336" y="-105"/>
      <point x="310" y="-153" type="curve" smooth="yes"/>
    </contour>
  </outline>
</glyph>
<glyph name="uni1045" format="2">
  <advance width="675"/>
  <unicode hex="1045"/>
  <note>
five_m
</note>
  <outline>
    <contour>
      <point x="314" y="-467" type="curve" smooth="yes"/>
      <point x="478" y="-467"/>
      <point x="584" y="-353"/>
      <point x="584" y="-165" type="curve" smooth="yes"/>
      <point x="584" y="268" type="line" smooth="yes"/>
      <point x="584" y="430"/>
      <point x="487" y="546"/>
      <point x="324" y="546" type="curve" smooth="yes"/>
      <point x="170" y="546"/>
      <point x="55" y="441"/>
      <point x="55" y="282" type="curve" smooth="yes"/>
      <point x="55" y="185"/>
      <point x="116" y="120"/>
      <point x="208" y="120" type="curve" smooth="yes"/>
      <point x="293" y="120"/>
      <point x="358" y="183"/>
      <point x="358" y="263" type="curve" smooth="yes"/>
      <point x="358" y="343"/>
      <point x="295" y="399"/>
      <point x="221" y="399" type="curve" smooth="yes"/>
      <point x="197" y="399"/>
      <point x="171" y="396"/>
      <point x="159" y="385" type="curve"/>
      <point x="190" y="443"/>
      <point x="249" y="476"/>
      <point x="323" y="476" type="curve" smooth="yes"/>
      <point x="436" y="476"/>
      <point x="499" y="394"/>
      <point x="499" y="269" type="curve" smooth="yes"/>
      <point x="499" y="-168" type="line" smooth="yes"/>
      <point x="499" y="-317"/>
      <point x="428" y="-397"/>
      <point x="315" y="-397" type="curve" smooth="yes"/>
      <point x="204" y="-397"/>
      <point x="128" y="-313"/>
      <point x="128" y="-200" type="curve" smooth="yes"/>
      <point x="128" y="-196" type="line"/>
      <point x="43" y="-196" type="line"/>
      <point x="43" y="-198" type="line" smooth="yes"/>
      <point x="43" y="-352"/>
      <point x="149" y="-467"/>
    </contour>
    <contour>
      <point x="208" y="188" type="curve" smooth="yes"/>
      <point x="169" y="188"/>
      <point x="137" y="220"/>
      <point x="137" y="259" type="curve" smooth="yes"/>
      <point x="137" y="299"/>
      <point x="169" y="331"/>
      <point x="208" y="331" type="curve" smooth="yes"/>
      <point x="248" y="331"/>
      <point x="280" y="299"/>
      <point x="280" y="259" type="curve" smooth="yes"/>
      <point x="280" y="220"/>
      <point x="248" y="188"/>
    </contour>
  </outline>
</glyph>
<glyph name="uni1046" format="2">
  <advance width="720"/>
  <unicode hex="1046"/>
  <note>
six_m
</note>
  <outline>
    <contour>
      <point x="377" y="-10" type="curve" smooth="yes"/>
      <point x="561" y="-10"/>
      <point x="668" y="104"/>
      <point x="668" y="255" type="curve" smooth="yes"/>
      <point x="668" y="318"/>
      <point x="630" y="364"/>
      <point x="562" y="364" type="curve" smooth="yes"/>
      <point x="499" y="364"/>
      <point x="459" y="330"/>
      <point x="409" y="330" type="curve" smooth="yes"/>
      <point x="372" y="330"/>
      <point x="342" y="361"/>
      <point x="342" y="408" type="curve" smooth="yes"/>
      <point x="342" y="445"/>
      <point x="366" y="480"/>
      <point x="409" y="480" type="curve" smooth="yes"/>
      <point x="426" y="480"/>
      <point x="449" y="473"/>
      <point x="459" y="458" type="curve"/>
      <point x="520" y="490" type="line"/>
      <point x="491" y="533"/>
      <point x="452" y="547"/>
      <point x="404" y="547" type="curve" smooth="yes"/>
      <point x="310" y="547"/>
      <point x="257" y="483"/>
      <point x="257" y="408" type="curve" smooth="yes"/>
      <point x="257" y="323"/>
      <point x="313" y="263"/>
      <point x="403" y="263" type="curve" smooth="yes"/>
      <point x="462" y="263"/>
      <point x="501" y="292"/>
      <point x="552" y="292" type="curve" smooth="yes"/>
      <point x="575" y="292"/>
      <point x="583" y="272"/>
      <point x="583" y="253" type="curve" smooth="yes"/>
      <point x="583" y="140"/>
      <point x="502" y="60"/>
      <point x="383" y="60" type="curve" smooth="yes"/>
      <point x="250" y="60"/>
      <point x="176" y="139"/>
      <point x="176" y="286" type="curve" smooth="yes"/>
      <point x="176" y="701" type="line" smooth="yes"/>
      <point x="176" y="861"/>
      <point x="255" y="933"/>
      <point x="380" y="933" type="curve" smooth="yes"/>
      <point x="506" y="933"/>
      <point x="583" y="848"/>
      <point x="583" y="737" type="curve" smooth="yes"/>
      <point x="583" y="732" type="line"/>
      <point x="668" y="732" type="line"/>
      <point x="668" y="735" type="line" smooth="yes"/>
      <point x="668" y="898"/>
      <point x="554" y="1003"/>
      <point x="377" y="1003" type="curve" smooth="yes"/>
      <point x="198" y="1003"/>
      <point x="91" y="894"/>
      <point x="91" y="701" type="curve" smooth="yes"/>
      <point x="91" y="282" type="line" smooth="yes"/>
      <point x="91" y="108"/>
      <point x="193" y="-10"/>
    </contour>
  </outline>
</glyph>
<glyph name="uni1047" format="2">
  <advance width="646"/>
  <unicode hex="1047"/>
  <note>
seven_m
</note>
  <outline>
    <contour>
      <point x="357" y="-467" type="curve" smooth="yes"/>
      <point x="425" y="-467"/>
      <point x="468" y="-446"/>
      <point x="505" y="-383" type="curve"/>
      <point x="442" y="-338" type="line"/>
      <point x="425" y="-379"/>
      <point x="398" y="-400"/>
      <point x="362" y="-400" type="curve" smooth="yes"/>
      <point x="313" y="-400"/>
      <point x="284" y="-370"/>
      <point x="284" y="-308" type="curve" smooth="yes"/>
      <point x="284" y="-224"/>
      <point x="351" y="-135"/>
      <point x="439" y="-21" type="curve" smooth="yes"/>
      <point x="556" y="131"/>
      <point x="591" y="211"/>
      <point x="591" y="291" type="curve" smooth="yes"/>
      <point x="591" y="444"/>
      <point x="477" y="546"/>
      <point x="321" y="546" type="curve" smooth="yes"/>
      <point x="153" y="546"/>
      <point x="50" y="432"/>
      <point x="50" y="251" type="curve" smooth="yes"/>
      <point x="50" y="134"/>
      <point x="118" y="40"/>
      <point x="175" y="18" type="curve"/>
      <point x="217" y="71" type="line"/>
      <point x="178" y="95"/>
      <point x="135" y="160"/>
      <point x="135" y="252" type="curve" smooth="yes"/>
      <point x="135" y="394"/>
      <point x="214" y="476"/>
      <point x="322" y="476" type="curve" smooth="yes"/>
      <point x="432" y="476"/>
      <point x="506" y="397"/>
      <point x="506" y="296" type="curve" smooth="yes"/>
      <point x="506" y="187"/>
      <point x="453" y="124"/>
      <point x="367" y="12" type="curve" smooth="yes"/>
      <point x="233" y="-163"/>
      <point x="198" y="-219"/>
      <point x="198" y="-310" type="curve" smooth="yes"/>
      <point x="198" y="-401"/>
      <point x="254" y="-467"/>
    </contour>
  </outline>
</glyph>
<glyph name="uni1048" format="2">
  <advance width="652"/>
  <unicode hex="1048"/>
  <note>
eight_m
</note>
  <outline>
    <contour>
      <point x="200" y="-11" type="curve"/>
      <point x="286" y="76"/>
      <point x="331" y="166"/>
      <point x="331" y="257" type="curve" smooth="yes"/>
      <point x="331" y="352"/>
      <point x="293" y="418"/>
      <point x="239" y="466" type="curve"/>
      <point x="178" y="425" type="line"/>
      <point x="230" y="386"/>
      <point x="250" y="318"/>
      <point x="250" y="256" type="curve" smooth="yes"/>
      <point x="250" y="193"/>
      <point x="222" y="143"/>
      <point x="190" y="99" type="curve"/>
      <point x="157" y="140"/>
      <point x="136" y="192"/>
      <point x="136" y="256" type="curve" smooth="yes"/>
      <point x="136" y="382"/>
      <point x="209" y="472"/>
      <point x="326" y="472" type="curve" smooth="yes"/>
      <point x="432" y="472"/>
      <point x="506" y="391"/>
      <point x="506" y="256" type="curve" smooth="yes"/>
      <point x="506" y="167"/>
      <point x="474" y="101"/>
      <point x="417" y="54" type="curve"/>
      <point x="468" y="-10" type="line"/>
      <point x="542" y="39"/>
      <point x="597" y="148"/>
      <point x="597" y="258" type="curve" smooth="yes"/>
      <point x="597" y="430"/>
      <point x="479" y="546"/>
      <point x="326" y="546" type="curve" smooth="yes"/>
      <point x="172" y="546"/>
      <point x="55" y="429"/>
      <point x="55" y="258" type="curve" smooth="yes"/>
      <point x="55" y="148"/>
      <point x="108" y="43"/>
    </contour>
  </outline>
</glyph>
<glyph name="uni1049" format="2">
  <advance width="720"/>
  <unicode hex="1049"/>
  <note>
nine_m
</note>
  <outline>
    <contour>
      <point x="377" y="-467" type="curve" smooth="yes"/>
      <point x="551" y="-467"/>
      <point x="668" y="-365"/>
      <point x="668" y="-199" type="curve" smooth="yes"/>
      <point x="668" y="-196" type="line"/>
      <point x="585" y="-196" type="line"/>
      <point x="585" y="-201" type="line" smooth="yes"/>
      <point x="585" y="-312"/>
      <point x="507" y="-396"/>
      <point x="380" y="-396" type="curve" smooth="yes"/>
      <point x="254" y="-396"/>
      <point x="174" y="-324"/>
      <point x="174" y="-165" type="curve" smooth="yes"/>
      <point x="174" y="250" type="line" smooth="yes"/>
      <point x="174" y="394"/>
      <point x="248" y="475"/>
      <point x="383" y="475" type="curve" smooth="yes"/>
      <point x="501" y="475"/>
      <point x="585" y="397"/>
      <point x="585" y="283" type="curve" smooth="yes"/>
      <point x="585" y="264"/>
      <point x="576" y="244"/>
      <point x="552" y="244" type="curve" smooth="yes"/>
      <point x="503" y="244"/>
      <point x="464" y="273"/>
      <point x="403" y="273" type="curve" smooth="yes"/>
      <point x="313" y="273"/>
      <point x="257" y="212"/>
      <point x="257" y="128" type="curve" smooth="yes"/>
      <point x="257" y="54"/>
      <point x="308" y="-11"/>
      <point x="404" y="-11" type="curve" smooth="yes"/>
      <point x="452" y="-11"/>
      <point x="491" y="3"/>
      <point x="520" y="46" type="curve"/>
      <point x="459" y="78" type="line"/>
      <point x="449" y="63"/>
      <point x="426" y="56"/>
      <point x="409" y="56" type="curve" smooth="yes"/>
      <point x="365" y="56"/>
      <point x="340" y="91"/>
      <point x="340" y="128" type="curve" smooth="yes"/>
      <point x="340" y="173"/>
      <point x="371" y="202"/>
      <point x="409" y="202" type="curve" smooth="yes"/>
      <point x="461" y="202"/>
      <point x="496" y="172"/>
      <point x="562" y="172" type="curve" smooth="yes"/>
      <point x="630" y="172"/>
      <point x="668" y="220"/>
      <point x="668" y="281" type="curve" smooth="yes"/>
      <point x="668" y="431"/>
      <point x="560" y="546"/>
      <point x="377" y="546" type="curve" smooth="yes"/>
      <point x="192" y="546"/>
      <point x="91" y="427"/>
      <point x="91" y="254" type="curve" smooth="yes"/>
      <point x="91" y="-165" type="line" smooth="yes"/>
      <point x="91" y="-357"/>
      <point x="196" y="-467"/>
    </contour>
  </outline>
</glyph>
<glyph name="endash" format="2">
  <advance width="500"/>
  <unicode hex="2013"/>
  <outline>
    <contour>
      <point x="40" y="229" type="line"/>
      <point x="460" y="229" type="line"/>
      <point x="460" y="307" type="line"/>
      <point x="40" y="307" type="line"/>
    </contour>
  </outline>
</glyph>
<glyph name="emdash" format="2">
  <advance width="1000"/>
  <unicode hex="2014"/>
  <outline>
    <contour>
      <point x="40" y="229" type="line"/>
      <point x="960" y="229" type="line"/>
      <point x="960" y="307" type="line"/>
      <point x="40" y="307" type="line"/>
    </contour>
  </outline>
</glyph>
<glyph name="dottedCircle" format="2">
  <advance width="599"/>
  <unicode hex="25CC"/>
  <anchor x="570" y="443" name="aaMatra"/>
  <anchor x="298" y="0" name="bottom"/>
  <anchor x="532" y="0" name="bottom_o"/>
  <anchor x="569" y="0" name="bottom_ra"/>
  <anchor x="598" y="0" name="bottomright"/>
  <anchor x="611" y="350" name="eBelow"/>
  <anchor x="611" y="350" name="eiMatra"/>
  <anchor x="298" y="564" name="top"/>
  <anchor x="514" y="564" name="topright"/>
  <anchor x="618" y="119" name="yyaa_post"/>
  <outline>
    <contour>
      <point x="104" y="267" type="curve" smooth="yes"/>
      <point x="117" y="267"/>
      <point x="128" y="278"/>
      <point x="128" y="291" type="curve" smooth="yes"/>
      <point x="128" y="304"/>
      <point x="117" y="315"/>
      <point x="104" y="315" type="curve" smooth="yes"/>
      <point x="91" y="315"/>
      <point x="80" y="304"/>
      <point x="80" y="291" type="curve" smooth="yes"/>
      <point x="80" y="278"/>
      <point x="91" y="267"/>
    </contour>
    <contour>
      <point x="130" y="368" type="curve" smooth="yes"/>
      <point x="143" y="368"/>
      <point x="154" y="379"/>
      <point x="154" y="392" type="curve" smooth="yes"/>
      <point x="154" y="405"/>
      <point x="143" y="416"/>
      <point x="130" y="416" type="curve" smooth="yes"/>
      <point x="117" y="416"/>
      <point x="106" y="405"/>
      <point x="106" y="392" type="curve" smooth="yes"/>
      <point x="106" y="379"/>
      <point x="117" y="368"/>
    </contour>
    <contour>
      <point x="201" y="438" type="curve" smooth="yes"/>
      <point x="214" y="438"/>
      <point x="225" y="449"/>
      <point x="225" y="462" type="curve" smooth="yes"/>
      <point x="225" y="475"/>
      <point x="214" y="486"/>
      <point x="201" y="486" type="curve" smooth="yes"/>
      <point x="188" y="486"/>
      <point x="177" y="475"/>
      <point x="177" y="462" type="curve" smooth="yes"/>
      <point x="177" y="449"/>
      <point x="188" y="438"/>
    </contour>
    <contour>
      <point x="298" y="462" type="curve" smooth="yes"/>
      <point x="311" y="462"/>
      <point x="322" y="473"/>
      <point x="322" y="486" type="curve" smooth="yes"/>
      <point x="322" y="499"/>
      <point x="311" y="510"/>
      <point x="298" y="510" type="curve" smooth="yes"/>
      <point x="285" y="510"/>
      <point x="274" y="499"/>
      <point x="274" y="486" type="curve" smooth="yes"/>
      <point x="274" y="473"/>
      <point x="285" y="462"/>
    </contour>
    <contour>
      <point x="395" y="438" type="curve" smooth="yes"/>
      <point x="408" y="438"/>
      <point x="419" y="449"/>
      <point x="419" y="462" type="curve" smooth="yes"/>
      <point x="419" y="475"/>
      <point x="408" y="486"/>
      <point x="395" y="486" type="curve" smooth="yes"/>
      <point x="382" y="486"/>
      <point x="371" y="475"/>
      <point x="371" y="462" type="curve" smooth="yes"/>
      <point x="371" y="449"/>
      <point x="382" y="438"/>
    </contour>
    <contour>
      <point x="465" y="366" type="curve" smooth="yes"/>
      <point x="478" y="366"/>
      <point x="489" y="377"/>
      <point x="489" y="390" type="curve" smooth="yes"/>
      <point x="489" y="403"/>
      <point x="478" y="414"/>
      <point x="465" y="414" type="curve" smooth="yes"/>
      <point x="452" y="414"/>
      <point x="441" y="403"/>
      <point x="441" y="390" type="curve" smooth="yes"/>
      <point x="441" y="377"/>
      <point x="452" y="366"/>
    </contour>
    <contour>
      <point x="495" y="267" type="curve" smooth="yes"/>
      <point x="508" y="267"/>
      <point x="519" y="278"/>
      <point x="519" y="291" type="curve" smooth="yes"/>
      <point x="519" y="304"/>
      <point x="508" y="315"/>
      <point x="495" y="315" type="curve" smooth="yes"/>
      <point x="482" y="315"/>
      <point x="471" y="304"/>
      <point x="471" y="291" type="curve" smooth="yes"/>
      <point x="471" y="278"/>
      <point x="482" y="267"/>
    </contour>
    <contour>
      <point x="467" y="173" type="curve" smooth="yes"/>
      <point x="480" y="173"/>
      <point x="491" y="184"/>
      <point x="491" y="197" type="curve" smooth="yes"/>
      <point x="491" y="210"/>
      <point x="480" y="221"/>
      <point x="467" y="221" type="curve" smooth="yes"/>
      <point x="454" y="221"/>
      <point x="443" y="210"/>
      <point x="443" y="197" type="curve" smooth="yes"/>
      <point x="443" y="184"/>
      <point x="454" y="173"/>
    </contour>
    <contour>
      <point x="396" y="101" type="curve" smooth="yes"/>
      <point x="409" y="101"/>
      <point x="420" y="112"/>
      <point x="420" y="125" type="curve" smooth="yes"/>
      <point x="420" y="138"/>
      <point x="409" y="149"/>
      <point x="396" y="149" type="curve" smooth="yes"/>
      <point x="383" y="149"/>
      <point x="372" y="138"/>
      <point x="372" y="125" type="curve" smooth="yes"/>
      <point x="372" y="112"/>
      <point x="383" y="101"/>
    </contour>
    <contour>
      <point x="298" y="73" type="curve" smooth="yes"/>
      <point x="311" y="73"/>
      <point x="322" y="84"/>
      <point x="322" y="97" type="curve" smooth="yes"/>
      <point x="322" y="110"/>
      <point x="311" y="121"/>
      <point x="298" y="121" type="curve" smooth="yes"/>
      <point x="285" y="121"/>
      <point x="274" y="110"/>
      <point x="274" y="97" type="curve" smooth="yes"/>
      <point x="274" y="84"/>
      <point x="285" y="73"/>
    </contour>
    <contour>
      <point x="201" y="100" type="curve" smooth="yes"/>
      <point x="214" y="100"/>
      <point x="225" y="111"/>
      <point x="225" y="124" type="curve" smooth="yes"/>
      <point x="225" y="137"/>
      <point x="214" y="148"/>
      <point x="201" y="148" type="curve" smooth="yes"/>
      <point x="188" y="148"/>
      <point x="177" y="137"/>
      <point x="177" y="124" type="curve" smooth="yes"/>
      <point x="177" y="111"/>
      <point x="188" y="100"/>
    </contour>
    <contour>
      <point x="128" y="172" type="curve" smooth="yes"/>
      <point x="141" y="172"/>
      <point x="152" y="183"/>
      <point x="152" y="196" type="curve" smooth="yes"/>
      <point x="152" y="209"/>
      <point x="141" y="220"/>
      <point x="128" y="220" type="curve" smooth="yes"/>
      <point x="115" y="220"/>
      <point x="104" y="209"/>
      <point x="104" y="196" type="curve" smooth="yes"/>
      <point x="104" y="183"/>
      <point x="115" y="172"/>
    </contour>
  </outline>
</glyph>
<glyph name="candrabindu_chakma" format="2">
  <unicode hex="11100"/>
  <anchor x="-219" y="735" name="_top"/>
  <outline>
    <contour>
      <point x="-356" y="972" type="curve"/>
      <point x="-446" y="972" type="line"/>
      <point x="-446" y="852"/>
      <point x="-357" y="735"/>
      <point x="-219" y="735" type="curve" smooth="yes"/>
      <point x="-81" y="735"/>
      <point x="3" y="852"/>
      <point x="3" y="972" type="curve"/>
      <point x="-87" y="972" type="line"/>
      <point x="-88" y="882"/>
      <point x="-139" y="808"/>
      <point x="-219" y="808" type="curve" smooth="yes"/>
      <point x="-299" y="808"/>
      <point x="-356" y="882"/>
    </contour>
    <component base="anusvara_chakma" xOffset="-5" yOffset="-58"/>
  </outline>
</glyph>
<glyph name="anusvara_chakma" format="2">
  <unicode hex="11101"/>
  <anchor x="-214" y="905" name="_top"/>
  <outline>
    <contour>
      <point x="-214" y="915" type="curve" smooth="yes"/>
      <point x="-173" y="915"/>
      <point x="-140" y="948"/>
      <point x="-140" y="990" type="curve" smooth="yes"/>
      <point x="-140" y="1030"/>
      <point x="-173" y="1063"/>
      <point x="-214" y="1063" type="curve" smooth="yes"/>
      <point x="-255" y="1063"/>
      <point x="-288" y="1030"/>
      <point x="-288" y="990" type="curve" smooth="yes"/>
      <point x="-288" y="948"/>
      <point x="-255" y="915"/>
    </contour>
  </outline>
</glyph>
<glyph name="aa_chakma" format="2">
  <advance width="1021"/>
  <unicode hex="11103"/>
  <anchor x="928" y="382" name="aaMatra"/>
  <anchor x="503" y="0" name="bottom"/>
  <anchor x="777" y="10" name="bottom_o"/>
  <anchor x="768" y="15" name="bottom_ra"/>
  <anchor x="826" y="23" name="bottomright"/>
  <anchor x="928" y="382" name="eBelow"/>
  <anchor x="959" y="382" name="eiMatra"/>
  <anchor x="515" y="590" name="top"/>
  <anchor x="818" y="514" name="topright"/>
  <anchor x="926" y="134" name="yyaa_post"/>
  <outline>
    <contour>
      <point x="286" y="-10" type="curve" smooth="yes"/>
      <point x="447" y="-10"/>
      <point x="553" y="108"/>
      <point x="553" y="269" type="curve" smooth="yes"/>
      <point x="553" y="432"/>
      <point x="451" y="551"/>
      <point x="290" y="551" type="curve" smooth="yes"/>
      <point x="174" y="551"/>
      <point x="81" y="482"/>
      <point x="50" y="375" type="curve"/>
      <point x="136" y="361" type="line"/>
      <point x="152" y="422"/>
      <point x="203" y="484"/>
      <point x="289" y="484" type="curve" smooth="yes"/>
      <point x="398" y="484"/>
      <point x="463" y="395"/>
      <point x="463" y="270" type="curve" smooth="yes"/>
      <point x="463" y="151"/>
      <point x="396" y="57"/>
      <point x="288" y="57" type="curve" smooth="yes"/>
      <point x="213" y="57"/>
      <point x="161" y="105"/>
      <point x="136" y="178" type="curve"/>
      <point x="50" y="153" type="line"/>
      <point x="85" y="56"/>
      <point x="165" y="-10"/>
    </contour>
    <contour>
      <point x="708" y="-10" type="curve" smooth="yes"/>
      <point x="860" y="-10"/>
      <point x="961" y="111"/>
      <point x="961" y="273" type="curve" smooth="yes"/>
      <point x="961" y="431"/>
      <point x="860" y="550"/>
      <point x="711" y="550" type="curve" smooth="yes"/>
      <point x="560" y="550"/>
      <point x="499" y="433"/>
      <point x="477" y="370" type="curve"/>
      <point x="552" y="301" type="line"/>
      <point x="563" y="388"/>
      <point x="616" y="483"/>
      <point x="713" y="483" type="curve" smooth="yes"/>
      <point x="808" y="483"/>
      <point x="871" y="391"/>
      <point x="871" y="271" type="curve" smooth="yes"/>
      <point x="871" y="151"/>
      <point x="806" y="57"/>
      <point x="711" y="57" type="curve" smooth="yes"/>
      <point x="683" y="57"/>
      <point x="659" y="65"/>
      <point x="639" y="76" type="curve"/>
      <point x="588" y="22" type="line"/>
      <point x="614" y="7"/>
      <point x="652" y="-10"/>
    </contour>
  </outline>
</glyph>
<glyph name="i_chakma" format="2">
  <advance width="733"/>
  <unicode hex="11104"/>
  <anchor x="618" y="382" name="aaMatra"/>
  <anchor x="402" y="0" name="bottom"/>
  <anchor x="537" y="10" name="bottom_o"/>
  <anchor x="561" y="25" name="bottom_ra"/>
  <anchor x="582" y="-20" name="bottomright"/>
  <anchor x="614" y="382" name="eBelow"/>
  <anchor x="615" y="382" name="eiMatra"/>
  <anchor x="409" y="560" name="top"/>
  <anchor x="654" y="522" name="topright"/>
  <anchor x="574" y="134" name="yyaa_post"/>
  <outline>
    <contour>
      <point x="492" y="0" type="curve"/>
      <point x="582" y="0" type="line"/>
      <point x="569" y="117"/>
      <point x="572" y="213"/>
      <point x="583" y="280" type="curve" smooth="yes"/>
      <point x="600" y="379"/>
      <point x="641" y="441"/>
      <point x="693" y="506" type="curve"/>
      <point x="633" y="547" type="line"/>
      <point x="553" y="461"/>
      <point x="510" y="370"/>
      <point x="490" y="250" type="curve"/>
      <point x="499" y="249" type="line"/>
      <point x="454" y="312"/>
      <point x="394" y="333"/>
      <point x="323" y="333" type="curve" smooth="yes"/>
      <point x="203" y="333"/>
      <point x="107" y="268"/>
      <point x="107" y="175" type="curve" smooth="yes"/>
      <point x="107" y="95"/>
      <point x="179" y="47"/>
      <point x="244" y="47" type="curve" smooth="yes"/>
      <point x="350" y="47"/>
      <point x="412" y="174"/>
      <point x="412" y="289" type="curve" smooth="yes"/>
      <point x="412" y="429"/>
      <point x="331" y="529"/>
      <point x="214" y="529" type="curve" smooth="yes"/>
      <point x="143" y="529"/>
      <point x="75" y="492"/>
      <point x="22" y="431" type="curve"/>
      <point x="77" y="396" type="line"/>
      <point x="113" y="435"/>
      <point x="159" y="462"/>
      <point x="204" y="462" type="curve" smooth="yes"/>
      <point x="270" y="462"/>
      <point x="325" y="405"/>
      <point x="325" y="283" type="curve" smooth="yes"/>
      <point x="325" y="203"/>
      <point x="297" y="114"/>
      <point x="247" y="114" type="curve" smooth="yes"/>
      <point x="219" y="114"/>
      <point x="197" y="142"/>
      <point x="197" y="176" type="curve" smooth="yes"/>
      <point x="197" y="229"/>
      <point x="251" y="264"/>
      <point x="313" y="264" type="curve" smooth="yes"/>
      <point x="427" y="264"/>
      <point x="492" y="175"/>
    </contour>
  </outline>
</glyph>
<glyph name="u_chakma" format="2">
  <advance width="606"/>
  <unicode hex="11105"/>
  <anchor x="539" y="382" name="aaMatra"/>
  <anchor x="306" y="0" name="bottom"/>
  <anchor x="387" y="10" name="bottom_o"/>
  <anchor x="507" y="15" name="bottom_ra"/>
  <anchor x="427" y="18" name="bottomright"/>
  <anchor x="515" y="382" name="eBelow"/>
  <anchor x="515" y="382" name="eiMatra"/>
  <anchor x="312" y="590" name="top"/>
  <anchor x="432" y="523" name="topright"/>
  <anchor x="525" y="134" name="yyaa_post"/>
  <outline>
    <contour>
      <point x="286" y="-10" type="curve" smooth="yes"/>
      <point x="489" y="-10"/>
      <point x="546" y="114"/>
      <point x="546" y="219" type="curve"/>
      <point x="453" y="189" type="line"/>
      <point x="453" y="163"/>
      <point x="446" y="57"/>
      <point x="292" y="57" type="curve" smooth="yes"/>
      <point x="197" y="57"/>
      <point x="150" y="95"/>
      <point x="150" y="142" type="curve" smooth="yes"/>
      <point x="150" y="193"/>
      <point x="199" y="206"/>
      <point x="274" y="226" type="curve" smooth="yes"/>
      <point x="297" y="232" type="line" smooth="yes"/>
      <point x="411" y="262"/>
      <point x="523" y="294"/>
      <point x="523" y="409" type="curve" smooth="yes"/>
      <point x="523" y="516"/>
      <point x="425" y="550"/>
      <point x="313" y="550" type="curve" smooth="yes"/>
      <point x="159" y="550"/>
      <point x="62" y="468"/>
      <point x="62" y="337" type="curve"/>
      <point x="157" y="357" type="line"/>
      <point x="157" y="416"/>
      <point x="180" y="483"/>
      <point x="309" y="483" type="curve" smooth="yes"/>
      <point x="391" y="483"/>
      <point x="433" y="458"/>
      <point x="433" y="399" type="curve" smooth="yes"/>
      <point x="433" y="345"/>
      <point x="398" y="327"/>
      <point x="288" y="298" type="curve" smooth="yes"/>
      <point x="269" y="293" type="line" smooth="yes"/>
      <point x="154" y="263"/>
      <point x="60" y="236"/>
      <point x="60" y="137" type="curve" smooth="yes"/>
      <point x="60" y="38"/>
      <point x="162" y="-10"/>
    </contour>
  </outline>
</glyph>
<glyph name="e_chakma" format="2">
  <advance width="677"/>
  <unicode hex="11106"/>
  <guideline x="109" y="372" angle="192.0115"/>
  <anchor x="589" y="382" name="aaMatra"/>
  <anchor x="381" y="0" name="bottom"/>
  <anchor x="414" y="15" name="bottom_o"/>
  <anchor x="534" y="25" name="bottom_ra"/>
  <anchor x="404" y="-15" name="bottomright"/>
  <anchor x="609" y="382" name="eBelow"/>
  <anchor x="625" y="382" name="eiMatra"/>
  <anchor x="338" y="590" name="top"/>
  <anchor x="495" y="506" name="topright"/>
  <anchor x="562" y="134" name="yyaa_post"/>
  <outline>
    <contour>
      <point x="403" y="-10" type="line"/>
      <point x="463" y="22"/>
      <point x="617" y="129"/>
      <point x="617" y="303" type="curve" smooth="yes"/>
      <point x="617" y="439"/>
      <point x="523" y="545"/>
      <point x="359" y="545" type="curve" smooth="yes"/>
      <point x="248" y="545"/>
      <point x="104" y="498"/>
      <point x="62" y="362" type="curve"/>
      <point x="156" y="382" type="line"/>
      <point x="204" y="455"/>
      <point x="272" y="477"/>
      <point x="339" y="477" type="curve" smooth="yes"/>
      <point x="462" y="477"/>
      <point x="527" y="394"/>
      <point x="527" y="296" type="curve" smooth="yes"/>
      <point x="527" y="219"/>
      <point x="489" y="125"/>
      <point x="423" y="73" type="curve"/>
      <point x="425" y="67" type="line"/>
      <point x="448" y="112"/>
      <point x="454" y="149"/>
      <point x="454" y="176" type="curve" smooth="yes"/>
      <point x="454" y="279"/>
      <point x="372" y="331"/>
      <point x="267" y="331" type="curve" smooth="yes"/>
      <point x="142" y="331"/>
      <point x="60" y="259"/>
      <point x="60" y="167" type="curve" smooth="yes"/>
      <point x="60" y="87"/>
      <point x="124" y="46"/>
      <point x="195" y="46" type="curve" smooth="yes"/>
      <point x="285" y="46"/>
      <point x="325" y="114"/>
      <point x="325" y="169" type="curve" smooth="yes"/>
      <point x="325" y="246"/>
      <point x="243" y="275"/>
      <point x="187" y="275" type="curve" smooth="yes"/>
      <point x="159" y="275"/>
      <point x="132" y="269"/>
      <point x="103" y="254" type="curve"/>
      <point x="103" y="209" type="line"/>
      <point x="127" y="224"/>
      <point x="152" y="231"/>
      <point x="175" y="231" type="curve" smooth="yes"/>
      <point x="212" y="231"/>
      <point x="243" y="213"/>
      <point x="243" y="170" type="curve" smooth="yes"/>
      <point x="243" y="136"/>
      <point x="225" y="113"/>
      <point x="195" y="113" type="curve" smooth="yes"/>
      <point x="167" y="113"/>
      <point x="150" y="133"/>
      <point x="150" y="169" type="curve" smooth="yes"/>
      <point x="150" y="239"/>
      <point x="215" y="264"/>
      <point x="260" y="264" type="curve" smooth="yes"/>
      <point x="331" y="264"/>
      <point x="368" y="204"/>
      <point x="368" y="144" type="curve" smooth="yes"/>
      <point x="368" y="105"/>
      <point x="352" y="62"/>
      <point x="323" y="23" type="curve"/>
    </contour>
  </outline>
</glyph>
<glyph name="kaa_chakma" format="2">
  <advance width="988"/>
  <unicode hex="11107"/>
  <anchor x="901" y="382" name="aaMatra"/>
  <anchor x="498" y="0" name="bottom"/>
  <anchor x="787" y="52" name="bottom_o"/>
  <anchor x="816" y="15" name="bottom_ra"/>
  <anchor x="823" y="46" name="bottomright"/>
  <anchor x="921" y="382" name="eBelow"/>
  <anchor x="931" y="382" name="eiMatra"/>
  <anchor x="494" y="590" name="top"/>
  <anchor x="799" y="511" name="topright"/>
  <anchor x="897" y="134" name="yyaa_post"/>
  <outline>
    <contour>
      <point x="198" y="-10" type="curve"/>
      <point x="246" y="46" type="line"/>
      <point x="189" y="93"/>
      <point x="150" y="170"/>
      <point x="150" y="270" type="curve" smooth="yes"/>
      <point x="150" y="394"/>
      <point x="208" y="476"/>
      <point x="296" y="476" type="curve" smooth="yes"/>
      <point x="383" y="476"/>
      <point x="449" y="398"/>
      <point x="449" y="270" type="curve"/>
      <point x="539" y="270" type="line"/>
      <point x="539" y="396"/>
      <point x="605" y="476"/>
      <point x="692" y="476" type="curve" smooth="yes"/>
      <point x="780" y="476"/>
      <point x="838" y="394"/>
      <point x="838" y="270" type="curve" smooth="yes"/>
      <point x="838" y="170"/>
      <point x="799" y="93"/>
      <point x="742" y="46" type="curve"/>
      <point x="790" y="-10" type="line"/>
      <point x="863" y="48"/>
      <point x="928" y="159"/>
      <point x="928" y="279" type="curve" smooth="yes"/>
      <point x="928" y="439"/>
      <point x="829" y="550"/>
      <point x="698" y="550" type="curve" smooth="yes"/>
      <point x="601" y="550"/>
      <point x="522" y="490"/>
      <point x="484" y="375" type="curve"/>
      <point x="504" y="375" type="line"/>
      <point x="466" y="490"/>
      <point x="387" y="550"/>
      <point x="290" y="550" type="curve" smooth="yes"/>
      <point x="160" y="550"/>
      <point x="60" y="434"/>
      <point x="60" y="274" type="curve" smooth="yes"/>
      <point x="60" y="154"/>
      <point x="125" y="48"/>
    </contour>
  </outline>
</glyph>
<glyph name="khaa_chakma" format="2">
  <advance width="716"/>
  <unicode hex="11108"/>
  <anchor x="630" y="382" name="aaMatra"/>
  <anchor x="345" y="0" name="bottom"/>
  <anchor x="478" y="10" name="bottom_o"/>
  <anchor x="567" y="15" name="bottom_ra"/>
  <anchor x="534" y="-4" name="bottomright"/>
  <anchor x="518" y="15" name="bottomright_u"/>
  <anchor x="646" y="382" name="eBelow"/>
  <anchor x="636" y="382" name="eiMatra"/>
  <anchor x="359" y="590" name="top"/>
  <anchor x="482" y="513" name="topright"/>
  <anchor x="638" y="134" name="yyaa_post"/>
  <outline>
    <contour>
      <point x="198" y="-10" type="curve"/>
      <point x="246" y="46" type="line"/>
      <point x="189" y="93"/>
      <point x="150" y="167"/>
      <point x="150" y="256" type="curve" smooth="yes"/>
      <point x="150" y="390"/>
      <point x="248" y="483"/>
      <point x="359" y="483" type="curve" smooth="yes"/>
      <point x="468" y="483"/>
      <point x="566" y="398"/>
      <point x="566" y="255" type="curve" smooth="yes"/>
      <point x="566" y="158"/>
      <point x="543" y="57"/>
      <point x="490" y="57" type="curve" smooth="yes"/>
      <point x="464" y="57"/>
      <point x="448" y="82"/>
      <point x="448" y="112" type="curve" smooth="yes"/>
      <point x="448" y="153"/>
      <point x="480" y="188"/>
      <point x="530" y="188" type="curve" smooth="yes"/>
      <point x="563" y="188"/>
      <point x="597" y="173"/>
      <point x="625" y="155" type="curve"/>
      <point x="633" y="222" type="line"/>
      <point x="605" y="240"/>
      <point x="569" y="255"/>
      <point x="524" y="255" type="curve" smooth="yes"/>
      <point x="439" y="255"/>
      <point x="370" y="196"/>
      <point x="370" y="115" type="curve" smooth="yes"/>
      <point x="370" y="40"/>
      <point x="421" y="-10"/>
      <point x="490" y="-10" type="curve" smooth="yes"/>
      <point x="602" y="-10"/>
      <point x="656" y="121"/>
      <point x="656" y="258" type="curve" smooth="yes"/>
      <point x="656" y="441"/>
      <point x="521" y="550"/>
      <point x="359" y="550" type="curve" smooth="yes"/>
      <point x="199" y="550"/>
      <point x="60" y="428"/>
      <point x="60" y="258" type="curve" smooth="yes"/>
      <point x="60" y="143"/>
      <point x="125" y="38"/>
    </contour>
  </outline>
</glyph>
<glyph name="gaa_chakma" format="2">
  <advance width="716"/>
  <unicode hex="11109"/>
  <anchor x="630" y="382" name="aaMatra"/>
  <anchor x="359" y="0" name="bottom"/>
  <anchor x="519" y="10" name="bottom_o"/>
  <anchor x="562" y="15" name="bottom_ra"/>
  <anchor x="470" y="47" name="bottomright"/>
  <anchor x="470" y="46" name="bottomright_u"/>
  <anchor x="646" y="382" name="eBelow"/>
  <anchor x="635" y="382" name="eiMatra"/>
  <anchor x="358" y="590" name="top"/>
  <anchor x="498" y="509" name="topright"/>
  <anchor x="630" y="134" name="yyaa_post"/>
  <outline>
    <contour>
      <point x="198" y="-10" type="curve"/>
      <point x="246" y="46" type="line"/>
      <point x="189" y="93"/>
      <point x="150" y="172"/>
      <point x="150" y="256" type="curve" smooth="yes"/>
      <point x="150" y="390"/>
      <point x="239" y="483"/>
      <point x="359" y="483" type="curve" smooth="yes"/>
      <point x="479" y="483"/>
      <point x="566" y="390"/>
      <point x="566" y="256" type="curve" smooth="yes"/>
      <point x="566" y="172"/>
      <point x="527" y="93"/>
      <point x="470" y="46" type="curve"/>
      <point x="518" y="-10" type="line"/>
      <point x="591" y="38"/>
      <point x="656" y="148"/>
      <point x="656" y="258" type="curve" smooth="yes"/>
      <point x="656" y="426"/>
      <point x="529" y="550"/>
      <point x="359" y="550" type="curve" smooth="yes"/>
      <point x="189" y="550"/>
      <point x="60" y="428"/>
      <point x="60" y="258" type="curve" smooth="yes"/>
      <point x="60" y="148"/>
      <point x="125" y="38"/>
    </contour>
  </outline>
</glyph>
<glyph name="ghaa_chakma" format="2">
  <advance width="1101"/>
  <unicode hex="1110A"/>
  <anchor x="1013" y="382" name="aaMatra"/>
  <anchor x="553" y="0" name="bottom"/>
  <anchor x="839" y="10" name="bottom_o"/>
  <anchor x="878" y="15" name="bottom_ra"/>
  <anchor x="884" y="20" name="bottomright"/>
  <anchor x="1013" y="382" name="eBelow"/>
  <anchor x="1043" y="382" name="eiMatra"/>
  <anchor x="547" y="590" name="top"/>
  <anchor x="895" y="517" name="topright"/>
  <anchor x="1004" y="134" name="yyaa_post"/>
  <outline>
    <contour>
      <point x="298" y="-9" type="curve" smooth="yes"/>
      <point x="491" y="-9"/>
      <point x="648" y="98"/>
      <point x="648" y="320" type="curve" smooth="yes"/>
      <point x="648" y="376"/>
      <point x="635" y="456"/>
      <point x="568" y="520" type="curve"/>
      <point x="486" y="499" type="line"/>
      <point x="547" y="436"/>
      <point x="558" y="367"/>
      <point x="558" y="322" type="curve" smooth="yes"/>
      <point x="558" y="149"/>
      <point x="436" y="58"/>
      <point x="296" y="58" type="curve" smooth="yes"/>
      <point x="236" y="58"/>
      <point x="187" y="77"/>
      <point x="162" y="88" type="curve"/>
      <point x="166" y="82" type="line"/>
      <point x="264" y="143"/>
      <point x="339" y="223"/>
      <point x="339" y="344" type="curve" smooth="yes"/>
      <point x="339" y="459"/>
      <point x="266" y="526"/>
      <point x="166" y="526" type="curve" smooth="yes"/>
      <point x="139" y="526"/>
      <point x="110" y="521"/>
      <point x="79" y="510" type="curve"/>
      <point x="79" y="447" type="line"/>
      <point x="102" y="455"/>
      <point x="122" y="459"/>
      <point x="141" y="459" type="curve" smooth="yes"/>
      <point x="211" y="459"/>
      <point x="249" y="413"/>
      <point x="249" y="336" type="curve" smooth="yes"/>
      <point x="249" y="216"/>
      <point x="152" y="152"/>
      <point x="77" y="125" type="curve"/>
      <point x="50" y="55" type="line"/>
      <point x="98" y="29"/>
      <point x="189" y="-9"/>
    </contour>
    <contour>
      <point x="765" y="-10" type="curve" smooth="yes"/>
      <point x="926" y="-10"/>
      <point x="1041" y="118"/>
      <point x="1041" y="279" type="curve" smooth="yes"/>
      <point x="1041" y="442"/>
      <point x="929" y="551"/>
      <point x="768" y="551" type="curve"/>
      <point x="768" y="484" type="line"/>
      <point x="877" y="484"/>
      <point x="951" y="395"/>
      <point x="951" y="270" type="curve" smooth="yes"/>
      <point x="951" y="151"/>
      <point x="879" y="57"/>
      <point x="772" y="57" type="curve" smooth="yes"/>
      <point x="696" y="57"/>
      <point x="632" y="106"/>
      <point x="614" y="178" type="curve"/>
      <point x="537" y="143" type="line"/>
      <point x="563" y="56"/>
      <point x="644" y="-10"/>
    </contour>
  </outline>
</glyph>
<glyph name="ngaa_chakma" format="2">
  <advance width="584"/>
  <unicode hex="1110B"/>
  <anchor x="498" y="382" name="aaMatra"/>
  <anchor x="288" y="0" name="bottom"/>
  <anchor x="401" y="10" name="bottom_o"/>
  <anchor x="505" y="15" name="bottom_ra"/>
  <anchor x="421" y="34" name="bottomright"/>
  <anchor x="498" y="382" name="eBelow"/>
  <anchor x="498" y="382" name="eiMatra"/>
  <anchor x="293" y="590" name="top"/>
  <anchor x="426" y="513" name="topright"/>
  <anchor x="498" y="134" name="yyaa_post"/>
  <outline>
    <contour>
      <point x="288" y="-10" type="curve" smooth="yes"/>
      <point x="447" y="-10"/>
      <point x="521" y="82"/>
      <point x="554" y="156" type="curve"/>
      <point x="480" y="167" type="line"/>
      <point x="451" y="109"/>
      <point x="385" y="57"/>
      <point x="297" y="57" type="curve" smooth="yes"/>
      <point x="226" y="57"/>
      <point x="150" y="91"/>
      <point x="150" y="167" type="curve" smooth="yes"/>
      <point x="150" y="223"/>
      <point x="195" y="251"/>
      <point x="268" y="251" type="curve" smooth="yes"/>
      <point x="289" y="251" type="line"/>
      <point x="289" y="318" type="line"/>
      <point x="271" y="318" type="line" smooth="yes"/>
      <point x="225" y="318"/>
      <point x="159" y="339"/>
      <point x="159" y="395" type="curve" smooth="yes"/>
      <point x="159" y="453"/>
      <point x="232" y="483"/>
      <point x="304" y="483" type="curve" smooth="yes"/>
      <point x="396" y="483"/>
      <point x="440" y="430"/>
      <point x="458" y="402" type="curve"/>
      <point x="513" y="445" type="line"/>
      <point x="476" y="498"/>
      <point x="415" y="550"/>
      <point x="296" y="550" type="curve" smooth="yes"/>
      <point x="154" y="550"/>
      <point x="69" y="478"/>
      <point x="69" y="389" type="curve" smooth="yes"/>
      <point x="69" y="345"/>
      <point x="90" y="304"/>
      <point x="147" y="277" type="curve"/>
      <point x="147" y="291" type="line"/>
      <point x="89" y="272"/>
      <point x="60" y="220"/>
      <point x="60" y="163" type="curve" smooth="yes"/>
      <point x="60" y="66"/>
      <point x="148" y="-10"/>
    </contour>
  </outline>
</glyph>
<glyph name="caa_chakma" format="2">
  <advance width="716"/>
  <unicode hex="1110C"/>
  <anchor x="627" y="382" name="aaMatra"/>
  <anchor x="338" y="0" name="bottom"/>
  <anchor x="492" y="30" name="bottom_o"/>
  <anchor x="558" y="15" name="bottom_ra"/>
  <anchor x="512" y="47" name="bottomright"/>
  <anchor x="637" y="382" name="eBelow"/>
  <anchor x="667" y="382" name="eiMatra"/>
  <anchor x="351" y="590" name="top"/>
  <anchor x="552" y="517" name="topright"/>
  <anchor x="606" y="134" name="yyaa_post"/>
  <outline>
    <contour>
      <point x="308" y="-10" type="curve" smooth="yes"/>
      <point x="496" y="-10"/>
      <point x="656" y="98"/>
      <point x="656" y="320" type="curve" smooth="yes"/>
      <point x="656" y="406"/>
      <point x="632" y="486"/>
      <point x="570" y="550" type="curve"/>
      <point x="488" y="529" type="line"/>
      <point x="544" y="466"/>
      <point x="566" y="397"/>
      <point x="566" y="322" type="curve" smooth="yes"/>
      <point x="566" y="149"/>
      <point x="441" y="57"/>
      <point x="306" y="57" type="curve" smooth="yes"/>
      <point x="246" y="57"/>
      <point x="197" y="77"/>
      <point x="172" y="88" type="curve"/>
      <point x="176" y="82" type="line"/>
      <point x="274" y="143"/>
      <point x="349" y="223"/>
      <point x="349" y="344" type="curve" smooth="yes"/>
      <point x="349" y="459"/>
      <point x="276" y="526"/>
      <point x="176" y="526" type="curve" smooth="yes"/>
      <point x="149" y="526"/>
      <point x="120" y="521"/>
      <point x="89" y="510" type="curve"/>
      <point x="89" y="447" type="line"/>
      <point x="112" y="455"/>
      <point x="132" y="459"/>
      <point x="151" y="459" type="curve" smooth="yes"/>
      <point x="221" y="459"/>
      <point x="259" y="413"/>
      <point x="259" y="336" type="curve" smooth="yes"/>
      <point x="259" y="216"/>
      <point x="162" y="152"/>
      <point x="87" y="125" type="curve"/>
      <point x="60" y="55" type="line"/>
      <point x="108" y="29"/>
      <point x="199" y="-10"/>
    </contour>
  </outline>
</glyph>
<glyph name="chaa_chakma" format="2">
  <advance width="799"/>
  <unicode hex="1110D"/>
  <anchor x="722" y="382" name="aaMatra"/>
  <anchor x="398" y="0" name="bottom"/>
  <anchor x="581" y="10" name="bottom_o"/>
  <anchor x="621" y="-30" name="bottom_ra"/>
  <anchor x="602" y="36" name="bottomright"/>
  <anchor x="732" y="382" name="eBelow"/>
  <anchor x="722" y="382" name="eiMatra"/>
  <anchor x="398" y="590" name="top"/>
  <anchor x="629" y="524" name="topright"/>
  <anchor x="699" y="134" name="yyaa_post"/>
  <outline>
    <contour>
      <point x="194" y="-10" type="curve" smooth="yes"/>
      <point x="350" y="-10"/>
      <point x="421" y="197"/>
      <point x="421" y="315" type="curve" smooth="yes"/>
      <point x="421" y="444"/>
      <point x="338" y="526"/>
      <point x="235" y="526" type="curve" smooth="yes"/>
      <point x="210" y="526"/>
      <point x="182" y="521"/>
      <point x="151" y="510" type="curve"/>
      <point x="151" y="447" type="line"/>
      <point x="174" y="455"/>
      <point x="195" y="459"/>
      <point x="214" y="459" type="curve" smooth="yes"/>
      <point x="284" y="459"/>
      <point x="331" y="402"/>
      <point x="331" y="313" type="curve" smooth="yes"/>
      <point x="331" y="219"/>
      <point x="281" y="57"/>
      <point x="206" y="57" type="curve" smooth="yes"/>
      <point x="178" y="57"/>
      <point x="150" y="81"/>
      <point x="150" y="117" type="curve" smooth="yes"/>
      <point x="150" y="150"/>
      <point x="174" y="179"/>
      <point x="210" y="179" type="curve" smooth="yes"/>
      <point x="301" y="179"/>
      <point x="305" y="-10"/>
      <point x="488" y="-10" type="curve" smooth="yes"/>
      <point x="672" y="-10"/>
      <point x="739" y="183"/>
      <point x="739" y="313" type="curve" smooth="yes"/>
      <point x="739" y="414"/>
      <point x="699" y="493"/>
      <point x="643" y="550" type="curve"/>
      <point x="562" y="529" type="line"/>
      <point x="617" y="467"/>
      <point x="649" y="392"/>
      <point x="649" y="302" type="curve" smooth="yes"/>
      <point x="649" y="192"/>
      <point x="597" y="57"/>
      <point x="493" y="57" type="curve" smooth="yes"/>
      <point x="369" y="57"/>
      <point x="355" y="246"/>
      <point x="201" y="246" type="curve" smooth="yes"/>
      <point x="123" y="246"/>
      <point x="64" y="188"/>
      <point x="64" y="115" type="curve" smooth="yes"/>
      <point x="64" y="35"/>
      <point x="132" y="-10"/>
    </contour>
  </outline>
</glyph>
<glyph name="jaa_chakma" format="2">
  <advance width="656"/>
  <unicode hex="1110E"/>
  <anchor x="582" y="382" name="aaMatra"/>
  <anchor x="340" y="0" name="bottom"/>
  <anchor x="449" y="10" name="bottom_o"/>
  <anchor x="534" y="15" name="bottom_ra"/>
  <anchor x="521" y="51" name="bottomright"/>
  <anchor x="582" y="382" name="eBelow"/>
  <anchor x="588" y="382" name="eiMatra"/>
  <anchor x="335" y="590" name="top"/>
  <anchor x="496" y="507" name="topright"/>
  <anchor x="586" y="134" name="yyaa_post"/>
  <outline>
    <contour>
      <point x="323" y="-10" type="curve" smooth="yes"/>
      <point x="485" y="-10"/>
      <point x="606" y="86"/>
      <point x="606" y="214" type="curve" smooth="yes"/>
      <point x="606" y="295"/>
      <point x="551" y="364"/>
      <point x="464" y="364" type="curve" smooth="yes"/>
      <point x="393" y="364"/>
      <point x="340" y="317"/>
      <point x="340" y="252" type="curve" smooth="yes"/>
      <point x="340" y="183"/>
      <point x="399" y="147"/>
      <point x="451" y="147" type="curve" smooth="yes"/>
      <point x="544" y="147"/>
      <point x="602" y="269"/>
      <point x="602" y="361" type="curve" smooth="yes"/>
      <point x="602" y="492"/>
      <point x="463" y="550"/>
      <point x="334" y="550" type="curve" smooth="yes"/>
      <point x="196" y="550"/>
      <point x="70" y="483"/>
      <point x="70" y="375" type="curve" smooth="yes"/>
      <point x="70" y="300"/>
      <point x="134" y="254"/>
      <point x="203" y="254" type="curve" smooth="yes"/>
      <point x="287" y="254"/>
      <point x="338" y="320"/>
      <point x="338" y="378" type="curve" smooth="yes"/>
      <point x="338" y="431"/>
      <point x="296" y="480"/>
      <point x="225" y="480" type="curve" smooth="yes"/>
      <point x="182.258" y="480"/>
      <point x="146.58" y="462.611"/>
      <point x="117.116" y="441.854" type="curve"/>
      <point x="110.604" y="401.855" type="line"/>
      <point x="137.071" y="418.775"/>
      <point x="169.141" y="431"/>
      <point x="202" y="431" type="curve" smooth="yes"/>
      <point x="242" y="431"/>
      <point x="268" y="413"/>
      <point x="268" y="377" type="curve" smooth="yes"/>
      <point x="268" y="342"/>
      <point x="242" y="321"/>
      <point x="213" y="321" type="curve" smooth="yes"/>
      <point x="183" y="321"/>
      <point x="156" y="342"/>
      <point x="156" y="376" type="curve" smooth="yes"/>
      <point x="156" y="433"/>
      <point x="227" y="483"/>
      <point x="322" y="483" type="curve" smooth="yes"/>
      <point x="432" y="483"/>
      <point x="532" y="416"/>
      <point x="532" y="303" type="curve" smooth="yes"/>
      <point x="532" y="243"/>
      <point x="503" y="207"/>
      <point x="458" y="207" type="curve" smooth="yes"/>
      <point x="427" y="207"/>
      <point x="408" y="224"/>
      <point x="408" y="253" type="curve" smooth="yes"/>
      <point x="408" y="285"/>
      <point x="430" y="303"/>
      <point x="462" y="303" type="curve" smooth="yes"/>
      <point x="509" y="303"/>
      <point x="536" y="270"/>
      <point x="536" y="219" type="curve" smooth="yes"/>
      <point x="536" y="112"/>
      <point x="414" y="57"/>
      <point x="320" y="57" type="curve" smooth="yes"/>
      <point x="203" y="57"/>
      <point x="160" y="134"/>
      <point x="146" y="168" type="curve"/>
      <point x="60" y="168" type="line"/>
      <point x="78" y="76"/>
      <point x="171" y="-10"/>
    </contour>
  </outline>
</glyph>
<glyph name="ddaa_chakma" format="2">
  <advance width="601"/>
  <unicode hex="11113"/>
  <guideline x="131" y="356" angle="192.5288"/>
  <anchor x="514" y="382" name="aaMatra"/>
  <anchor x="317" y="0" name="bottom"/>
  <anchor x="422" y="10" name="bottom_o"/>
  <anchor x="507" y="15" name="bottom_ra"/>
  <anchor x="487" y="17" name="bottomright"/>
  <anchor x="523" y="382" name="eBelow"/>
  <anchor x="524" y="384" name="eiMatra"/>
  <anchor x="300" y="590" name="top"/>
  <anchor x="443" y="519" name="topright"/>
  <anchor x="514" y="134" name="yyaa_post"/>
  <outline>
    <contour>
      <point x="60" y="0" type="line"/>
      <point x="541" y="0" type="line"/>
      <point x="541" y="67" type="line"/>
      <point x="190" y="67" type="line"/>
      <point x="192" y="38" type="line"/>
      <point x="372" y="163"/>
      <point x="528" y="294"/>
      <point x="528" y="418" type="curve" smooth="yes"/>
      <point x="528" y="512"/>
      <point x="437" y="549"/>
      <point x="338" y="549" type="curve" smooth="yes"/>
      <point x="158" y="549"/>
      <point x="87" y="437"/>
      <point x="86" y="346" type="curve"/>
      <point x="176" y="366" type="line"/>
      <point x="172" y="430"/>
      <point x="225" y="483"/>
      <point x="330" y="483" type="curve" smooth="yes"/>
      <point x="387" y="483"/>
      <point x="438" y="465"/>
      <point x="438" y="411" type="curve" smooth="yes"/>
      <point x="438" y="297"/>
      <point x="204" y="90"/>
      <point x="60" y="67" type="curve"/>
    </contour>
  </outline>
</glyph>
<glyph name="ddhaa_chakma" format="2">
  <advance width="775"/>
  <unicode hex="11114"/>
  <anchor x="689" y="382" name="aaMatra"/>
  <anchor x="367" y="0" name="bottom"/>
  <anchor x="526" y="40" name="bottom_o"/>
  <anchor x="572" y="15" name="bottom_ra"/>
  <anchor x="516" y="44" name="bottomright"/>
  <anchor x="682" y="382" name="eBelow"/>
  <anchor x="660" y="382" name="eiMatra"/>
  <anchor x="410" y="590" name="top"/>
  <anchor x="617" y="522" name="topright"/>
  <anchor x="629" y="134" name="yyaa_post"/>
  <outline>
    <contour>
      <point x="315" y="-10" type="curve" smooth="yes"/>
      <point x="563" y="-10"/>
      <point x="715" y="170"/>
      <point x="715" y="385" type="curve" smooth="yes"/>
      <point x="715" y="508"/>
      <point x="649" y="550"/>
      <point x="573" y="550" type="curve" smooth="yes"/>
      <point x="488" y="550"/>
      <point x="432" y="498"/>
      <point x="432" y="429" type="curve" smooth="yes"/>
      <point x="432" y="351"/>
      <point x="500" y="326"/>
      <point x="553" y="326" type="curve" smooth="yes"/>
      <point x="605" y="326"/>
      <point x="646" y="354"/>
      <point x="681" y="389" type="curve"/>
      <point x="665" y="444" type="line"/>
      <point x="636" y="416"/>
      <point x="604" y="390"/>
      <point x="567" y="390" type="curve" smooth="yes"/>
      <point x="543" y="390"/>
      <point x="516" y="401"/>
      <point x="516" y="433" type="curve" smooth="yes"/>
      <point x="516" y="462"/>
      <point x="539" y="483"/>
      <point x="568" y="483" type="curve" smooth="yes"/>
      <point x="595" y="483"/>
      <point x="625" y="465"/>
      <point x="625" y="385" type="curve" smooth="yes"/>
      <point x="625" y="195"/>
      <point x="472" y="57"/>
      <point x="304" y="57" type="curve" smooth="yes"/>
      <point x="239" y="57"/>
      <point x="194" y="76"/>
      <point x="172" y="87" type="curve"/>
      <point x="176" y="81" type="line"/>
      <point x="274" y="142"/>
      <point x="349" y="225"/>
      <point x="349" y="344" type="curve" smooth="yes"/>
      <point x="349" y="461"/>
      <point x="276" y="525"/>
      <point x="176" y="525" type="curve" smooth="yes"/>
      <point x="149" y="525"/>
      <point x="119" y="520"/>
      <point x="89" y="509" type="curve"/>
      <point x="89" y="452" type="line"/>
      <point x="112" y="460"/>
      <point x="136" y="464"/>
      <point x="154" y="464" type="curve" smooth="yes"/>
      <point x="225" y="464"/>
      <point x="259" y="414"/>
      <point x="259" y="334" type="curve" smooth="yes"/>
      <point x="259" y="217"/>
      <point x="182" y="173"/>
      <point x="87" y="124" type="curve"/>
      <point x="60" y="54" type="line"/>
      <point x="105" y="31"/>
      <point x="199" y="-10"/>
    </contour>
  </outline>
</glyph>
<glyph name="taa_chakma" format="2">
  <advance width="1045"/>
  <unicode hex="11116"/>
  <anchor x="956" y="382" name="aaMatra"/>
  <anchor x="513" y="0" name="bottom"/>
  <anchor x="781" y="10" name="bottom_o"/>
  <anchor x="828" y="15" name="bottom_ra"/>
  <anchor x="862" y="25" name="bottomright"/>
  <anchor x="984" y="382" name="eBelow"/>
  <anchor x="986" y="382" name="eiMatra"/>
  <anchor x="524" y="590" name="top"/>
  <anchor x="847" y="516" name="topright"/>
  <anchor x="955" y="134" name="yyaa_post"/>
  <outline>
    <contour>
      <point x="317" y="-10" type="curve" smooth="yes"/>
      <point x="477" y="-10"/>
      <point x="578" y="111"/>
      <point x="578" y="271" type="curve" smooth="yes"/>
      <point x="578" y="431"/>
      <point x="477" y="550"/>
      <point x="317" y="550" type="curve" smooth="yes"/>
      <point x="157" y="550"/>
      <point x="60" y="431"/>
      <point x="60" y="271" type="curve" smooth="yes"/>
      <point x="60" y="111"/>
      <point x="157" y="-10"/>
    </contour>
    <contour>
      <point x="317" y="57" type="curve" smooth="yes"/>
      <point x="211" y="57"/>
      <point x="150" y="151"/>
      <point x="150" y="271" type="curve" smooth="yes"/>
      <point x="150" y="391"/>
      <point x="211" y="483"/>
      <point x="317" y="483" type="curve" smooth="yes"/>
      <point x="423" y="483"/>
      <point x="488" y="391"/>
      <point x="488" y="271" type="curve" smooth="yes"/>
      <point x="488" y="151"/>
      <point x="423" y="57"/>
    </contour>
    <contour>
      <point x="732" y="-10" type="curve" smooth="yes"/>
      <point x="884" y="-10"/>
      <point x="985" y="111"/>
      <point x="985" y="273" type="curve" smooth="yes"/>
      <point x="985" y="431"/>
      <point x="884" y="550"/>
      <point x="735" y="550" type="curve" smooth="yes"/>
      <point x="584" y="550"/>
      <point x="523" y="433"/>
      <point x="501" y="370" type="curve"/>
      <point x="576" y="301" type="line"/>
      <point x="587" y="388"/>
      <point x="640" y="483"/>
      <point x="737" y="483" type="curve" smooth="yes"/>
      <point x="832" y="483"/>
      <point x="895" y="391"/>
      <point x="895" y="271" type="curve" smooth="yes"/>
      <point x="895" y="151"/>
      <point x="830" y="57"/>
      <point x="735" y="57" type="curve" smooth="yes"/>
      <point x="707" y="57"/>
      <point x="683" y="65"/>
      <point x="663" y="76" type="curve"/>
      <point x="612" y="22" type="line"/>
      <point x="638" y="7"/>
      <point x="676" y="-10"/>
    </contour>
  </outline>
</glyph>
<glyph name="thaa_chakma" format="2">
  <advance width="1066"/>
  <unicode hex="11117"/>
  <anchor x="978" y="382" name="aaMatra"/>
  <anchor x="533" y="0" name="bottom"/>
  <anchor x="781" y="10" name="bottom_o"/>
  <anchor x="828" y="15" name="bottom_ra"/>
  <anchor x="882" y="34" name="bottomright"/>
  <anchor x="998" y="382" name="eBelow"/>
  <anchor x="1008" y="382" name="eiMatra"/>
  <anchor x="534" y="590" name="top"/>
  <anchor x="847" y="516" name="topright"/>
  <anchor x="977" y="134" name="yyaa_post"/>
  <outline>
    <contour>
      <point x="745" y="-10" type="curve" smooth="yes"/>
      <point x="905" y="-10"/>
      <point x="1006" y="111"/>
      <point x="1006" y="271" type="curve" smooth="yes"/>
      <point x="1006" y="431"/>
      <point x="905" y="550"/>
      <point x="745" y="550" type="curve" smooth="yes"/>
      <point x="585" y="550"/>
      <point x="488" y="431"/>
      <point x="488" y="271" type="curve" smooth="yes"/>
      <point x="488" y="111"/>
      <point x="585" y="-10"/>
    </contour>
    <contour>
      <point x="317" y="-10" type="curve" smooth="yes"/>
      <point x="477" y="-10"/>
      <point x="578" y="111"/>
      <point x="578" y="271" type="curve" smooth="yes"/>
      <point x="578" y="431"/>
      <point x="477" y="550"/>
      <point x="317" y="550" type="curve" smooth="yes"/>
      <point x="157" y="550"/>
      <point x="60" y="431"/>
      <point x="60" y="271" type="curve" smooth="yes"/>
      <point x="60" y="111"/>
      <point x="157" y="-10"/>
    </contour>
    <contour>
      <point x="317" y="57" type="curve" smooth="yes"/>
      <point x="211" y="57"/>
      <point x="150" y="151"/>
      <point x="150" y="271" type="curve" smooth="yes"/>
      <point x="150" y="391"/>
      <point x="211" y="483"/>
      <point x="317" y="483" type="curve" smooth="yes"/>
      <point x="423" y="483"/>
      <point x="488" y="391"/>
      <point x="488" y="271" type="curve" smooth="yes"/>
      <point x="488" y="151"/>
      <point x="423" y="57"/>
    </contour>
    <contour>
      <point x="745" y="57" type="curve" smooth="yes"/>
      <point x="639" y="57"/>
      <point x="578" y="151"/>
      <point x="578" y="271" type="curve" smooth="yes"/>
      <point x="578" y="391"/>
      <point x="639" y="483"/>
      <point x="745" y="483" type="curve" smooth="yes"/>
      <point x="851" y="483"/>
      <point x="916" y="391"/>
      <point x="916" y="271" type="curve" smooth="yes"/>
      <point x="916" y="151"/>
      <point x="851" y="57"/>
    </contour>
  </outline>
</glyph>
<glyph name="daa_chakma" format="2">
  <advance width="613"/>
  <unicode hex="11118"/>
  <anchor x="524" y="382" name="aaMatra"/>
  <anchor x="289" y="0" name="bottom"/>
  <anchor x="362" y="10" name="bottom_o"/>
  <anchor x="490" y="15" name="bottom_ra"/>
  <anchor x="438" y="42" name="bottomright"/>
  <anchor x="534" y="382" name="eBelow"/>
  <anchor x="524" y="382" name="eiMatra"/>
  <anchor x="299" y="590" name="top"/>
  <anchor x="399" y="518" name="topright"/>
  <anchor x="524" y="134" name="yyaa_post"/>
  <outline>
    <contour>
      <point x="286" y="-10" type="curve" smooth="yes"/>
      <point x="447" y="-10"/>
      <point x="553" y="108"/>
      <point x="553" y="269" type="curve" smooth="yes"/>
      <point x="553" y="432"/>
      <point x="451" y="551"/>
      <point x="290" y="551" type="curve" smooth="yes"/>
      <point x="174" y="551"/>
      <point x="81" y="482"/>
      <point x="50" y="375" type="curve"/>
      <point x="136" y="361" type="line"/>
      <point x="152" y="422"/>
      <point x="203" y="484"/>
      <point x="289" y="484" type="curve" smooth="yes"/>
      <point x="398" y="484"/>
      <point x="463" y="395"/>
      <point x="463" y="270" type="curve" smooth="yes"/>
      <point x="463" y="151"/>
      <point x="396" y="57"/>
      <point x="288" y="57" type="curve" smooth="yes"/>
      <point x="213" y="57"/>
      <point x="161" y="105"/>
      <point x="136" y="178" type="curve"/>
      <point x="50" y="153" type="line"/>
      <point x="85" y="56"/>
      <point x="165" y="-10"/>
    </contour>
  </outline>
</glyph>
<glyph name="dhaa_chakma" format="2">
  <advance width="683"/>
  <unicode hex="11119"/>
  <anchor x="594" y="382" name="aaMatra"/>
  <anchor x="342" y="0" name="bottom"/>
  <anchor x="482" y="20" name="bottom_o"/>
  <anchor x="557" y="15" name="bottom_ra"/>
  <anchor x="495" y="29" name="bottomright"/>
  <anchor x="497" y="27" name="bottomright_u"/>
  <anchor x="604" y="382" name="eBelow"/>
  <anchor x="621" y="382" name="eiMatra"/>
  <anchor x="341" y="590" name="top"/>
  <anchor x="461" y="520" name="topright"/>
  <anchor x="603" y="134" name="yyaa_post"/>
  <outline>
    <contour>
      <point x="193" y="-10" type="curve"/>
      <point x="231" y="36"/>
      <point x="272" y="77"/>
      <point x="342" y="77" type="curve" smooth="yes"/>
      <point x="412" y="77"/>
      <point x="459" y="36"/>
      <point x="497" y="-10" type="curve"/>
      <point x="575" y="36"/>
      <point x="623" y="138"/>
      <point x="623" y="260" type="curve" smooth="yes"/>
      <point x="623" y="440"/>
      <point x="506" y="550"/>
      <point x="342" y="550" type="curve" smooth="yes"/>
      <point x="178" y="550"/>
      <point x="60" y="440"/>
      <point x="60" y="260" type="curve" smooth="yes"/>
      <point x="60" y="140"/>
      <point x="111" y="35"/>
    </contour>
    <contour>
      <point x="196" y="70" type="line"/>
      <point x="170" y="110"/>
      <point x="150" y="187"/>
      <point x="150" y="258" type="curve" smooth="yes"/>
      <point x="150" y="400"/>
      <point x="227" y="483"/>
      <point x="342" y="483" type="curve" smooth="yes"/>
      <point x="457" y="483"/>
      <point x="533" y="400"/>
      <point x="533" y="258" type="curve" smooth="yes"/>
      <point x="533" y="189"/>
      <point x="513" y="109"/>
      <point x="490" y="70" type="curve"/>
      <point x="507" y="76" type="line"/>
      <point x="478" y="102"/>
      <point x="422" y="144"/>
      <point x="342" y="144" type="curve" smooth="yes"/>
      <point x="262" y="144"/>
      <point x="205" y="102"/>
      <point x="179" y="76" type="curve"/>
    </contour>
  </outline>
</glyph>
<glyph name="naa_chakma" format="2">
  <advance width="1001"/>
  <unicode hex="1111A"/>
  <guideline x="505" y="232" angle="180"/>
  <anchor x="892" y="382" name="aaMatra"/>
  <anchor x="500" y="0" name="bottom"/>
  <anchor x="772" y="50" name="bottom_o"/>
  <anchor x="819" y="15" name="bottom_ra"/>
  <anchor x="745" y="46" name="bottomright"/>
  <anchor x="745" y="46" name="bottomright_u"/>
  <anchor x="942" y="382" name="eBelow"/>
  <anchor x="892" y="382" name="eiMatra"/>
  <anchor x="500" y="590" name="top"/>
  <anchor x="796" y="522" name="topright"/>
  <anchor x="902" y="134" name="yyaa_post"/>
  <outline>
    <contour>
      <point x="205" y="-10" type="curve"/>
      <point x="253" y="46" type="line"/>
      <point x="190" y="98"/>
      <point x="150" y="181"/>
      <point x="150" y="273" type="curve" smooth="yes"/>
      <point x="150" y="393"/>
      <point x="217" y="483"/>
      <point x="300" y="483" type="curve" smooth="yes"/>
      <point x="388" y="483"/>
      <point x="467" y="383"/>
      <point x="467" y="243" type="curve" smooth="yes"/>
      <point x="467" y="167"/>
      <point x="445" y="107"/>
      <point x="428" y="98" type="curve"/>
      <point x="400" y="98"/>
      <point x="355" y="148"/>
      <point x="355" y="214" type="curve" smooth="yes"/>
      <point x="355" y="292"/>
      <point x="418" y="351"/>
      <point x="500" y="351" type="curve" smooth="yes"/>
      <point x="582" y="351"/>
      <point x="648" y="292"/>
      <point x="648" y="214" type="curve" smooth="yes"/>
      <point x="648" y="151"/>
      <point x="605" y="97"/>
      <point x="579" y="97" type="curve"/>
      <point x="563" y="107"/>
      <point x="535" y="152"/>
      <point x="535" y="243" type="curve" smooth="yes"/>
      <point x="535" y="383"/>
      <point x="620" y="483"/>
      <point x="708" y="483" type="curve" smooth="yes"/>
      <point x="791" y="483"/>
      <point x="851" y="393"/>
      <point x="851" y="273" type="curve" smooth="yes"/>
      <point x="851" y="181"/>
      <point x="808" y="98"/>
      <point x="745" y="46" type="curve"/>
      <point x="793" y="-10" type="line"/>
      <point x="882" y="62"/>
      <point x="941" y="169"/>
      <point x="941" y="296" type="curve" smooth="yes"/>
      <point x="941" y="435"/>
      <point x="849" y="550"/>
      <point x="709" y="550" type="curve" smooth="yes"/>
      <point x="569" y="550"/>
      <point x="469" y="434"/>
      <point x="469" y="232" type="curve" smooth="yes"/>
      <point x="469" y="100"/>
      <point x="504" y="30"/>
      <point x="574" y="30" type="curve" smooth="yes"/>
      <point x="648" y="30"/>
      <point x="733" y="111"/>
      <point x="733" y="214" type="curve" smooth="yes"/>
      <point x="733" y="336"/>
      <point x="628" y="418"/>
      <point x="501" y="418" type="curve" smooth="yes"/>
      <point x="372" y="418"/>
      <point x="270" y="335"/>
      <point x="270" y="211" type="curve" smooth="yes"/>
      <point x="270" y="108"/>
      <point x="346" y="31"/>
      <point x="426" y="31" type="curve" smooth="yes"/>
      <point x="496" y="31"/>
      <point x="533" y="89"/>
      <point x="533" y="232" type="curve" smooth="yes"/>
      <point x="533" y="437"/>
      <point x="437" y="550"/>
      <point x="297" y="550" type="curve" smooth="yes"/>
      <point x="157" y="550"/>
      <point x="60" y="445"/>
      <point x="60" y="296" type="curve" smooth="yes"/>
      <point x="60" y="169"/>
      <point x="116" y="62"/>
    </contour>
  </outline>
</glyph>
<glyph name="paa_chakma" format="2">
  <advance width="703"/>
  <unicode hex="1111B"/>
  <anchor x="614" y="382" name="aaMatra"/>
  <anchor x="352" y="0" name="bottom"/>
  <anchor x="464" y="20" name="bottom_o"/>
  <anchor x="565" y="15" name="bottom_ra"/>
  <anchor x="525" y="48" name="bottomright"/>
  <anchor x="643" y="382" name="eBelow"/>
  <anchor x="614" y="382" name="eiMatra"/>
  <anchor x="351" y="590" name="top"/>
  <anchor x="511" y="508" name="topright"/>
  <anchor x="614" y="134" name="yyaa_post"/>
  <outline>
    <contour>
      <point x="352" y="-10" type="curve" smooth="yes"/>
      <point x="524" y="-10"/>
      <point x="643" y="108"/>
      <point x="643" y="278" type="curve" smooth="yes"/>
      <point x="643" y="385"/>
      <point x="591" y="491"/>
      <point x="507" y="546" type="curve"/>
      <point x="452" y="503" type="line"/>
      <point x="514" y="456"/>
      <point x="553" y="370"/>
      <point x="553" y="280" type="curve" smooth="yes"/>
      <point x="553" y="148"/>
      <point x="477" y="57"/>
      <point x="352" y="57" type="curve" smooth="yes"/>
      <point x="227" y="57"/>
      <point x="150" y="147"/>
      <point x="150" y="280" type="curve" smooth="yes"/>
      <point x="150" y="370"/>
      <point x="186" y="456"/>
      <point x="243" y="503" type="curve"/>
      <point x="188" y="546" type="line"/>
      <point x="109" y="490"/>
      <point x="60" y="388"/>
      <point x="60" y="278" type="curve" smooth="yes"/>
      <point x="60" y="109"/>
      <point x="178" y="-10"/>
    </contour>
  </outline>
</glyph>
<glyph name="phaa_chakma" format="2">
  <advance width="714"/>
  <unicode hex="1111C"/>
  <anchor x="624" y="382" name="aaMatra"/>
  <anchor x="358" y="0" name="bottom"/>
  <anchor x="454" y="20" name="bottom_o"/>
  <anchor x="576" y="15" name="bottom_ra"/>
  <anchor x="515" y="53" name="bottomright"/>
  <anchor x="648" y="382" name="eBelow"/>
  <anchor x="624" y="382" name="eiMatra"/>
  <anchor x="357" y="590" name="top"/>
  <anchor x="541" y="515" name="topright"/>
  <anchor x="624" y="134" name="yyaa_post"/>
  <outline>
    <contour>
      <point x="358" y="-10" type="curve" smooth="yes"/>
      <point x="534" y="-10"/>
      <point x="654" y="117"/>
      <point x="654" y="305" type="curve" smooth="yes"/>
      <point x="654" y="447"/>
      <point x="593" y="550"/>
      <point x="476" y="550" type="curve" smooth="yes"/>
      <point x="395" y="550"/>
      <point x="338" y="500"/>
      <point x="338" y="427" type="curve" smooth="yes"/>
      <point x="338" y="354"/>
      <point x="397" y="313"/>
      <point x="467" y="313" type="curve" smooth="yes"/>
      <point x="532" y="313"/>
      <point x="574" y="350"/>
      <point x="606" y="390" type="curve"/>
      <point x="572" y="437" type="line"/>
      <point x="548" y="406"/>
      <point x="517" y="380"/>
      <point x="479" y="380" type="curve" smooth="yes"/>
      <point x="442" y="380"/>
      <point x="422" y="405"/>
      <point x="422" y="432" type="curve" smooth="yes"/>
      <point x="422" y="460"/>
      <point x="445" y="483"/>
      <point x="478" y="483" type="curve" smooth="yes"/>
      <point x="537" y="483"/>
      <point x="564" y="415"/>
      <point x="564" y="315" type="curve" smooth="yes"/>
      <point x="564" y="152"/>
      <point x="481" y="57"/>
      <point x="358" y="57" type="curve" smooth="yes"/>
      <point x="239" y="57"/>
      <point x="150" y="147"/>
      <point x="150" y="280" type="curve" smooth="yes"/>
      <point x="150" y="370"/>
      <point x="186" y="456"/>
      <point x="243" y="503" type="curve"/>
      <point x="188" y="546" type="line"/>
      <point x="109" y="490"/>
      <point x="60" y="388"/>
      <point x="60" y="278" type="curve" smooth="yes"/>
      <point x="60" y="109"/>
      <point x="188" y="-10"/>
    </contour>
  </outline>
</glyph>
<glyph name="bhaa_chakma" format="2">
  <advance width="956"/>
  <unicode hex="1111E"/>
  <anchor x="896" y="382" name="aaMatra"/>
  <anchor x="474" y="0" name="bottom"/>
  <anchor x="744" y="20" name="bottom_o"/>
  <anchor x="750" y="15" name="bottom_ra"/>
  <anchor x="800" y="51" name="bottomright"/>
  <anchor x="861" y="402" name="eBelow"/>
  <anchor x="839" y="402" name="eiMatra"/>
  <anchor x="498" y="590" name="top"/>
  <anchor x="808" y="529" name="topright"/>
  <anchor x="881" y="134" name="yyaa_post"/>
  <outline>
    <contour>
      <point x="286" y="-10" type="curve" smooth="yes"/>
      <point x="447" y="-10"/>
      <point x="553" y="108"/>
      <point x="553" y="269" type="curve" smooth="yes"/>
      <point x="553" y="432"/>
      <point x="451" y="551"/>
      <point x="290" y="551" type="curve" smooth="yes"/>
      <point x="174" y="551"/>
      <point x="81" y="482"/>
      <point x="50" y="375" type="curve"/>
      <point x="136" y="361" type="line"/>
      <point x="152" y="422"/>
      <point x="203" y="484"/>
      <point x="289" y="484" type="curve" smooth="yes"/>
      <point x="398" y="484"/>
      <point x="463" y="395"/>
      <point x="463" y="270" type="curve" smooth="yes"/>
      <point x="463" y="151"/>
      <point x="396" y="57"/>
      <point x="288" y="57" type="curve" smooth="yes"/>
      <point x="213" y="57"/>
      <point x="161" y="105"/>
      <point x="136" y="178" type="curve"/>
      <point x="50" y="153" type="line"/>
      <point x="85" y="56"/>
      <point x="165" y="-10"/>
    </contour>
    <component base="ra.legs" xOffset="408"/>
  </outline>
</glyph>
<glyph name="maa_chakma" format="2">
  <advance width="809"/>
  <unicode hex="1111F"/>
  <anchor x="721" y="382" name="aaMatra"/>
  <anchor x="404" y="0" name="bottom"/>
  <anchor x="577" y="20" name="bottom_o"/>
  <anchor x="625" y="-10" name="bottom_ra"/>
  <anchor x="633" y="27" name="bottomright"/>
  <anchor x="735" y="382" name="eBelow"/>
  <anchor x="721" y="382" name="eiMatra"/>
  <anchor x="403" y="590" name="top"/>
  <anchor x="593" y="500" name="topright"/>
  <anchor x="721" y="134" name="yyaa_post"/>
  <outline>
    <contour>
      <point x="274" y="-10" type="curve" smooth="yes"/>
      <point x="407" y="-10"/>
      <point x="537" y="116"/>
      <point x="537" y="236" type="curve" smooth="yes"/>
      <point x="537" y="312"/>
      <point x="479" y="369"/>
      <point x="404" y="369" type="curve" smooth="yes"/>
      <point x="329" y="369"/>
      <point x="272" y="313"/>
      <point x="272" y="232" type="curve" smooth="yes"/>
      <point x="272" y="108"/>
      <point x="391" y="-10"/>
      <point x="521" y="-10" type="curve" smooth="yes"/>
      <point x="645" y="-10"/>
      <point x="749" y="96"/>
      <point x="749" y="241" type="curve" smooth="yes"/>
      <point x="749" y="367"/>
      <point x="677" y="485"/>
      <point x="580" y="545" type="curve"/>
      <point x="532" y="489" type="line"/>
      <point x="596" y="444"/>
      <point x="659" y="359"/>
      <point x="659" y="251" type="curve" smooth="yes"/>
      <point x="659" y="143"/>
      <point x="601" y="57"/>
      <point x="516" y="57" type="curve" smooth="yes"/>
      <point x="431" y="57"/>
      <point x="362" y="151"/>
      <point x="362" y="233" type="curve" smooth="yes"/>
      <point x="362" y="278"/>
      <point x="384" y="302"/>
      <point x="404" y="302" type="curve" smooth="yes"/>
      <point x="424" y="302"/>
      <point x="447" y="278"/>
      <point x="447" y="233" type="curve" smooth="yes"/>
      <point x="447" y="151"/>
      <point x="380" y="57"/>
      <point x="293" y="57" type="curve" smooth="yes"/>
      <point x="208" y="57"/>
      <point x="150" y="143"/>
      <point x="150" y="251" type="curve" smooth="yes"/>
      <point x="150" y="359"/>
      <point x="213" y="444"/>
      <point x="277" y="489" type="curve"/>
      <point x="229" y="545" type="line"/>
      <point x="132" y="485"/>
      <point x="60" y="367"/>
      <point x="60" y="241" type="curve" smooth="yes"/>
      <point x="60" y="96"/>
      <point x="150" y="-10"/>
    </contour>
  </outline>
</glyph>
<glyph name="yyaa_chakma" format="2">
  <advance width="807"/>
  <unicode hex="11120"/>
  <anchor x="719" y="382" name="aaMatra"/>
  <anchor x="404" y="0" name="bottom"/>
  <anchor x="577" y="20" name="bottom_o"/>
  <anchor x="625" y="-10" name="bottom_ra"/>
  <anchor x="646" y="31" name="bottomright"/>
  <anchor x="727" y="382" name="eBelow"/>
  <anchor x="726" y="382" name="eiMatra"/>
  <anchor x="403" y="590" name="top"/>
  <anchor x="581" y="500" name="topright"/>
  <anchor x="723" y="134" name="yyaa_post"/>
  <outline>
    <contour>
      <point x="268" y="-10" type="curve" smooth="yes"/>
      <point x="358" y="-10"/>
      <point x="419" y="53"/>
      <point x="439" y="93" type="curve"/>
      <point x="369" y="93" type="line"/>
      <point x="389" y="53"/>
      <point x="439" y="-10"/>
      <point x="528" y="-10" type="curve" smooth="yes"/>
      <point x="644" y="-10"/>
      <point x="747" y="99"/>
      <point x="747" y="245" type="curve" smooth="yes"/>
      <point x="747" y="370"/>
      <point x="665" y="485"/>
      <point x="568" y="545" type="curve"/>
      <point x="520" y="489" type="line"/>
      <point x="587" y="443"/>
      <point x="657" y="351"/>
      <point x="657" y="245" type="curve" smooth="yes"/>
      <point x="657" y="157"/>
      <point x="610" y="57"/>
      <point x="526" y="57" type="curve" smooth="yes"/>
      <point x="463" y="57"/>
      <point x="449" y="111"/>
      <point x="449" y="170" type="curve" smooth="yes"/>
      <point x="449" y="214" type="line"/>
      <point x="359" y="214" type="line"/>
      <point x="359" y="170" type="line" smooth="yes"/>
      <point x="359" y="111"/>
      <point x="335" y="57"/>
      <point x="274" y="57" type="curve" smooth="yes"/>
      <point x="192" y="57"/>
      <point x="150" y="153"/>
      <point x="150" y="245" type="curve" smooth="yes"/>
      <point x="150" y="359"/>
      <point x="223" y="447"/>
      <point x="287" y="489" type="curve"/>
      <point x="239" y="545" type="line"/>
      <point x="130" y="475"/>
      <point x="60" y="370"/>
      <point x="60" y="245" type="curve" smooth="yes"/>
      <point x="60" y="99"/>
      <point x="152" y="-10"/>
    </contour>
  </outline>
</glyph>
<glyph name="yaa_chakma" format="2">
  <advance width="793"/>
  <unicode hex="11121"/>
  <guideline x="561" y="10" angle="122.7352"/>
  <anchor x="712" y="382" name="aaMatra"/>
  <anchor x="418" y="0" name="bottom"/>
  <anchor x="567" y="20" name="bottom_o"/>
  <anchor x="620" y="-6" name="bottom_ra"/>
  <anchor x="601" y="0" name="bottomright"/>
  <anchor x="712" y="382" name="eBelow"/>
  <anchor x="742" y="382" name="eiMatra"/>
  <anchor x="397" y="590" name="top"/>
  <anchor x="597" y="507" name="topright"/>
  <anchor x="705" y="134" name="yyaa_post"/>
  <outline>
    <contour>
      <point x="319" y="-10" type="curve" smooth="yes"/>
      <point x="437" y="-10"/>
      <point x="499" y="64"/>
      <point x="499" y="138" type="curve" smooth="yes"/>
      <point x="499" y="233"/>
      <point x="398" y="287"/>
      <point x="332" y="332" type="curve" smooth="yes"/>
      <point x="272" y="373"/>
      <point x="257" y="397"/>
      <point x="257" y="420" type="curve" smooth="yes"/>
      <point x="257" y="452"/>
      <point x="288" y="483"/>
      <point x="357" y="483" type="curve" smooth="yes"/>
      <point x="436" y="483"/>
      <point x="478" y="443"/>
      <point x="498" y="421" type="curve"/>
      <point x="568" y="440" type="line"/>
      <point x="526" y="514"/>
      <point x="457" y="550"/>
      <point x="362" y="550" type="curve" smooth="yes"/>
      <point x="243" y="550"/>
      <point x="167" y="495"/>
      <point x="167" y="419" type="curve" smooth="yes"/>
      <point x="167" y="353"/>
      <point x="223" y="319"/>
      <point x="294" y="269" type="curve" smooth="yes"/>
      <point x="363" y="221"/>
      <point x="409" y="186"/>
      <point x="409" y="136" type="curve" smooth="yes"/>
      <point x="409" y="91"/>
      <point x="373" y="57"/>
      <point x="306" y="57" type="curve" smooth="yes"/>
      <point x="210" y="57"/>
      <point x="162" y="128"/>
      <point x="146" y="158" type="curve"/>
      <point x="64" y="158" type="line"/>
      <point x="100" y="64"/>
      <point x="195" y="-10"/>
    </contour>
    <contour>
      <point x="579" y="-18" type="line"/>
      <point x="652" y="33"/>
      <point x="733" y="139"/>
      <point x="733" y="228" type="curve" smooth="yes"/>
      <point x="733" y="316"/>
      <point x="653" y="355"/>
      <point x="573" y="355" type="curve" smooth="yes"/>
      <point x="502" y="355"/>
      <point x="432" y="325"/>
      <point x="379" y="286" type="curve"/>
      <point x="433" y="220" type="line"/>
      <point x="464" y="264"/>
      <point x="514" y="288"/>
      <point x="562" y="288" type="curve" smooth="yes"/>
      <point x="604" y="288"/>
      <point x="645" y="270"/>
      <point x="645" y="210" type="curve" smooth="yes"/>
      <point x="645" y="154"/>
      <point x="608" y="83"/>
      <point x="543" y="38" type="curve"/>
    </contour>
  </outline>
</glyph>
<glyph name="laa_chakma" format="2">
  <advance width="1030"/>
  <unicode hex="11123"/>
  <anchor x="942" y="382" name="aaMatra"/>
  <anchor x="526" y="0" name="bottom"/>
  <anchor x="744" y="10" name="bottom_o"/>
  <anchor x="816" y="15" name="bottom_ra"/>
  <anchor x="841" y="26" name="bottomright"/>
  <anchor x="962" y="382" name="eBelow"/>
  <anchor x="942" y="382" name="eiMatra"/>
  <anchor x="515" y="590" name="top"/>
  <anchor x="822" y="508" name="topright"/>
  <anchor x="942" y="134" name="yyaa_post"/>
  <outline>
    <contour>
      <point x="304" y="-10" type="curve"/>
      <point x="336" y="60" type="line"/>
      <point x="245" y="85"/>
      <point x="150" y="140"/>
      <point x="150" y="280" type="curve" smooth="yes"/>
      <point x="150" y="390"/>
      <point x="214" y="483"/>
      <point x="303" y="483" type="curve" smooth="yes"/>
      <point x="408" y="483"/>
      <point x="440" y="356"/>
      <point x="476" y="246" type="curve" smooth="yes"/>
      <point x="524" y="98"/>
      <point x="593" y="-10"/>
      <point x="731" y="-10" type="curve" smooth="yes"/>
      <point x="879" y="-10"/>
      <point x="970" y="119"/>
      <point x="970" y="272" type="curve" smooth="yes"/>
      <point x="970" y="432"/>
      <point x="859" y="527"/>
      <point x="730" y="550" type="curve"/>
      <point x="698" y="479" type="line"/>
      <point x="789" y="459"/>
      <point x="880" y="388"/>
      <point x="880" y="259" type="curve" smooth="yes"/>
      <point x="880" y="169"/>
      <point x="836" y="57"/>
      <point x="732" y="57" type="curve" smooth="yes"/>
      <point x="637" y="57"/>
      <point x="598" y="150"/>
      <point x="554" y="300" type="curve" smooth="yes"/>
      <point x="526" y="394"/>
      <point x="479" y="550"/>
      <point x="307" y="550" type="curve" smooth="yes"/>
      <point x="150" y="550"/>
      <point x="60" y="425"/>
      <point x="60" y="282" type="curve" smooth="yes"/>
      <point x="60" y="121"/>
      <point x="192" y="17"/>
    </contour>
  </outline>
</glyph>
<glyph name="waa_chakma" format="2">
  <advance width="638"/>
  <unicode hex="11124"/>
  <anchor x="551" y="382" name="aaMatra"/>
  <anchor x="317" y="0" name="bottom"/>
  <anchor x="408" y="20" name="bottom_o"/>
  <anchor x="516" y="15" name="bottom_ra"/>
  <anchor x="463" y="30" name="bottomright"/>
  <anchor x="571" y="382" name="eBelow"/>
  <anchor x="571" y="382" name="eiMatra"/>
  <anchor x="317" y="590" name="top"/>
  <anchor x="434" y="521" name="topright"/>
  <anchor x="549" y="134" name="yyaa_post"/>
  <outline>
    <contour>
      <point x="317" y="-10" type="curve" smooth="yes"/>
      <point x="477" y="-10"/>
      <point x="578" y="111"/>
      <point x="578" y="271" type="curve" smooth="yes"/>
      <point x="578" y="431"/>
      <point x="477" y="550"/>
      <point x="317" y="550" type="curve" smooth="yes"/>
      <point x="157" y="550"/>
      <point x="60" y="431"/>
      <point x="60" y="271" type="curve" smooth="yes"/>
      <point x="60" y="111"/>
      <point x="157" y="-10"/>
    </contour>
    <contour>
      <point x="317" y="57" type="curve" smooth="yes"/>
      <point x="211" y="57"/>
      <point x="150" y="151"/>
      <point x="150" y="271" type="curve" smooth="yes"/>
      <point x="150" y="391"/>
      <point x="211" y="483"/>
      <point x="317" y="483" type="curve" smooth="yes"/>
      <point x="423" y="483"/>
      <point x="488" y="391"/>
      <point x="488" y="271" type="curve" smooth="yes"/>
      <point x="488" y="151"/>
      <point x="423" y="57"/>
    </contour>
  </outline>
</glyph>
<glyph name="saa_chakma" format="2">
  <advance width="1041"/>
  <unicode hex="11125"/>
  <anchor x="952" y="382" name="aaMatra"/>
  <anchor x="518" y="0" name="bottom"/>
  <anchor x="803" y="20" name="bottom_o"/>
  <anchor x="798" y="15" name="bottom_ra"/>
  <anchor x="836" y="22" name="bottomright"/>
  <anchor x="976" y="382" name="eBelow"/>
  <anchor x="972" y="382" name="eiMatra"/>
  <anchor x="516" y="590" name="top"/>
  <anchor x="840" y="519" name="topright"/>
  <anchor x="944" y="134" name="yyaa_post"/>
  <outline>
    <contour>
      <point x="720" y="-10" type="curve" smooth="yes"/>
      <point x="880" y="-10"/>
      <point x="981" y="111"/>
      <point x="981" y="271" type="curve" smooth="yes"/>
      <point x="981" y="431"/>
      <point x="880" y="550"/>
      <point x="720" y="550" type="curve" smooth="yes"/>
      <point x="680" y="550"/>
      <point x="644" y="543"/>
      <point x="612" y="529" type="curve"/>
      <point x="659" y="471" type="line"/>
      <point x="677" y="479"/>
      <point x="697" y="483"/>
      <point x="720" y="483" type="curve" smooth="yes"/>
      <point x="826" y="483"/>
      <point x="891" y="391"/>
      <point x="891" y="271" type="curve" smooth="yes"/>
      <point x="891" y="151"/>
      <point x="826" y="57"/>
      <point x="720" y="57" type="curve" smooth="yes"/>
      <point x="608" y="57"/>
      <point x="545" y="168"/>
      <point x="553" y="272" type="curve"/>
      <point x="464" y="240" type="line"/>
      <point x="476" y="96"/>
      <point x="571" y="-10"/>
    </contour>
    <contour>
      <point x="286" y="-10" type="curve" smooth="yes"/>
      <point x="447" y="-10"/>
      <point x="553" y="108"/>
      <point x="553" y="269" type="curve" smooth="yes"/>
      <point x="553" y="432"/>
      <point x="451" y="551"/>
      <point x="290" y="551" type="curve" smooth="yes"/>
      <point x="174" y="551"/>
      <point x="81" y="482"/>
      <point x="50" y="375" type="curve"/>
      <point x="136" y="361" type="line"/>
      <point x="152" y="422"/>
      <point x="203" y="484"/>
      <point x="289" y="484" type="curve" smooth="yes"/>
      <point x="398" y="484"/>
      <point x="463" y="395"/>
      <point x="463" y="270" type="curve" smooth="yes"/>
      <point x="463" y="151"/>
      <point x="396" y="57"/>
      <point x="288" y="57" type="curve" smooth="yes"/>
      <point x="213" y="57"/>
      <point x="161" y="105"/>
      <point x="136" y="178" type="curve"/>
      <point x="50" y="153" type="line"/>
      <point x="85" y="56"/>
      <point x="165" y="-10"/>
    </contour>
  </outline>
</glyph>
<glyph name="haa_chakma" format="2">
  <advance width="1026"/>
  <unicode hex="11126"/>
  <guideline x="542" y="230" angle="242.6761"/>
  <anchor x="933" y="382" name="aaMatra"/>
  <anchor x="513" y="0" name="bottom"/>
  <anchor x="691" y="57" name="bottom_o"/>
  <anchor x="782" y="15" name="bottom_ra"/>
  <anchor x="776" y="22" name="bottomright"/>
  <anchor x="955" y="382" name="eBelow"/>
  <anchor x="932" y="382" name="eiMatra"/>
  <anchor x="512" y="590" name="top"/>
  <anchor x="834" y="517" name="topright"/>
  <anchor x="913" y="134" name="yyaa_post"/>
  <outline>
    <contour>
      <point x="272" y="-10" type="curve" smooth="yes"/>
      <point x="409" y="-10"/>
      <point x="470" y="91"/>
      <point x="526" y="200" type="curve" smooth="yes"/>
      <point x="557" y="260" type="line" smooth="yes"/>
      <point x="619" y="379"/>
      <point x="667" y="483"/>
      <point x="754" y="483" type="curve" smooth="yes"/>
      <point x="833" y="483"/>
      <point x="876" y="404"/>
      <point x="876" y="308" type="curve" smooth="yes"/>
      <point x="876" y="150"/>
      <point x="764" y="82"/>
      <point x="679" y="56" type="curve"/>
      <point x="696" y="-10" type="line"/>
      <point x="828" y="16"/>
      <point x="966" y="125"/>
      <point x="966" y="313" type="curve" smooth="yes"/>
      <point x="966" y="451"/>
      <point x="880" y="550"/>
      <point x="751" y="550" type="curve" smooth="yes"/>
      <point x="613" y="550"/>
      <point x="545" y="433"/>
      <point x="480" y="304" type="curve" smooth="yes"/>
      <point x="448" y="240" type="line" smooth="yes"/>
      <point x="401" y="146"/>
      <point x="367" y="57"/>
      <point x="277" y="57" type="curve" smooth="yes"/>
      <point x="191" y="57"/>
      <point x="150" y="143"/>
      <point x="150" y="237" type="curve" smooth="yes"/>
      <point x="150" y="383"/>
      <point x="262" y="456"/>
      <point x="347" y="480" type="curve"/>
      <point x="330" y="550" type="line"/>
      <point x="194" y="527"/>
      <point x="60" y="417"/>
      <point x="60" y="233" type="curve" smooth="yes"/>
      <point x="60" y="103"/>
      <point x="135" y="-10"/>
    </contour>
  </outline>
</glyph>
<glyph name="aMatra_chakma" format="2">
  <unicode hex="11127"/>
  <anchor x="-289" y="638" name="_topright"/>
  <outline>
    <contour>
      <point x="-319" y="653" type="line"/>
      <point x="-251" y="621" type="line"/>
      <point x="-101" y="978" type="line"/>
      <point x="-169" y="1010" type="line"/>
    </contour>
  </outline>
</glyph>
<glyph name="iMatra_chakma" format="2">
  <unicode hex="11128"/>
  <anchor x="-325" y="700" name="_topright"/>
  <outline>
    <contour>
      <point x="-325" y="700" type="curve" smooth="yes"/>
      <point x="-228" y="700"/>
      <point x="-148" y="776"/>
      <point x="-148" y="870" type="curve" smooth="yes"/>
      <point x="-148" y="965"/>
      <point x="-228" y="1041"/>
      <point x="-325" y="1041" type="curve" smooth="yes"/>
      <point x="-422" y="1041"/>
      <point x="-502" y="965"/>
      <point x="-502" y="870" type="curve" smooth="yes"/>
      <point x="-502" y="776"/>
      <point x="-422" y="700"/>
    </contour>
    <contour>
      <point x="-325" y="767" type="curve" smooth="yes"/>
      <point x="-386" y="767"/>
      <point x="-435" y="812"/>
      <point x="-435" y="870" type="curve" smooth="yes"/>
      <point x="-435" y="929"/>
      <point x="-386" y="974"/>
      <point x="-325" y="974" type="curve" smooth="yes"/>
      <point x="-264" y="974"/>
      <point x="-215" y="929"/>
      <point x="-215" y="870" type="curve" smooth="yes"/>
      <point x="-215" y="812"/>
      <point x="-264" y="767"/>
    </contour>
  </outline>
</glyph>
<glyph name="iiMatra_chakma" format="2">
  <unicode hex="11129"/>
  <anchor x="-325" y="700" name="_topright"/>
  <outline>
    <contour>
      <point x="-325" y="700" type="curve" smooth="yes"/>
      <point x="-228" y="700"/>
      <point x="-148" y="776"/>
      <point x="-148" y="870" type="curve" smooth="yes"/>
      <point x="-148" y="965"/>
      <point x="-228" y="1041"/>
      <point x="-325" y="1041" type="curve" smooth="yes"/>
      <point x="-422" y="1041"/>
      <point x="-502" y="965"/>
      <point x="-502" y="870" type="curve" smooth="yes"/>
      <point x="-502" y="776"/>
      <point x="-422" y="700"/>
    </contour>
    <contour>
      <point x="-325" y="767" type="curve" smooth="yes"/>
      <point x="-386" y="767"/>
      <point x="-435" y="812"/>
      <point x="-435" y="870" type="curve" smooth="yes"/>
      <point x="-435" y="929"/>
      <point x="-386" y="974"/>
      <point x="-325" y="974" type="curve" smooth="yes"/>
      <point x="-264" y="974"/>
      <point x="-215" y="929"/>
      <point x="-215" y="870" type="curve" smooth="yes"/>
      <point x="-215" y="812"/>
      <point x="-264" y="767"/>
    </contour>
    <contour>
      <point x="-326" y="815" type="curve" smooth="yes"/>
      <point x="-296" y="815"/>
      <point x="-271" y="840"/>
      <point x="-271" y="871" type="curve" smooth="yes"/>
      <point x="-271" y="902"/>
      <point x="-296" y="927"/>
      <point x="-326" y="927" type="curve" smooth="yes"/>
      <point x="-356" y="927"/>
      <point x="-381" y="902"/>
      <point x="-381" y="871" type="curve" smooth="yes"/>
      <point x="-381" y="840"/>
      <point x="-356" y="815"/>
    </contour>
  </outline>
</glyph>
<glyph name="uuMatra_chakma" format="2">
  <unicode hex="1112B"/>
  <anchor x="-208" y="-17" name="_bottomright"/>
  <outline>
    <contour>
      <point x="-286" y="-342" type="line"/>
      <point x="-139" y="-342" type="line"/>
      <point x="-139" y="-265" type="line"/>
      <point x="-208" y="-265" type="line"/>
      <point x="-208" y="-17" type="line"/>
      <point x="-286" y="-17" type="line"/>
    </contour>
    <contour>
      <point x="-425" y="-342" type="line"/>
      <point x="-347" y="-342" type="line"/>
      <point x="-347" y="-17" type="line"/>
      <point x="-425" y="-17" type="line"/>
    </contour>
  </outline>
</glyph>
<glyph name="eMatra_chakma" format="2">
  <advance width="379"/>
  <unicode hex="1112C"/>
  <outline>
    <contour>
      <point x="243" y="-10" type="curve" smooth="yes"/>
      <point x="325" y="-10"/>
      <point x="369" y="47"/>
      <point x="369" y="107" type="curve" smooth="yes"/>
      <point x="369" y="167"/>
      <point x="324" y="205"/>
      <point x="268" y="205" type="curve" smooth="yes"/>
      <point x="204" y="205"/>
      <point x="156" y="154"/>
      <point x="151" y="89" type="curve"/>
      <point x="189" y="70" type="line"/>
      <point x="203" y="117"/>
      <point x="228" y="144"/>
      <point x="260" y="144" type="curve" smooth="yes"/>
      <point x="283" y="144"/>
      <point x="303" y="130"/>
      <point x="303" y="105" type="curve" smooth="yes"/>
      <point x="303" y="75"/>
      <point x="275" y="57"/>
      <point x="246" y="57" type="curve" smooth="yes"/>
      <point x="188" y="57"/>
      <point x="150" y="130"/>
      <point x="150" y="249" type="curve" smooth="yes"/>
      <point x="150" y="373"/>
      <point x="190" y="463"/>
      <point x="253" y="522" type="curve"/>
      <point x="218" y="582" type="line"/>
      <point x="134" y="521"/>
      <point x="60" y="406"/>
      <point x="60" y="246" type="curve" smooth="yes"/>
      <point x="60" y="86"/>
      <point x="136" y="-10"/>
    </contour>
  </outline>
</glyph>
<glyph name="oiMatra_chakma" format="2">
  <unicode hex="11130"/>
  <anchor x="-231" y="615" name="_topright"/>
  <outline>
    <contour>
      <point x="-272" y="591" type="line"/>
      <point x="-172" y="810" type="line"/>
      <point x="-172" y="880" type="line"/>
      <point x="-712" y="880" type="line"/>
      <point x="-712" y="810" type="line"/>
      <point x="-253" y="810" type="line"/>
      <point x="-334" y="633" type="line"/>
    </contour>
    <contour>
      <point x="-150" y="548" type="line"/>
      <point x="0" y="877" type="line"/>
      <point x="-81" y="877" type="line"/>
      <point x="-211" y="591" type="line"/>
    </contour>
  </outline>
</glyph>
<glyph name="oMark_chakma" format="2">
  <unicode hex="11131"/>
  <anchor x="-260" y="31" name="_bottom_o"/>
  <outline>
    <contour>
      <point x="-260" y="-310" type="curve" smooth="yes"/>
      <point x="-163" y="-310"/>
      <point x="-83" y="-234"/>
      <point x="-83" y="-140" type="curve" smooth="yes"/>
      <point x="-83" y="-45"/>
      <point x="-163" y="31"/>
      <point x="-260" y="31" type="curve" smooth="yes"/>
      <point x="-357" y="31"/>
      <point x="-437" y="-45"/>
      <point x="-437" y="-140" type="curve" smooth="yes"/>
      <point x="-437" y="-234"/>
      <point x="-357" y="-310"/>
    </contour>
    <contour>
      <point x="-260" y="-243" type="curve" smooth="yes"/>
      <point x="-321" y="-243"/>
      <point x="-370" y="-198"/>
      <point x="-370" y="-140" type="curve" smooth="yes"/>
      <point x="-370" y="-81"/>
      <point x="-321" y="-36"/>
      <point x="-260" y="-36" type="curve" smooth="yes"/>
      <point x="-199" y="-36"/>
      <point x="-150" y="-81"/>
      <point x="-150" y="-140" type="curve" smooth="yes"/>
      <point x="-150" y="-198"/>
      <point x="-199" y="-243"/>
    </contour>
  </outline>
</glyph>
<glyph name="auMark_chakma" format="2">
  <unicode hex="11132"/>
  <anchor x="-260" y="31" name="_bottom_o"/>
  <outline>
    <contour>
      <point x="-260" y="-310" type="curve" smooth="yes"/>
      <point x="-163" y="-310"/>
      <point x="-83" y="-234"/>
      <point x="-83" y="-140" type="curve" smooth="yes"/>
      <point x="-83" y="-45"/>
      <point x="-163" y="31"/>
      <point x="-260" y="31" type="curve" smooth="yes"/>
      <point x="-357" y="31"/>
      <point x="-437" y="-45"/>
      <point x="-437" y="-140" type="curve" smooth="yes"/>
      <point x="-437" y="-234"/>
      <point x="-357" y="-310"/>
    </contour>
    <contour>
      <point x="-260" y="-243" type="curve" smooth="yes"/>
      <point x="-321" y="-243"/>
      <point x="-370" y="-198"/>
      <point x="-370" y="-140" type="curve" smooth="yes"/>
      <point x="-370" y="-81"/>
      <point x="-321" y="-36"/>
      <point x="-260" y="-36" type="curve" smooth="yes"/>
      <point x="-199" y="-36"/>
      <point x="-150" y="-81"/>
      <point x="-150" y="-140" type="curve" smooth="yes"/>
      <point x="-150" y="-198"/>
      <point x="-199" y="-243"/>
    </contour>
    <contour>
      <point x="-261" y="-195" type="curve" smooth="yes"/>
      <point x="-231" y="-195"/>
      <point x="-206" y="-170"/>
      <point x="-206" y="-139" type="curve" smooth="yes"/>
      <point x="-206" y="-108"/>
      <point x="-231" y="-83"/>
      <point x="-261" y="-83" type="curve" smooth="yes"/>
      <point x="-291" y="-83"/>
      <point x="-316" y="-108"/>
      <point x="-316" y="-139" type="curve" smooth="yes"/>
      <point x="-316" y="-170"/>
      <point x="-291" y="-195"/>
    </contour>
  </outline>
</glyph>
<glyph name="virama_chakma" format="2">
  <unicode hex="11133"/>
  <anchor x="-317" y="0" name="_bottom"/>
  <outline>
    <contour>
      <point x="-353" y="-416" type="line"/>
      <point x="-279" y="-416" type="line"/>
      <point x="-279" y="-291" type="line"/>
      <point x="-154" y="-291" type="line"/>
      <point x="-154" y="-224" type="line"/>
      <point x="-279" y="-224" type="line"/>
      <point x="-279" y="-98" type="line"/>
      <point x="-353" y="-98" type="line"/>
      <point x="-353" y="-224" type="line"/>
      <point x="-478" y="-224" type="line"/>
      <point x="-478" y="-291" type="line"/>
      <point x="-353" y="-291" type="line"/>
    </contour>
  </outline>
</glyph>
<glyph name="maayyaa_chakma" format="2">
  <unicode hex="11134"/>
  <anchor x="-223" y="650" name="_top"/>
  <anchor x="-223" y="822" name="top"/>
  <outline>
    <contour>
      <point x="-383" y="700" type="line"/>
      <point x="-63" y="700" type="line"/>
      <point x="-63" y="770" type="line"/>
      <point x="-383" y="770" type="line"/>
    </contour>
  </outline>
</glyph>
<glyph name="zero_chakma" format="2">
  <advance width="575"/>
  <unicode hex="11136"/>
  <guideline x="287" y="307" angle="270"/>
  <outline>
    <contour>
      <point x="287" y="-10" type="curve" smooth="yes"/>
      <point x="427" y="-10"/>
      <point x="515" y="147"/>
      <point x="515" y="307" type="curve" smooth="yes"/>
      <point x="515" y="467"/>
      <point x="427" y="622"/>
      <point x="287" y="622" type="curve" smooth="yes"/>
      <point x="147" y="622"/>
      <point x="60" y="467"/>
      <point x="60" y="307" type="curve" smooth="yes"/>
      <point x="60" y="147"/>
      <point x="147" y="-10"/>
    </contour>
    <contour>
      <point x="287" y="57" type="curve" smooth="yes"/>
      <point x="197" y="57"/>
      <point x="150" y="159"/>
      <point x="150" y="307" type="curve" smooth="yes"/>
      <point x="150" y="455"/>
      <point x="197" y="555"/>
      <point x="287" y="555" type="curve" smooth="yes"/>
      <point x="377" y="555"/>
      <point x="425" y="455"/>
      <point x="425" y="307" type="curve" smooth="yes"/>
      <point x="425" y="159"/>
      <point x="377" y="57"/>
    </contour>
  </outline>
</glyph>
<glyph name="one_chakma" format="2">
  <advance width="558"/>
  <unicode hex="11137"/>
  <outline>
    <contour>
      <point x="270" y="-11" type="curve" smooth="yes"/>
      <point x="375" y="-11"/>
      <point x="466" y="63"/>
      <point x="466" y="186" type="curve" smooth="yes"/>
      <point x="466" y="390"/>
      <point x="220" y="572"/>
      <point x="44" y="629" type="curve"/>
      <point x="44" y="543" type="line"/>
      <point x="192" y="503"/>
      <point x="376" y="358"/>
      <point x="376" y="186" type="curve" smooth="yes"/>
      <point x="376" y="100"/>
      <point x="329" y="56"/>
      <point x="271" y="56" type="curve" smooth="yes"/>
      <point x="210" y="56"/>
      <point x="161" y="103"/>
      <point x="161" y="186" type="curve" smooth="yes"/>
      <point x="161" y="368"/>
      <point x="397" y="500"/>
      <point x="514" y="545" type="curve"/>
      <point x="514" y="631" type="line"/>
      <point x="348" y="572"/>
      <point x="71" y="403"/>
      <point x="71" y="186" type="curve" smooth="yes"/>
      <point x="71" y="67"/>
      <point x="163" y="-11"/>
    </contour>
  </outline>
</glyph>
<glyph name="two_chakma" format="2">
  <advance width="590"/>
  <unicode hex="11138"/>
  <outline>
    <contour>
      <point x="479" y="-75" type="curve"/>
      <point x="535" y="-7" type="line"/>
      <point x="469" y="66"/>
      <point x="372" y="135"/>
      <point x="210" y="164" type="curve"/>
      <point x="212" y="149" type="line"/>
      <point x="392" y="224"/>
      <point x="540" y="374"/>
      <point x="540" y="500" type="curve" smooth="yes"/>
      <point x="540" y="602"/>
      <point x="446" y="631"/>
      <point x="359" y="631" type="curve" smooth="yes"/>
      <point x="179" y="631"/>
      <point x="99" y="496"/>
      <point x="108" y="386" type="curve"/>
      <point x="196" y="424" type="line"/>
      <point x="190" y="488"/>
      <point x="237" y="563"/>
      <point x="346" y="563" type="curve" smooth="yes"/>
      <point x="399" y="563"/>
      <point x="450" y="545"/>
      <point x="450" y="490" type="curve" smooth="yes"/>
      <point x="450" y="377"/>
      <point x="242" y="201"/>
      <point x="78" y="201" type="curve"/>
      <point x="60" y="134" type="line"/>
      <point x="246" y="107"/>
      <point x="392" y="26"/>
    </contour>
  </outline>
</glyph>
<glyph name="three_chakma" format="2">
  <advance width="704"/>
  <unicode hex="11139"/>
  <outline>
    <contour>
      <point x="366" y="-14" type="curve" smooth="yes"/>
      <point x="550" y="-14"/>
      <point x="644" y="129"/>
      <point x="644" y="257" type="curve" smooth="yes"/>
      <point x="644" y="374"/>
      <point x="565" y="471"/>
      <point x="439" y="467" type="curve" smooth="yes"/>
      <point x="346" y="464"/>
      <point x="273" y="411"/>
      <point x="273" y="326" type="curve" smooth="yes"/>
      <point x="273" y="253"/>
      <point x="327" y="211"/>
      <point x="399" y="211" type="curve" smooth="yes"/>
      <point x="479" y="211"/>
      <point x="521" y="265"/>
      <point x="521" y="324" type="curve" smooth="yes"/>
      <point x="521" y="385.918"/>
      <point x="472.851" y="429.781"/>
      <point x="410.574" y="450.862" type="curve"/>
      <point x="387.102" y="410.177" type="line"/>
      <point x="422.358" y="390.936"/>
      <point x="447" y="359.6"/>
      <point x="447" y="327" type="curve" smooth="yes"/>
      <point x="447" y="299"/>
      <point x="429" y="278"/>
      <point x="401" y="278" type="curve" smooth="yes"/>
      <point x="376" y="278"/>
      <point x="355" y="295"/>
      <point x="355" y="326" type="curve" smooth="yes"/>
      <point x="355" y="364"/>
      <point x="386" y="396"/>
      <point x="440" y="396" type="curve" smooth="yes"/>
      <point x="521" y="396"/>
      <point x="554" y="325"/>
      <point x="554" y="255" type="curve" smooth="yes"/>
      <point x="554" y="144"/>
      <point x="472" y="53"/>
      <point x="359" y="53" type="curve" smooth="yes"/>
      <point x="230" y="53"/>
      <point x="150" y="169"/>
      <point x="150" y="298" type="curve" smooth="yes"/>
      <point x="150" y="422"/>
      <point x="223" y="524"/>
      <point x="305" y="573" type="curve"/>
      <point x="269" y="630" type="line"/>
      <point x="195" y="592"/>
      <point x="60" y="475"/>
      <point x="60" y="288" type="curve" smooth="yes"/>
      <point x="60" y="116"/>
      <point x="184" y="-14"/>
    </contour>
  </outline>
</glyph>
<glyph name="four_chakma" format="2">
  <advance width="608"/>
  <unicode hex="1113A"/>
  <outline>
    <contour>
      <point x="303" y="-5" type="curve" smooth="yes"/>
      <point x="401" y="-5"/>
      <point x="490" y="44"/>
      <point x="548" y="118" type="curve"/>
      <point x="503" y="163" type="line"/>
      <point x="469" y="124"/>
      <point x="398" y="63"/>
      <point x="315" y="63" type="curve" smooth="yes"/>
      <point x="216" y="63"/>
      <point x="150" y="152"/>
      <point x="150" y="262" type="curve" smooth="yes"/>
      <point x="150" y="410"/>
      <point x="270" y="556"/>
      <point x="380" y="556" type="curve" smooth="yes"/>
      <point x="409" y="556"/>
      <point x="442" y="546"/>
      <point x="442" y="517" type="curve" smooth="yes"/>
      <point x="442" y="470"/>
      <point x="355" y="404"/>
      <point x="251" y="404" type="curve" smooth="yes"/>
      <point x="225.241" y="404"/>
      <point x="197.187" y="408.018"/>
      <point x="169.01" y="418.228" type="curve"/>
      <point x="147.47" y="360.068" type="line"/>
      <point x="177.584" y="351"/>
      <point x="211.183" y="345"/>
      <point x="250" y="345" type="curve" smooth="yes"/>
      <point x="415" y="345"/>
      <point x="520" y="452"/>
      <point x="520" y="536" type="curve" smooth="yes"/>
      <point x="520" y="587"/>
      <point x="480" y="625"/>
      <point x="401" y="625" type="curve" smooth="yes"/>
      <point x="242" y="625"/>
      <point x="60" y="470"/>
      <point x="60" y="259" type="curve" smooth="yes"/>
      <point x="60" y="98"/>
      <point x="159" y="-5"/>
    </contour>
  </outline>
</glyph>
<glyph name="five_chakma" format="2">
  <advance width="557"/>
  <unicode hex="1113B"/>
  <outline>
    <contour>
      <point x="211" y="-10" type="curve" smooth="yes"/>
      <point x="370" y="-10"/>
      <point x="497" y="137"/>
      <point x="497" y="313" type="curve" smooth="yes"/>
      <point x="497" y="491"/>
      <point x="355" y="631"/>
      <point x="202" y="631" type="curve" smooth="yes"/>
      <point x="161" y="631"/>
      <point x="132" y="621"/>
      <point x="110" y="610" type="curve"/>
      <point x="122" y="553" type="line"/>
      <point x="135" y="558"/>
      <point x="156" y="564"/>
      <point x="186" y="564" type="curve" smooth="yes"/>
      <point x="311" y="564"/>
      <point x="407" y="464"/>
      <point x="407" y="308" type="curve" smooth="yes"/>
      <point x="407" y="161"/>
      <point x="317" y="57"/>
      <point x="222" y="57" type="curve" smooth="yes"/>
      <point x="167" y="57"/>
      <point x="139" y="92"/>
      <point x="139" y="135" type="curve" smooth="yes"/>
      <point x="139" y="238"/>
      <point x="286" y="295"/>
      <point x="286" y="350" type="curve" smooth="yes"/>
      <point x="286" y="388"/>
      <point x="215" y="413"/>
      <point x="151" y="427" type="curve"/>
      <point x="158" y="421" type="line"/>
      <point x="168" y="460"/>
      <point x="193" y="491"/>
      <point x="215" y="512" type="curve"/>
      <point x="187" y="573" type="line"/>
      <point x="135" y="539"/>
      <point x="80" y="473"/>
      <point x="80" y="422" type="curve" smooth="yes"/>
      <point x="80" y="352"/>
      <point x="184" y="330"/>
      <point x="211" y="324" type="curve"/>
      <point x="211" y="334" type="line"/>
      <point x="178" y="309"/>
      <point x="60" y="216"/>
      <point x="60" y="115" type="curve" smooth="yes"/>
      <point x="60" y="46"/>
      <point x="117" y="-10"/>
    </contour>
  </outline>
</glyph>
<glyph name="six_chakma" format="2">
  <advance width="650"/>
  <unicode hex="1113C"/>
  <outline>
    <contour>
      <point x="269" y="-10" type="curve" smooth="yes"/>
      <point x="433" y="-10"/>
      <point x="506" y="148"/>
      <point x="506" y="310" type="curve" smooth="yes"/>
      <point x="506" y="500"/>
      <point x="400" y="631"/>
      <point x="252" y="631" type="curve" smooth="yes"/>
      <point x="145" y="631"/>
      <point x="65" y="562"/>
      <point x="65" y="474" type="curve" smooth="yes"/>
      <point x="65" y="377"/>
      <point x="167" y="313"/>
      <point x="275" y="251" type="curve" smooth="yes"/>
      <point x="380" y="191"/>
      <point x="460" y="145"/>
      <point x="525" y="0" type="curve"/>
      <point x="596" y="23" type="line"/>
      <point x="532" y="197"/>
      <point x="403" y="265"/>
      <point x="279" y="338" type="curve" smooth="yes"/>
      <point x="199" y="385"/>
      <point x="155" y="419"/>
      <point x="155" y="475" type="curve" smooth="yes"/>
      <point x="155" y="529"/>
      <point x="195" y="563"/>
      <point x="259" y="563" type="curve" smooth="yes"/>
      <point x="358" y="563"/>
      <point x="416" y="483"/>
      <point x="416" y="306" type="curve" smooth="yes"/>
      <point x="416" y="104"/>
      <point x="340" y="57"/>
      <point x="270" y="57" type="curve" smooth="yes"/>
      <point x="197" y="57"/>
      <point x="150" y="107"/>
      <point x="150" y="169" type="curve" smooth="yes"/>
      <point x="150" y="237"/>
      <point x="205" y="292"/>
      <point x="252" y="323" type="curve"/>
      <point x="195" y="362" type="line"/>
      <point x="94" y="297"/>
      <point x="60" y="241"/>
      <point x="60" y="160" type="curve" smooth="yes"/>
      <point x="60" y="53"/>
      <point x="165" y="-10"/>
    </contour>
  </outline>
</glyph>
<glyph name="seven_chakma" format="2">
  <advance width="548"/>
  <unicode hex="1113D"/>
  <guideline x="152" y="0" angle="318.6522"/>
  <outline>
    <contour>
      <point x="177" y="-20" type="line"/>
      <point x="323" y="109"/>
      <point x="488" y="294"/>
      <point x="488" y="448" type="curve" smooth="yes"/>
      <point x="488" y="561"/>
      <point x="403" y="631"/>
      <point x="290" y="631" type="curve" smooth="yes"/>
      <point x="164" y="631"/>
      <point x="60" y="553"/>
      <point x="60" y="438" type="curve" smooth="yes"/>
      <point x="60" y="338"/>
      <point x="147" y="278"/>
      <point x="248" y="278" type="curve" smooth="yes"/>
      <point x="370.656" y="278"/>
      <point x="434" y="366"/>
      <point x="455" y="413" type="curve"/>
      <point x="420" y="450" type="line"/>
      <point x="385.83" y="389.232"/>
      <point x="331.244" y="345"/>
      <point x="260" y="345" type="curve" smooth="yes"/>
      <point x="195" y="345"/>
      <point x="150" y="383"/>
      <point x="150" y="446" type="curve" smooth="yes"/>
      <point x="150" y="517"/>
      <point x="207" y="564"/>
      <point x="280" y="564" type="curve" smooth="yes"/>
      <point x="347" y="564"/>
      <point x="398" y="525"/>
      <point x="398" y="445" type="curve" smooth="yes"/>
      <point x="398" y="312"/>
      <point x="257" y="145"/>
      <point x="127" y="24" type="curve"/>
    </contour>
  </outline>
</glyph>
<glyph name="eight_chakma" format="2">
  <advance width="649"/>
  <unicode hex="1113E"/>
  <guideline x="190" y="619" angle="345.9638"/>
  <outline>
    <contour>
      <point x="293" y="-10" type="curve" smooth="yes"/>
      <point x="406" y="-10"/>
      <point x="490" y="63"/>
      <point x="490" y="171" type="curve" smooth="yes"/>
      <point x="490" y="259"/>
      <point x="436" y="346"/>
      <point x="235" y="385" type="curve"/>
      <point x="235" y="318" type="line"/>
      <point x="335" y="307"/>
      <point x="400" y="253"/>
      <point x="400" y="171" type="curve" smooth="yes"/>
      <point x="400" y="104"/>
      <point x="357" y="57"/>
      <point x="297" y="57" type="curve" smooth="yes"/>
      <point x="218" y="57"/>
      <point x="150" y="134"/>
      <point x="150" y="285" type="curve" smooth="yes"/>
      <point x="150" y="377"/>
      <point x="181" y="518"/>
      <point x="226" y="610" type="curve"/>
      <point x="154" y="628" type="line"/>
      <point x="92" y="527"/>
      <point x="60" y="385"/>
      <point x="60" y="279" type="curve" smooth="yes"/>
      <point x="60" y="95"/>
      <point x="163" y="-10"/>
    </contour>
    <contour>
      <point x="235" y="318" type="line"/>
      <point x="457" y="298"/>
      <point x="584" y="332"/>
      <point x="599" y="516" type="curve"/>
      <point x="510" y="491" type="line"/>
      <point x="494" y="377"/>
      <point x="378" y="375"/>
      <point x="235" y="385" type="curve"/>
    </contour>
  </outline>
</glyph>
<glyph name="nine_chakma" format="2">
  <advance width="993"/>
  <unicode hex="1113F"/>
  <guideline x="945" y="20" angle="214.5085"/>
  <outline>
    <contour>
      <point x="680" y="-10" type="curve" smooth="yes"/>
      <point x="857" y="-10"/>
      <point x="905" y="226"/>
      <point x="905" y="414" type="curve" smooth="yes"/>
      <point x="905" y="588"/>
      <point x="807" y="622"/>
      <point x="752" y="622" type="curve" smooth="yes"/>
      <point x="652" y="622"/>
      <point x="594" y="541"/>
      <point x="594" y="427" type="curve"/>
      <point x="684" y="427" type="line"/>
      <point x="684" y="487"/>
      <point x="703" y="555"/>
      <point x="750" y="555" type="curve" smooth="yes"/>
      <point x="780" y="555"/>
      <point x="815" y="523"/>
      <point x="815" y="421" type="curve" smooth="yes"/>
      <point x="815" y="317"/>
      <point x="798" y="57"/>
      <point x="680" y="57" type="curve" smooth="yes"/>
      <point x="635" y="57"/>
      <point x="595" y="91"/>
      <point x="595" y="134" type="curve" smooth="yes"/>
      <point x="595" y="174"/>
      <point x="631" y="207"/>
      <point x="688" y="207" type="curve" smooth="yes"/>
      <point x="789" y="207"/>
      <point x="864" y="101"/>
      <point x="916" y="0" type="curve"/>
      <point x="982" y="45" type="line"/>
      <point x="919" y="169"/>
      <point x="815" y="274"/>
      <point x="686" y="274" type="curve" smooth="yes"/>
      <point x="578" y="274"/>
      <point x="540" y="198"/>
      <point x="529" y="169" type="curve"/>
      <point x="411" y="169" type="line"/>
      <point x="411" y="102" type="line"/>
      <point x="528" y="102" type="line"/>
      <point x="540" y="49"/>
      <point x="592" y="-10"/>
    </contour>
    <contour>
      <point x="287" y="-10" type="curve" smooth="yes"/>
      <point x="427" y="-10"/>
      <point x="515" y="147"/>
      <point x="515" y="307" type="curve" smooth="yes"/>
      <point x="515" y="467"/>
      <point x="427" y="622"/>
      <point x="287" y="622" type="curve" smooth="yes"/>
      <point x="147" y="622"/>
      <point x="60" y="467"/>
      <point x="60" y="307" type="curve" smooth="yes"/>
      <point x="60" y="147"/>
      <point x="147" y="-10"/>
    </contour>
    <contour>
      <point x="287" y="57" type="curve" smooth="yes"/>
      <point x="197" y="57"/>
      <point x="150" y="159"/>
      <point x="150" y="307" type="curve" smooth="yes"/>
      <point x="150" y="455"/>
      <point x="197" y="555"/>
      <point x="287" y="555" type="curve" smooth="yes"/>
      <point x="377" y="555"/>
      <point x="425" y="455"/>
      <point x="425" y="307" type="curve" smooth="yes"/>
      <point x="425" y="159"/>
      <point x="377" y="57"/>
    </contour>
    <contour>
      <point x="451" y="427" type="line"/>
      <point x="618" y="427" type="line"/>
      <point x="618" y="494" type="line"/>
      <point x="451" y="494" type="line"/>
    </contour>
  </outline>
</glyph>
<glyph name="section_chakma" format="2">
  <advance width="687"/>
  <unicode hex="11140"/>
  <outline>
    <contour>
      <point x="343" y="361" type="curve" smooth="yes"/>
      <point x="409" y="361"/>
      <point x="450" y="408"/>
      <point x="450" y="486" type="curve" smooth="yes"/>
      <point x="450" y="563"/>
      <point x="409" y="605"/>
      <point x="343" y="605" type="curve" smooth="yes"/>
      <point x="278" y="605"/>
      <point x="232" y="563"/>
      <point x="232" y="486" type="curve" smooth="yes"/>
      <point x="232" y="408"/>
      <point x="278" y="361"/>
    </contour>
    <contour>
      <point x="343" y="-30" type="curve" smooth="yes"/>
      <point x="409" y="-30"/>
      <point x="450" y="17"/>
      <point x="450" y="95" type="curve" smooth="yes"/>
      <point x="450" y="172"/>
      <point x="409" y="214"/>
      <point x="343" y="214" type="curve" smooth="yes"/>
      <point x="278" y="214"/>
      <point x="232" y="172"/>
      <point x="232" y="95" type="curve" smooth="yes"/>
      <point x="232" y="17"/>
      <point x="278" y="-30"/>
    </contour>
    <contour>
      <point x="342" y="30" type="curve" smooth="yes"/>
      <point x="312" y="30"/>
      <point x="291" y="57"/>
      <point x="291" y="95" type="curve" smooth="yes"/>
      <point x="291" y="133"/>
      <point x="312" y="154"/>
      <point x="342" y="154" type="curve" smooth="yes"/>
      <point x="372" y="154"/>
      <point x="391" y="133"/>
      <point x="391" y="95" type="curve" smooth="yes"/>
      <point x="391" y="57"/>
      <point x="372" y="30"/>
    </contour>
    <contour>
      <point x="161" y="165" type="curve" smooth="yes"/>
      <point x="227" y="165"/>
      <point x="268" y="212"/>
      <point x="268" y="290" type="curve" smooth="yes"/>
      <point x="268" y="367"/>
      <point x="227" y="409"/>
      <point x="161" y="409" type="curve" smooth="yes"/>
      <point x="96" y="409"/>
      <point x="50" y="367"/>
      <point x="50" y="290" type="curve" smooth="yes"/>
      <point x="50" y="212"/>
      <point x="96" y="165"/>
    </contour>
    <contour>
      <point x="160" y="225" type="curve" smooth="yes"/>
      <point x="130" y="225"/>
      <point x="109" y="252"/>
      <point x="109" y="290" type="curve" smooth="yes"/>
      <point x="109" y="328"/>
      <point x="130" y="349"/>
      <point x="160" y="349" type="curve" smooth="yes"/>
      <point x="190" y="349"/>
      <point x="209" y="328"/>
      <point x="209" y="290" type="curve" smooth="yes"/>
      <point x="209" y="252"/>
      <point x="190" y="225"/>
    </contour>
    <contour>
      <point x="530" y="165" type="curve" smooth="yes"/>
      <point x="596" y="165"/>
      <point x="637" y="212"/>
      <point x="637" y="290" type="curve" smooth="yes"/>
      <point x="637" y="367"/>
      <point x="596" y="409"/>
      <point x="530" y="409" type="curve" smooth="yes"/>
      <point x="465" y="409"/>
      <point x="419" y="367"/>
      <point x="419" y="290" type="curve" smooth="yes"/>
      <point x="419" y="212"/>
      <point x="465" y="165"/>
    </contour>
    <contour>
      <point x="529" y="225" type="curve" smooth="yes"/>
      <point x="499" y="225"/>
      <point x="478" y="252"/>
      <point x="478" y="290" type="curve" smooth="yes"/>
      <point x="478" y="328"/>
      <point x="499" y="349"/>
      <point x="529" y="349" type="curve" smooth="yes"/>
      <point x="559" y="349"/>
      <point x="578" y="328"/>
      <point x="578" y="290" type="curve" smooth="yes"/>
      <point x="578" y="252"/>
      <point x="559" y="225"/>
    </contour>
    <contour>
      <point x="342" y="421" type="curve" smooth="yes"/>
      <point x="312" y="421"/>
      <point x="291" y="448"/>
      <point x="291" y="486" type="curve" smooth="yes"/>
      <point x="291" y="524"/>
      <point x="312" y="545"/>
      <point x="342" y="545" type="curve" smooth="yes"/>
      <point x="372" y="545"/>
      <point x="391" y="524"/>
      <point x="391" y="486" type="curve" smooth="yes"/>
      <point x="391" y="448"/>
      <point x="372" y="421"/>
    </contour>
  </outline>
</glyph>
<glyph name="danda_chakma" format="2">
  <advance width="290"/>
  <unicode hex="11141"/>
  <outline>
    <contour>
      <point x="130" y="0" type="line"/>
      <point x="220" y="0" type="line"/>
      <point x="220" y="545" type="line"/>
      <point x="130" y="545" type="line"/>
    </contour>
  </outline>
</glyph>
<glyph name="question_chakma" format="2">
  <advance width="384"/>
  <unicode hex="11143"/>
  <outline>
    <contour>
      <point x="62" y="-10" type="line"/>
      <point x="152" y="-10" type="line"/>
      <point x="152" y="177" type="line"/>
      <point x="105" y="186" type="line"/>
      <point x="126" y="172"/>
      <point x="157" y="157"/>
      <point x="197" y="157" type="curve" smooth="yes"/>
      <point x="287" y="157"/>
      <point x="342" y="234"/>
      <point x="342" y="329" type="curve" smooth="yes"/>
      <point x="342" y="425"/>
      <point x="286" y="481"/>
      <point x="203" y="481" type="curve" smooth="yes"/>
      <point x="164" y="481"/>
      <point x="132" y="469"/>
      <point x="105" y="447" type="curve"/>
      <point x="152" y="461" type="line"/>
      <point x="152" y="620" type="line"/>
      <point x="62" y="620" type="line"/>
      <point x="62" y="386" type="line"/>
      <point x="152" y="386" type="line"/>
      <point x="158" y="402"/>
      <point x="171" y="415"/>
      <point x="194" y="415" type="curve" smooth="yes"/>
      <point x="224" y="415"/>
      <point x="252" y="396"/>
      <point x="252" y="330" type="curve" smooth="yes"/>
      <point x="252" y="261"/>
      <point x="222" y="230"/>
      <point x="190" y="230" type="curve" smooth="yes"/>
      <point x="174" y="230"/>
      <point x="161" y="238"/>
      <point x="152" y="246" type="curve"/>
      <point x="62" y="246" type="line"/>
    </contour>
  </outline>
</glyph>
<glyph name="lhaa_chakma" format="2">
  <advance width="1125"/>
  <unicode hex="11144"/>
  <guideline x="1038" y="-12" angle="68.0704"/>
  <anchor x="1000" y="382" name="aaMatra"/>
  <anchor x="559" y="0" name="bottom"/>
  <anchor x="767" y="10" name="bottom_o"/>
  <anchor x="835" y="11" name="bottom_ra"/>
  <anchor x="840" y="0" name="bottomright"/>
  <anchor x="1000" y="382" name="eBelow"/>
  <anchor x="1000" y="382" name="eiMatra"/>
  <anchor x="551" y="590" name="top"/>
  <anchor x="892" y="524" name="topright"/>
  <anchor x="1043" y="134" name="yyaa_post"/>
  <outline>
    <contour>
      <point x="317" y="-10" type="curve" smooth="yes"/>
      <point x="477" y="-10"/>
      <point x="578" y="111"/>
      <point x="578" y="271" type="curve" smooth="yes"/>
      <point x="578" y="431"/>
      <point x="477" y="550"/>
      <point x="317" y="550" type="curve" smooth="yes"/>
      <point x="157" y="550"/>
      <point x="60" y="431"/>
      <point x="60" y="271" type="curve" smooth="yes"/>
      <point x="60" y="111"/>
      <point x="157" y="-10"/>
    </contour>
    <contour>
      <point x="317" y="57" type="curve" smooth="yes"/>
      <point x="211" y="57"/>
      <point x="150" y="151"/>
      <point x="150" y="271" type="curve" smooth="yes"/>
      <point x="150" y="391"/>
      <point x="211" y="483"/>
      <point x="317" y="483" type="curve" smooth="yes"/>
      <point x="423" y="483"/>
      <point x="488" y="391"/>
      <point x="488" y="271" type="curve" smooth="yes"/>
      <point x="488" y="151"/>
      <point x="423" y="57"/>
    </contour>
    <contour>
      <point x="1055" y="17" type="curve"/>
      <point x="1110" y="75" type="line"/>
      <point x="948" y="261"/>
      <point x="766" y="376"/>
      <point x="545" y="376" type="curve" smooth="yes"/>
      <point x="511" y="376" type="line"/>
      <point x="511" y="309" type="line"/>
      <point x="568" y="309" type="line" smooth="yes"/>
      <point x="753" y="309"/>
      <point x="877" y="215"/>
    </contour>
    <contour>
      <point x="783" y="-10" type="curve" smooth="yes"/>
      <point x="955" y="-10"/>
      <point x="1009" y="173"/>
      <point x="1009" y="312" type="curve" smooth="yes"/>
      <point x="1009" y="485"/>
      <point x="917" y="550"/>
      <point x="824" y="550" type="curve" smooth="yes"/>
      <point x="727" y="550"/>
      <point x="657" y="479"/>
      <point x="657" y="403" type="curve" smooth="yes"/>
      <point x="657" y="344"/>
      <point x="701" y="309"/>
      <point x="751" y="276" type="curve"/>
      <point x="784" y="327" type="line"/>
      <point x="749" y="342"/>
      <point x="729" y="369"/>
      <point x="729" y="402" type="curve" smooth="yes"/>
      <point x="729" y="445"/>
      <point x="763" y="483"/>
      <point x="815" y="483" type="curve" smooth="yes"/>
      <point x="883" y="483"/>
      <point x="919" y="417"/>
      <point x="919" y="305" type="curve" smooth="yes"/>
      <point x="919" y="248"/>
      <point x="905" y="57"/>
      <point x="782" y="57" type="curve" smooth="yes"/>
      <point x="700" y="57"/>
      <point x="668" y="142"/>
      <point x="660" y="209" type="curve"/>
      <point x="511" y="209" type="line"/>
      <point x="511" y="142" type="line"/>
      <point x="601" y="142" type="line"/>
      <point x="614" y="74"/>
      <point x="666" y="-10"/>
    </contour>
  </outline>
</glyph>
<glyph name="aaMatra_chakma" format="2">
  <unicode hex="11145"/>
  <anchor x="-79" y="382" name="_aaMatra"/>
  <outline>
    <contour>
      <point x="200" y="-32" type="curve" smooth="yes"/>
      <point x="256" y="-32"/>
      <point x="291" y="2"/>
      <point x="307" y="24" type="curve"/>
      <point x="273" y="66" type="line"/>
      <point x="259" y="52"/>
      <point x="238" y="35"/>
      <point x="218" y="35" type="curve" smooth="yes"/>
      <point x="181" y="35"/>
      <point x="170" y="90"/>
      <point x="170" y="248" type="curve" smooth="yes"/>
      <point x="170" y="426" type="line" smooth="yes"/>
      <point x="170" y="540"/>
      <point x="124" y="570"/>
      <point x="65" y="570" type="curve" smooth="yes"/>
      <point x="-9" y="570"/>
      <point x="-82" y="523"/>
      <point x="-146" y="436" type="curve"/>
      <point x="-98" y="388" type="line"/>
      <point x="-60" y="444"/>
      <point x="1" y="502"/>
      <point x="46" y="502" type="curve" smooth="yes"/>
      <point x="70" y="502"/>
      <point x="80" y="484"/>
      <point x="80" y="424" type="curve" smooth="yes"/>
      <point x="80" y="152" type="line" smooth="yes"/>
      <point x="80" y="15"/>
      <point x="131" y="-32"/>
    </contour>
  </outline>
</glyph>
<glyph name="eiMatra_chakma" format="2">
  <unicode hex="11146"/>
  <anchor x="-121" y="382" name="_eiMatra"/>
  <outline>
    <contour>
      <point x="245" y="128" type="curve"/>
      <point x="322" y="128" type="line"/>
      <point x="322" y="310"/>
      <point x="359" y="524"/>
      <point x="466" y="656" type="curve"/>
      <point x="398" y="691" type="line"/>
      <point x="303" y="565"/>
      <point x="252" y="378"/>
      <point x="249" y="275" type="curve"/>
      <point x="273" y="293" type="line"/>
      <point x="225" y="361"/>
      <point x="174" y="384"/>
      <point x="122" y="384" type="curve" smooth="yes"/>
      <point x="36" y="384"/>
      <point x="-33" y="322"/>
      <point x="-33" y="253" type="curve" smooth="yes"/>
      <point x="-33" y="198"/>
      <point x="11" y="153"/>
      <point x="64" y="153" type="curve" smooth="yes"/>
      <point x="143" y="153"/>
      <point x="208" y="252"/>
      <point x="208" y="340" type="curve" smooth="yes"/>
      <point x="208" y="435"/>
      <point x="134" y="489"/>
      <point x="43" y="489" type="curve" smooth="yes"/>
      <point x="-43" y="489"/>
      <point x="-106" y="441"/>
      <point x="-146" y="382" type="curve"/>
      <point x="-146" y="319" type="line"/>
      <point x="-95" y="388"/>
      <point x="-35" y="427"/>
      <point x="24" y="427" type="curve" smooth="yes"/>
      <point x="76" y="427"/>
      <point x="126" y="397"/>
      <point x="126" y="322" type="curve" smooth="yes"/>
      <point x="126" y="273"/>
      <point x="105" y="220"/>
      <point x="70" y="220" type="curve" smooth="yes"/>
      <point x="56" y="220"/>
      <point x="41" y="228"/>
      <point x="41" y="253" type="curve" smooth="yes"/>
      <point x="41" y="290"/>
      <point x="73" y="317"/>
      <point x="120" y="317" type="curve" smooth="yes"/>
      <point x="194" y="317"/>
      <point x="245" y="250"/>
    </contour>
  </outline>
</glyph>
<glyph name="vaa_chakma" format="2">
  <advance width="689"/>
  <unicode hex="11147"/>
  <anchor x="594" y="382" name="aaMatra"/>
  <anchor x="345" y="0" name="bottom"/>
  <anchor x="454" y="20" name="bottom_o"/>
  <anchor x="552" y="15" name="bottom_ra"/>
  <anchor x="515" y="53" name="bottomright"/>
  <anchor x="626" y="382" name="eBelow"/>
  <anchor x="603" y="382" name="eiMatra"/>
  <anchor x="341" y="590" name="top"/>
  <anchor x="510" y="516" name="topright"/>
  <anchor x="594" y="134" name="yyaa_post"/>
  <outline>
    <contour>
      <point x="345" y="-10" type="curve" smooth="yes"/>
      <point x="510" y="-10"/>
      <point x="629" y="108"/>
      <point x="629" y="288" type="curve" smooth="yes"/>
      <point x="629" y="406"/>
      <point x="574" y="502"/>
      <point x="496" y="548" type="curve"/>
      <point x="456" y="497"/>
      <point x="406" y="464"/>
      <point x="342" y="464" type="curve" smooth="yes"/>
      <point x="279" y="464"/>
      <point x="226" y="497"/>
      <point x="186" y="548" type="curve"/>
      <point x="108" y="502"/>
      <point x="60" y="408"/>
      <point x="60" y="288" type="curve" smooth="yes"/>
      <point x="60" y="109"/>
      <point x="178" y="-10"/>
    </contour>
    <contour>
      <point x="113" y="156" type="line"/>
      <point x="575" y="156" type="line"/>
      <point x="575" y="212" type="line"/>
      <point x="113" y="212" type="line"/>
    </contour>
    <contour>
      <point x="345" y="57" type="curve" smooth="yes"/>
      <point x="227" y="57"/>
      <point x="150" y="147"/>
      <point x="150" y="280" type="curve" smooth="yes"/>
      <point x="150" y="343"/>
      <point x="167" y="409"/>
      <point x="200" y="459" type="curve"/>
      <point x="182" y="448" type="line"/>
      <point x="224" y="420"/>
      <point x="274" y="397"/>
      <point x="342" y="397" type="curve" smooth="yes"/>
      <point x="411" y="397"/>
      <point x="459" y="420"/>
      <point x="501" y="448" type="curve"/>
      <point x="485" y="459" type="line"/>
      <point x="518" y="409"/>
      <point x="539" y="345"/>
      <point x="539" y="280" type="curve" smooth="yes"/>
      <point x="539" y="148"/>
      <point x="463" y="57"/>
    </contour>
  </outline>
</glyph>
<glyph name="aa.below_yyaa.post" format="2">
  <anchor x="-104" y="197" name="_yyaa_post"/>
  <outline>
    <contour>
      <point x="139" y="-58" type="curve" smooth="yes"/>
      <point x="322" y="-58"/>
      <point x="463" y="76"/>
      <point x="463" y="578" type="curve" smooth="yes"/>
      <point x="463" y="700" type="line"/>
      <point x="373" y="700" type="line"/>
      <point x="373" y="492" type="line" smooth="yes"/>
      <point x="373" y="217"/>
      <point x="331" y="9"/>
      <point x="140" y="9" type="curve" smooth="yes"/>
      <point x="-17" y="9"/>
      <point x="-85" y="146"/>
      <point x="-104" y="197" type="curve"/>
      <point x="-158" y="156" type="line"/>
      <point x="-138" y="113"/>
      <point x="-53" y="-58"/>
    </contour>
    <contour>
      <point x="180" y="128" type="curve" smooth="yes"/>
      <point x="236" y="128"/>
      <point x="271" y="162"/>
      <point x="287" y="184" type="curve"/>
      <point x="253" y="226" type="line"/>
      <point x="241" y="212"/>
      <point x="221" y="195"/>
      <point x="199" y="195" type="curve" smooth="yes"/>
      <point x="164" y="195"/>
      <point x="150" y="240"/>
      <point x="150" y="338" type="curve" smooth="yes"/>
      <point x="150" y="466" type="line" smooth="yes"/>
      <point x="150" y="580"/>
      <point x="94" y="610"/>
      <point x="35" y="610" type="curve" smooth="yes"/>
      <point x="-39" y="610"/>
      <point x="-105" y="563"/>
      <point x="-166" y="476" type="curve"/>
      <point x="-118" y="428" type="line"/>
      <point x="-84" y="486"/>
      <point x="-38" y="542"/>
      <point x="12" y="542" type="curve" smooth="yes"/>
      <point x="40" y="542"/>
      <point x="60" y="524"/>
      <point x="60" y="464" type="curve" smooth="yes"/>
      <point x="60" y="312" type="line" smooth="yes"/>
      <point x="60" y="175"/>
      <point x="111" y="128"/>
    </contour>
  </outline>
</glyph>
<glyph name="aiMatra_anusvara" format="2">
  <anchor x="-159" y="557" name="_topright"/>
  <outline>
    <contour>
      <point x="-127" y="531" type="line"/>
      <point x="0" y="810" type="line"/>
      <point x="0" y="880" type="line"/>
      <point x="-567" y="880" type="line"/>
      <point x="-567" y="810" type="line"/>
      <point x="-81" y="810" type="line"/>
      <point x="-189" y="573" type="line"/>
    </contour>
    <contour>
      <point x="-340" y="629" type="curve" smooth="yes"/>
      <point x="-303" y="629"/>
      <point x="-273" y="658"/>
      <point x="-273" y="696" type="curve" smooth="yes"/>
      <point x="-273" y="732"/>
      <point x="-303" y="762"/>
      <point x="-340" y="762" type="curve" smooth="yes"/>
      <point x="-377" y="762"/>
      <point x="-406" y="732"/>
      <point x="-406" y="696" type="curve" smooth="yes"/>
      <point x="-406" y="658"/>
      <point x="-377" y="629"/>
    </contour>
  </outline>
</glyph>
<glyph name="aiMatra_anusvara.short" format="2">
  <anchor x="-159" y="557" name="_topright"/>
  <outline>
    <contour>
      <point x="-127" y="531" type="line"/>
      <point x="0" y="810" type="line"/>
      <point x="0" y="880" type="line"/>
      <point x="-468" y="880" type="line"/>
      <point x="-468" y="810" type="line"/>
      <point x="-81" y="810" type="line"/>
      <point x="-189" y="573" type="line"/>
    </contour>
    <contour>
      <point x="-290" y="629" type="curve" smooth="yes"/>
      <point x="-253" y="629"/>
      <point x="-223" y="658"/>
      <point x="-223" y="696" type="curve" smooth="yes"/>
      <point x="-223" y="732"/>
      <point x="-253" y="762"/>
      <point x="-290" y="762" type="curve" smooth="yes"/>
      <point x="-327" y="762"/>
      <point x="-356" y="732"/>
      <point x="-356" y="696" type="curve" smooth="yes"/>
      <point x="-356" y="658"/>
      <point x="-327" y="629"/>
    </contour>
  </outline>
</glyph>
<glyph name="aiMatra_candrabindu" format="2">
  <anchor x="-174" y="517" name="_topright"/>
  <outline>
    <contour>
      <point x="-144" y="491" type="line"/>
      <point x="0" y="810" type="line"/>
      <point x="0" y="880" type="line"/>
      <point x="-571" y="880" type="line"/>
      <point x="-571" y="810" type="line"/>
      <point x="-81" y="810" type="line"/>
      <point x="-206" y="533" type="line"/>
    </contour>
    <contour>
      <point x="-389" y="566" type="curve" smooth="yes"/>
      <point x="-279" y="566"/>
      <point x="-212" y="661"/>
      <point x="-212" y="756" type="curve"/>
      <point x="-284" y="756" type="line"/>
      <point x="-284" y="684"/>
      <point x="-332" y="623"/>
      <point x="-392" y="625" type="curve" smooth="yes"/>
      <point x="-452" y="627"/>
      <point x="-499" y="684"/>
      <point x="-499" y="756" type="curve"/>
      <point x="-571" y="756" type="line"/>
      <point x="-571" y="661"/>
      <point x="-500" y="566"/>
    </contour>
    <contour>
      <point x="-392" y="659" type="curve" smooth="yes"/>
      <point x="-362" y="659"/>
      <point x="-338" y="683"/>
      <point x="-338" y="713" type="curve" smooth="yes"/>
      <point x="-338" y="743"/>
      <point x="-362" y="767"/>
      <point x="-392" y="767" type="curve" smooth="yes"/>
      <point x="-422" y="767"/>
      <point x="-446" y="743"/>
      <point x="-446" y="713" type="curve" smooth="yes"/>
      <point x="-446" y="683"/>
      <point x="-422" y="659"/>
    </contour>
  </outline>
</glyph>
<glyph name="aiMatra_candrabindu.short" format="2">
  <anchor x="-174" y="516" name="_topright"/>
  <outline>
    <contour>
      <point x="-144" y="491" type="line"/>
      <point x="0" y="810" type="line"/>
      <point x="0" y="880" type="line"/>
      <point x="-521" y="880" type="line"/>
      <point x="-521" y="810" type="line"/>
      <point x="-81" y="810" type="line"/>
      <point x="-206" y="533" type="line"/>
    </contour>
    <contour>
      <point x="-349" y="566" type="curve" smooth="yes"/>
      <point x="-239" y="566"/>
      <point x="-172" y="661"/>
      <point x="-172" y="756" type="curve"/>
      <point x="-244" y="756" type="line"/>
      <point x="-244" y="684"/>
      <point x="-292" y="623"/>
      <point x="-352" y="625" type="curve" smooth="yes"/>
      <point x="-412" y="627"/>
      <point x="-459" y="684"/>
      <point x="-459" y="756" type="curve"/>
      <point x="-531" y="756" type="line"/>
      <point x="-531" y="661"/>
      <point x="-460" y="566"/>
    </contour>
    <contour>
      <point x="-352" y="659" type="curve" smooth="yes"/>
      <point x="-322" y="659"/>
      <point x="-298" y="683"/>
      <point x="-298" y="713" type="curve" smooth="yes"/>
      <point x="-298" y="743"/>
      <point x="-322" y="767"/>
      <point x="-352" y="767" type="curve" smooth="yes"/>
      <point x="-382" y="767"/>
      <point x="-406" y="743"/>
      <point x="-406" y="713" type="curve" smooth="yes"/>
      <point x="-406" y="683"/>
      <point x="-382" y="659"/>
    </contour>
  </outline>
</glyph>
<glyph name="aiMatra_chakma.short" format="2">
  <anchor x="-132" y="617" name="_topright"/>
  <outline>
    <contour>
      <point x="-100" y="591" type="line"/>
      <point x="0" y="810" type="line"/>
      <point x="0" y="880" type="line"/>
      <point x="-470" y="880" type="line"/>
      <point x="-470" y="810" type="line"/>
      <point x="-81" y="810" type="line"/>
      <point x="-162" y="633" type="line"/>
    </contour>
  </outline>
</glyph>
<glyph name="aiMatra_maayyaa.short" format="2">
  <anchor x="-159" y="557" name="_topright"/>
  <outline>
    <contour>
      <point x="-127" y="531" type="line"/>
      <point x="0" y="810" type="line"/>
      <point x="0" y="880" type="line"/>
      <point x="-468" y="880" type="line"/>
      <point x="-468" y="810" type="line"/>
      <point x="-81" y="810" type="line"/>
      <point x="-189" y="573" type="line"/>
    </contour>
    <contour>
      <point x="-428" y="660" type="line"/>
      <point x="-208" y="660" type="line"/>
      <point x="-208" y="730" type="line"/>
      <point x="-428" y="730" type="line"/>
    </contour>
  </outline>
</glyph>
<glyph name="aiMatra_visarga" format="2">
  <anchor x="-159" y="557" name="_topright"/>
  <outline>
    <contour>
      <point x="-127" y="531" type="line"/>
      <point x="0" y="810" type="line"/>
      <point x="0" y="880" type="line"/>
      <point x="-567" y="880" type="line"/>
      <point x="-567" y="810" type="line"/>
      <point x="-81" y="810" type="line"/>
      <point x="-189" y="573" type="line"/>
    </contour>
    <contour>
      <point x="-470" y="629" type="curve" smooth="yes"/>
      <point x="-433" y="629"/>
      <point x="-403" y="659"/>
      <point x="-403" y="697" type="curve" smooth="yes"/>
      <point x="-403" y="733"/>
      <point x="-433" y="763"/>
      <point x="-470" y="763" type="curve" smooth="yes"/>
      <point x="-506" y="763"/>
      <point x="-536" y="733"/>
      <point x="-536" y="697" type="curve" smooth="yes"/>
      <point x="-536" y="659"/>
      <point x="-506" y="629"/>
    </contour>
    <contour>
      <point x="-270" y="629" type="curve" smooth="yes"/>
      <point x="-233" y="629"/>
      <point x="-203" y="659"/>
      <point x="-203" y="697" type="curve" smooth="yes"/>
      <point x="-203" y="733"/>
      <point x="-233" y="763"/>
      <point x="-270" y="763" type="curve" smooth="yes"/>
      <point x="-306" y="763"/>
      <point x="-336" y="733"/>
      <point x="-336" y="697" type="curve" smooth="yes"/>
      <point x="-336" y="659"/>
      <point x="-306" y="629"/>
    </contour>
  </outline>
</glyph>
<glyph name="aiMatra_visarga.short" format="2">
  <anchor x="-159" y="557" name="_topright"/>
  <outline>
    <contour>
      <point x="-127" y="531" type="line"/>
      <point x="0" y="810" type="line"/>
      <point x="0" y="880" type="line"/>
      <point x="-496" y="880" type="line"/>
      <point x="-496" y="810" type="line"/>
      <point x="-81" y="810" type="line"/>
      <point x="-189" y="573" type="line"/>
    </contour>
    <contour>
      <point x="-420" y="629" type="curve" smooth="yes"/>
      <point x="-383" y="629"/>
      <point x="-353" y="659"/>
      <point x="-353" y="697" type="curve" smooth="yes"/>
      <point x="-353" y="733"/>
      <point x="-383" y="763"/>
      <point x="-420" y="763" type="curve" smooth="yes"/>
      <point x="-456" y="763"/>
      <point x="-486" y="733"/>
      <point x="-486" y="697" type="curve" smooth="yes"/>
      <point x="-486" y="659"/>
      <point x="-456" y="629"/>
    </contour>
    <contour>
      <point x="-250" y="629" type="curve" smooth="yes"/>
      <point x="-213" y="629"/>
      <point x="-183" y="659"/>
      <point x="-183" y="697" type="curve" smooth="yes"/>
      <point x="-183" y="733"/>
      <point x="-213" y="763"/>
      <point x="-250" y="763" type="curve" smooth="yes"/>
      <point x="-286" y="763"/>
      <point x="-316" y="733"/>
      <point x="-316" y="697" type="curve" smooth="yes"/>
      <point x="-316" y="659"/>
      <point x="-286" y="629"/>
    </contour>
  </outline>
</glyph>
<glyph name="baa_chakma.below" format="2">
  <anchor x="-208" y="0" name="_bottom"/>
  <anchor x="-208" y="-360" name="bottom"/>
  <anchor x="-149" y="-333" name="bottom_o"/>
  <anchor x="-31" y="-336" name="bottom_ra"/>
  <anchor x="-100" y="-339" name="bottomright"/>
  <outline>
    <contour>
      <point x="-208" y="-365" type="curve" smooth="yes"/>
      <point x="-95" y="-365"/>
      <point x="-8" y="-290"/>
      <point x="-8" y="-174" type="curve" smooth="yes"/>
      <point x="-8" y="-92"/>
      <point x="-48" y="-35"/>
      <point x="-105" y="0" type="curve"/>
      <point x="-135" y="-31"/>
      <point x="-167" y="-54"/>
      <point x="-208" y="-54" type="curve" smooth="yes"/>
      <point x="-249" y="-54"/>
      <point x="-281" y="-31"/>
      <point x="-311" y="0" type="curve"/>
      <point x="-368" y="-35"/>
      <point x="-408" y="-91"/>
      <point x="-408" y="-173" type="curve" smooth="yes"/>
      <point x="-408" y="-295"/>
      <point x="-322" y="-365"/>
    </contour>
    <contour>
      <point x="-208" y="-305" type="curve" smooth="yes"/>
      <point x="-270" y="-305"/>
      <point x="-326" y="-267"/>
      <point x="-326" y="-181" type="curve" smooth="yes"/>
      <point x="-326" y="-143"/>
      <point x="-315" y="-113"/>
      <point x="-293" y="-81" type="curve"/>
      <point x="-309" y="-81" type="line"/>
      <point x="-288" y="-94"/>
      <point x="-251" y="-114"/>
      <point x="-208" y="-114" type="curve" smooth="yes"/>
      <point x="-165" y="-114"/>
      <point x="-128" y="-94"/>
      <point x="-107" y="-81" type="curve"/>
      <point x="-123" y="-81" type="line"/>
      <point x="-101" y="-113"/>
      <point x="-90" y="-143"/>
      <point x="-90" y="-181" type="curve" smooth="yes"/>
      <point x="-90" y="-267"/>
      <point x="-145" y="-305"/>
    </contour>
  </outline>
</glyph>
<glyph name="bhaa_chakma.below" format="2">
  <anchor x="-276" y="0" name="_bottom"/>
  <anchor x="-285" y="-360" name="bottom"/>
  <anchor x="-129" y="-363" name="bottom_o"/>
  <anchor x="-31" y="-349" name="bottom_ra"/>
  <anchor x="-55" y="-379" name="bottomright"/>
  <outline>
    <contour>
      <point x="-416" y="-360" type="curve" smooth="yes"/>
      <point x="-295" y="-360"/>
      <point x="-223" y="-277"/>
      <point x="-223" y="-183" type="curve" smooth="yes"/>
      <point x="-223" y="-88"/>
      <point x="-296" y="-4"/>
      <point x="-413" y="-4" type="curve" smooth="yes"/>
      <point x="-507" y="-4"/>
      <point x="-571" y="-53"/>
      <point x="-593" y="-128" type="curve"/>
      <point x="-514" y="-137" type="line"/>
      <point x="-503" y="-95"/>
      <point x="-467" y="-64"/>
      <point x="-415" y="-64" type="curve" smooth="yes"/>
      <point x="-351" y="-64"/>
      <point x="-305" y="-113"/>
      <point x="-305" y="-181" type="curve" smooth="yes"/>
      <point x="-305" y="-246"/>
      <point x="-348" y="-300"/>
      <point x="-416" y="-300" type="curve" smooth="yes"/>
      <point x="-456" y="-300"/>
      <point x="-496" y="-280"/>
      <point x="-514" y="-228" type="curve"/>
      <point x="-593" y="-246" type="line"/>
      <point x="-569" y="-314"/>
      <point x="-510" y="-360"/>
    </contour>
    <contour>
      <point x="-96" y="-385" type="curve" smooth="yes"/>
      <point x="-32" y="-385"/>
      <point x="13" y="-335"/>
      <point x="13" y="-283" type="curve" smooth="yes"/>
      <point x="13" y="-233"/>
      <point x="-28" y="-189"/>
      <point x="-125" y="-189" type="curve" smooth="yes"/>
      <point x="-171" y="-189"/>
      <point x="-221" y="-199"/>
      <point x="-274" y="-220" type="curve"/>
      <point x="-284" y="-278" type="line"/>
      <point x="-231" y="-256"/>
      <point x="-179" y="-247"/>
      <point x="-144" y="-247" type="curve" smooth="yes"/>
      <point x="-85" y="-247"/>
      <point x="-60" y="-270"/>
      <point x="-60" y="-291" type="curve" smooth="yes"/>
      <point x="-60" y="-309"/>
      <point x="-79" y="-328"/>
      <point x="-103" y="-328" type="curve" smooth="yes"/>
      <point x="-115" y="-328"/>
      <point x="-126" y="-323"/>
      <point x="-138" y="-311" type="curve"/>
      <point x="-169" y="-357" type="line"/>
      <point x="-150" y="-374"/>
      <point x="-126" y="-385"/>
    </contour>
    <contour>
      <point x="-52" y="-173" type="line"/>
      <point x="-13" y="-159"/>
      <point x="23" y="-118"/>
      <point x="23" y="-82" type="curve" smooth="yes"/>
      <point x="23" y="-57"/>
      <point x="6" y="0"/>
      <point x="-113" y="0" type="curve" smooth="yes"/>
      <point x="-171" y="0"/>
      <point x="-234" y="-16"/>
      <point x="-301" y="-53" type="curve"/>
      <point x="-268" y="-109" type="line"/>
      <point x="-226" y="-77"/>
      <point x="-173" y="-58"/>
      <point x="-119" y="-58" type="curve" smooth="yes"/>
      <point x="-67" y="-58"/>
      <point x="-50" y="-78"/>
      <point x="-50" y="-92" type="curve" smooth="yes"/>
      <point x="-50" y="-109"/>
      <point x="-73" y="-121"/>
      <point x="-89" y="-126" type="curve"/>
    </contour>
  </outline>
</glyph>
<glyph name="bottom11111" format="2">
  <advance width="600"/>
  <outline>
    <contour>
      <point x="88" y="0" type="line"/>
      <point x="397" y="0" type="line"/>
      <point x="397" y="57" type="line"/>
      <point x="176" y="57" type="line"/>
      <point x="184" y="53" type="line"/>
      <point x="387" y="256" type="line"/>
      <point x="387" y="313" type="line"/>
      <point x="92" y="313" type="line"/>
      <point x="92" y="256" type="line"/>
      <point x="303" y="256" type="line"/>
      <point x="295" y="261" type="line"/>
      <point x="88" y="53" type="line"/>
    </contour>
  </outline>
</glyph>
<glyph name="bottom11112" format="2">
  <advance width="600"/>
  <outline>
    <contour>
      <point x="255" y="-10" type="curve" smooth="yes"/>
      <point x="346" y="-10"/>
      <point x="420" y="61"/>
      <point x="420" y="161" type="curve" smooth="yes"/>
      <point x="420" y="258"/>
      <point x="349" y="315"/>
      <point x="246" y="315" type="curve" smooth="yes"/>
      <point x="97" y="315" type="line"/>
      <point x="97" y="248" type="line"/>
      <point x="225" y="248" type="line" smooth="yes"/>
      <point x="304" y="248"/>
      <point x="332" y="207"/>
      <point x="332" y="146" type="curve" smooth="yes"/>
      <point x="332" y="74"/>
      <point x="294" y="57"/>
      <point x="262" y="57" type="curve" smooth="yes"/>
      <point x="227" y="57"/>
      <point x="212" y="78"/>
      <point x="212" y="102" type="curve" smooth="yes"/>
      <point x="212" y="131"/>
      <point x="234" y="158"/>
      <point x="278" y="158" type="curve" smooth="yes"/>
      <point x="311.856" y="158"/>
      <point x="345.336" y="141.986"/>
      <point x="373.45" y="119.689" type="curve"/>
      <point x="414.964" y="161.771" type="line"/>
      <point x="373.176" y="196.443"/>
      <point x="323.047" y="221"/>
      <point x="266" y="221" type="curve" smooth="yes"/>
      <point x="182" y="221"/>
      <point x="126" y="165"/>
      <point x="126" y="101" type="curve" smooth="yes"/>
      <point x="126" y="37"/>
      <point x="181" y="-10"/>
    </contour>
  </outline>
</glyph>
<glyph name="caa_chakma.below" format="2">
  <anchor x="-207" y="0" name="_bottom"/>
  <anchor x="-207" y="-360" name="bottom"/>
  <anchor x="-129" y="-323" name="bottom_o"/>
  <anchor x="-11" y="-302" name="bottom_ra"/>
  <anchor x="-86" y="-319" name="bottomright"/>
  <outline>
    <contour>
      <point x="-237" y="-361" type="curve" smooth="yes"/>
      <point x="-105" y="-361"/>
      <point x="3" y="-286"/>
      <point x="3" y="-151" type="curve" smooth="yes"/>
      <point x="3" y="-101"/>
      <point x="-13" y="-46"/>
      <point x="-53" y="0" type="curve"/>
      <point x="-130" y="-15" type="line"/>
      <point x="-94" y="-59"/>
      <point x="-79" y="-107"/>
      <point x="-79" y="-152" type="curve" smooth="yes"/>
      <point x="-79" y="-251"/>
      <point x="-152" y="-301"/>
      <point x="-232" y="-301" type="curve" smooth="yes"/>
      <point x="-257" y="-301"/>
      <point x="-285" y="-296"/>
      <point x="-310" y="-279" type="curve"/>
      <point x="-307" y="-284" type="line"/>
      <point x="-229" y="-241"/>
      <point x="-206" y="-193"/>
      <point x="-206" y="-135" type="curve" smooth="yes"/>
      <point x="-206" y="-51"/>
      <point x="-257" y="-10"/>
      <point x="-334" y="-10" type="curve" smooth="yes"/>
      <point x="-355" y="-10"/>
      <point x="-375" y="-13"/>
      <point x="-397" y="-21" type="curve"/>
      <point x="-397" y="-74" type="line"/>
      <point x="-381" y="-68"/>
      <point x="-367" y="-66"/>
      <point x="-356" y="-66" type="curve" smooth="yes"/>
      <point x="-313" y="-66"/>
      <point x="-288" y="-97"/>
      <point x="-288" y="-139" type="curve" smooth="yes"/>
      <point x="-288" y="-199"/>
      <point x="-343" y="-243"/>
      <point x="-398" y="-268" type="curve"/>
      <point x="-417" y="-317" type="line"/>
      <point x="-385" y="-333"/>
      <point x="-320" y="-361"/>
    </contour>
  </outline>
</glyph>
<glyph name="candrabindu_iiMatra" format="2">
  <anchor x="-437" y="755" name="_top"/>
  <outline>
    <contour>
      <point x="-184" y="700" type="curve" smooth="yes"/>
      <point x="-87" y="700"/>
      <point x="-7" y="776"/>
      <point x="-7" y="870" type="curve" smooth="yes"/>
      <point x="-7" y="965"/>
      <point x="-87" y="1041"/>
      <point x="-184" y="1041" type="curve" smooth="yes"/>
      <point x="-281" y="1041"/>
      <point x="-361" y="965"/>
      <point x="-361" y="870" type="curve" smooth="yes"/>
      <point x="-361" y="776"/>
      <point x="-281" y="700"/>
    </contour>
    <contour>
      <point x="-638" y="735" type="curve" smooth="yes"/>
      <point x="-500" y="735"/>
      <point x="-416" y="852"/>
      <point x="-416" y="972" type="curve"/>
      <point x="-506" y="972" type="line"/>
      <point x="-507" y="882"/>
      <point x="-558" y="808"/>
      <point x="-638" y="808" type="curve" smooth="yes"/>
      <point x="-718" y="808"/>
      <point x="-775" y="882"/>
      <point x="-775" y="972" type="curve"/>
      <point x="-865" y="972" type="line"/>
      <point x="-865" y="852"/>
      <point x="-776" y="735"/>
    </contour>
    <contour>
      <point x="-638" y="857" type="curve" smooth="yes"/>
      <point x="-597" y="857"/>
      <point x="-564" y="890"/>
      <point x="-564" y="932" type="curve" smooth="yes"/>
      <point x="-564" y="972"/>
      <point x="-597" y="1005"/>
      <point x="-638" y="1005" type="curve" smooth="yes"/>
      <point x="-679" y="1005"/>
      <point x="-712" y="972"/>
      <point x="-712" y="932" type="curve" smooth="yes"/>
      <point x="-712" y="890"/>
      <point x="-679" y="857"/>
    </contour>
    <contour>
      <point x="-184" y="767" type="curve" smooth="yes"/>
      <point x="-245" y="767"/>
      <point x="-294" y="812"/>
      <point x="-294" y="870" type="curve" smooth="yes"/>
      <point x="-294" y="929"/>
      <point x="-245" y="974"/>
      <point x="-184" y="974" type="curve" smooth="yes"/>
      <point x="-123" y="974"/>
      <point x="-74" y="929"/>
      <point x="-74" y="870" type="curve" smooth="yes"/>
      <point x="-74" y="812"/>
      <point x="-123" y="767"/>
    </contour>
    <contour>
      <point x="-185" y="815" type="curve" smooth="yes"/>
      <point x="-155" y="815"/>
      <point x="-130" y="840"/>
      <point x="-130" y="871" type="curve" smooth="yes"/>
      <point x="-130" y="902"/>
      <point x="-155" y="927"/>
      <point x="-185" y="927" type="curve" smooth="yes"/>
      <point x="-215" y="927"/>
      <point x="-240" y="902"/>
      <point x="-240" y="871" type="curve" smooth="yes"/>
      <point x="-240" y="840"/>
      <point x="-215" y="815"/>
    </contour>
  </outline>
</glyph>
<glyph name="chaa_chakma.alt.below" format="2">
  <anchor x="-212" y="0" name="_bottom"/>
  <anchor x="-85" y="-415" name="bottomright"/>
  <outline>
    <contour>
      <point x="-327" y="-413" type="curve" smooth="yes"/>
      <point x="-294" y="-413"/>
      <point x="-269" y="-398"/>
      <point x="-255" y="-388" type="curve"/>
      <point x="-291" y="-342" type="line"/>
      <point x="-299" y="-347"/>
      <point x="-307" y="-349"/>
      <point x="-316" y="-349" type="curve" smooth="yes"/>
      <point x="-339" y="-349"/>
      <point x="-355" y="-336"/>
      <point x="-355" y="-309" type="curve" smooth="yes"/>
      <point x="-355" y="-272"/>
      <point x="-324" y="-238"/>
      <point x="-210" y="-238" type="curve" smooth="yes"/>
      <point x="-146" y="-238"/>
      <point x="-70" y="-246"/>
      <point x="-70" y="-303" type="curve" smooth="yes"/>
      <point x="-70" y="-328"/>
      <point x="-86" y="-353"/>
      <point x="-119" y="-353" type="curve" smooth="yes"/>
      <point x="-143" y="-353"/>
      <point x="-156" y="-341"/>
      <point x="-156" y="-316" type="curve" smooth="yes"/>
      <point x="-156" y="-235"/>
      <point x="-12" y="-175"/>
      <point x="-12" y="-89" type="curve" smooth="yes"/>
      <point x="-12" y="-25"/>
      <point x="-86" y="0"/>
      <point x="-163" y="0" type="curve" smooth="yes"/>
      <point x="-265" y="0"/>
      <point x="-345" y="-45"/>
      <point x="-345" y="-109" type="curve" smooth="yes"/>
      <point x="-345" y="-131"/>
      <point x="-336" y="-150"/>
      <point x="-320" y="-169" type="curve"/>
      <point x="-265" y="-147" type="line"/>
      <point x="-275" y="-136"/>
      <point x="-281" y="-124"/>
      <point x="-281" y="-112" type="curve" smooth="yes"/>
      <point x="-281" y="-78"/>
      <point x="-225" y="-60"/>
      <point x="-166" y="-60" type="curve" smooth="yes"/>
      <point x="-118" y="-60"/>
      <point x="-92" y="-72"/>
      <point x="-92" y="-95" type="curve" smooth="yes"/>
      <point x="-92" y="-141"/>
      <point x="-230" y="-228"/>
      <point x="-230" y="-324" type="curve" smooth="yes"/>
      <point x="-230" y="-373"/>
      <point x="-193" y="-413"/>
      <point x="-128" y="-413" type="curve" smooth="yes"/>
      <point x="-48" y="-413"/>
      <point x="4" y="-360"/>
      <point x="4" y="-302" type="curve" smooth="yes"/>
      <point x="4" y="-223"/>
      <point x="-91" y="-178"/>
      <point x="-204" y="-178" type="curve" smooth="yes"/>
      <point x="-350" y="-178"/>
      <point x="-429" y="-242"/>
      <point x="-429" y="-316" type="curve" smooth="yes"/>
      <point x="-429" y="-376"/>
      <point x="-377" y="-413"/>
    </contour>
  </outline>
</glyph>
<glyph name="chaa_chakma.alt" format="2">
  <advance width="705"/>
  <anchor x="615" y="382" name="aaMatra"/>
  <anchor x="360" y="0" name="bottom"/>
  <anchor x="526" y="20" name="bottom_o"/>
  <anchor x="581" y="-25" name="bottom_ra"/>
  <anchor x="595" y="32" name="bottomright"/>
  <anchor x="593" y="412" name="eBelow"/>
  <anchor x="607" y="432" name="eiMatra"/>
  <anchor x="355" y="590" name="top"/>
  <anchor x="570" y="527" name="topright"/>
  <anchor x="645" y="134" name="yyaa_post"/>
  <outline>
    <contour>
      <point x="193" y="-10" type="curve" smooth="yes"/>
      <point x="237" y="-10"/>
      <point x="272" y="11"/>
      <point x="292" y="26" type="curve"/>
      <point x="241" y="67" type="line"/>
      <point x="230" y="60"/>
      <point x="219" y="57"/>
      <point x="209" y="57" type="curve" smooth="yes"/>
      <point x="173" y="57"/>
      <point x="150" y="96"/>
      <point x="150" y="139" type="curve" smooth="yes"/>
      <point x="150" y="198"/>
      <point x="194" y="257"/>
      <point x="356" y="257" type="curve" smooth="yes"/>
      <point x="447" y="257"/>
      <point x="555" y="238"/>
      <point x="555" y="149" type="curve" smooth="yes"/>
      <point x="555" y="106"/>
      <point x="530" y="57"/>
      <point x="477" y="57" type="curve" smooth="yes"/>
      <point x="440" y="57"/>
      <point x="423" y="81"/>
      <point x="423" y="118" type="curve" smooth="yes"/>
      <point x="423" y="241"/>
      <point x="623" y="356"/>
      <point x="623" y="465" type="curve" smooth="yes"/>
      <point x="623" y="540"/>
      <point x="531" y="561"/>
      <point x="437" y="561" type="curve" smooth="yes"/>
      <point x="278" y="561"/>
      <point x="165" y="507"/>
      <point x="165" y="417" type="curve" smooth="yes"/>
      <point x="165" y="386"/>
      <point x="178" y="359"/>
      <point x="211" y="336" type="curve"/>
      <point x="278" y="363" type="line"/>
      <point x="263" y="378"/>
      <point x="255" y="395"/>
      <point x="255" y="412" type="curve" smooth="yes"/>
      <point x="255" y="467"/>
      <point x="335" y="494"/>
      <point x="418" y="494" type="curve" smooth="yes"/>
      <point x="486" y="494"/>
      <point x="534" y="476"/>
      <point x="534" y="443" type="curve" smooth="yes"/>
      <point x="534" y="376"/>
      <point x="333" y="245"/>
      <point x="333" y="109" type="curve" smooth="yes"/>
      <point x="333" y="40"/>
      <point x="380" y="-10"/>
      <point x="472" y="-10" type="curve" smooth="yes"/>
      <point x="585" y="-10"/>
      <point x="645" y="65"/>
      <point x="645" y="145" type="curve" smooth="yes"/>
      <point x="645" y="260"/>
      <point x="525" y="324"/>
      <point x="364" y="324" type="curve" smooth="yes"/>
      <point x="172" y="324"/>
      <point x="60" y="228"/>
      <point x="60" y="124" type="curve" smooth="yes"/>
      <point x="60" y="48"/>
      <point x="119" y="-10"/>
    </contour>
  </outline>
</glyph>
<glyph name="chaa_chakma.below" format="2">
  <anchor x="-212" y="0" name="_bottom"/>
  <anchor x="-228" y="-360" name="bottom"/>
  <anchor x="-140" y="-331" name="bottom_o"/>
  <anchor x="-19" y="-333" name="bottom_ra"/>
  <anchor x="-53" y="-319" name="bottomright"/>
  <outline>
    <contour>
      <point x="-369" y="-362" type="curve" smooth="yes"/>
      <point x="-261" y="-362"/>
      <point x="-206" y="-218"/>
      <point x="-206" y="-142" type="curve" smooth="yes"/>
      <point x="-206" y="-68"/>
      <point x="-257" y="-10"/>
      <point x="-335" y="-10" type="curve" smooth="yes"/>
      <point x="-356" y="-10"/>
      <point x="-377" y="-14"/>
      <point x="-398" y="-21" type="curve"/>
      <point x="-398" y="-74" type="line"/>
      <point x="-382" y="-68"/>
      <point x="-370" y="-66"/>
      <point x="-360" y="-66" type="curve" smooth="yes"/>
      <point x="-317" y="-66"/>
      <point x="-288" y="-101"/>
      <point x="-288" y="-161" type="curve" smooth="yes"/>
      <point x="-288" y="-223"/>
      <point x="-319" y="-305"/>
      <point x="-365" y="-305" type="curve" smooth="yes"/>
      <point x="-382" y="-305"/>
      <point x="-398" y="-294"/>
      <point x="-398" y="-270" type="curve" smooth="yes"/>
      <point x="-398" y="-246"/>
      <point x="-381" y="-230"/>
      <point x="-358" y="-230" type="curve" smooth="yes"/>
      <point x="-292" y="-230"/>
      <point x="-296" y="-362"/>
      <point x="-168" y="-362" type="curve" smooth="yes"/>
      <point x="-43" y="-362"/>
      <point x="7" y="-240"/>
      <point x="7" y="-154" type="curve" smooth="yes"/>
      <point x="7" y="-96"/>
      <point x="-15" y="-41"/>
      <point x="-55" y="0" type="curve"/>
      <point x="-130" y="-15" type="line"/>
      <point x="-98" y="-49"/>
      <point x="-75" y="-99"/>
      <point x="-75" y="-156" type="curve" smooth="yes"/>
      <point x="-75" y="-223"/>
      <point x="-108" y="-302"/>
      <point x="-165" y="-302" type="curve" smooth="yes"/>
      <point x="-237" y="-302"/>
      <point x="-255" y="-174"/>
      <point x="-363" y="-174" type="curve" smooth="yes"/>
      <point x="-417" y="-174"/>
      <point x="-463" y="-206"/>
      <point x="-463" y="-269" type="curve" smooth="yes"/>
      <point x="-463" y="-336"/>
      <point x="-415" y="-362"/>
    </contour>
  </outline>
</glyph>
<glyph name="daa_chakma.below" format="2">
  <anchor x="-194" y="0" name="_bottom"/>
  <anchor x="-193" y="-360" name="bottom"/>
  <anchor x="-176" y="-331" name="bottom_o"/>
  <anchor x="-21" y="-312" name="bottom_ra"/>
  <anchor x="-106" y="-339" name="bottomright"/>
  <outline>
    <contour>
      <point x="-201" y="-356" type="curve" smooth="yes"/>
      <point x="-80" y="-356"/>
      <point x="-8" y="-273"/>
      <point x="-8" y="-179" type="curve" smooth="yes"/>
      <point x="-8" y="-84"/>
      <point x="-81" y="0"/>
      <point x="-198" y="0" type="curve" smooth="yes"/>
      <point x="-292" y="0"/>
      <point x="-356" y="-49"/>
      <point x="-378" y="-124" type="curve"/>
      <point x="-299" y="-133" type="line"/>
      <point x="-288" y="-91"/>
      <point x="-252" y="-60"/>
      <point x="-200" y="-60" type="curve" smooth="yes"/>
      <point x="-136" y="-60"/>
      <point x="-90" y="-109"/>
      <point x="-90" y="-177" type="curve" smooth="yes"/>
      <point x="-90" y="-242"/>
      <point x="-133" y="-296"/>
      <point x="-201" y="-296" type="curve" smooth="yes"/>
      <point x="-241" y="-296"/>
      <point x="-281" y="-276"/>
      <point x="-299" y="-224" type="curve"/>
      <point x="-378" y="-242" type="line"/>
      <point x="-354" y="-310"/>
      <point x="-295" y="-356"/>
    </contour>
  </outline>
</glyph>
<glyph name="ddaa_chakma.below" format="2">
  <anchor x="-202" y="0" name="_bottom"/>
  <anchor x="-209" y="-360" name="bottom"/>
  <anchor x="-181" y="-323" name="bottom_o"/>
  <anchor x="-46" y="-363" name="bottom_ra"/>
  <anchor x="-96" y="-333" name="bottomright"/>
  <outline>
    <contour>
      <point x="-378" y="-344" type="line"/>
      <point x="-41" y="-344" type="line"/>
      <point x="-41" y="-284" type="line"/>
      <point x="-277" y="-284" type="line"/>
      <point x="-276" y="-304" type="line"/>
      <point x="-150" y="-227"/>
      <point x="-42" y="-166"/>
      <point x="-42" y="-91" type="curve" smooth="yes"/>
      <point x="-42" y="-32"/>
      <point x="-107" y="0"/>
      <point x="-181" y="0" type="curve" smooth="yes"/>
      <point x="-310" y="0"/>
      <point x="-363" y="-86"/>
      <point x="-357" y="-150" type="curve"/>
      <point x="-289" y="-129" type="line"/>
      <point x="-284" y="-86"/>
      <point x="-252" y="-49"/>
      <point x="-194" y="-49" type="curve" smooth="yes"/>
      <point x="-157" y="-49"/>
      <point x="-122" y="-63"/>
      <point x="-122" y="-94" type="curve" smooth="yes"/>
      <point x="-122" y="-158"/>
      <point x="-277" y="-268"/>
      <point x="-378" y="-284" type="curve"/>
    </contour>
  </outline>
</glyph>
<glyph name="ddaa_yyaa.post" format="2">
  <advance width="860"/>
  <anchor x="812" y="382" name="aaMatra"/>
  <anchor x="418" y="-50" name="bottom"/>
  <anchor x="532" y="-30" name="bottom_o"/>
  <anchor x="651" y="-33" name="bottom_ra"/>
  <anchor x="663" y="-47" name="bottomright"/>
  <anchor x="809" y="382" name="eBelow"/>
  <anchor x="812" y="382" name="eiMatra"/>
  <anchor x="300" y="590" name="top"/>
  <anchor x="443" y="519" name="topright"/>
  <outline>
    <contour>
      <point x="564" y="-75" type="curve" smooth="yes"/>
      <point x="719" y="-75"/>
      <point x="800" y="56"/>
      <point x="800" y="159" type="curve" smooth="yes"/>
      <point x="800" y="700" type="line"/>
      <point x="710" y="700" type="line"/>
      <point x="710" y="175" type="line" smooth="yes"/>
      <point x="710" y="102"/>
      <point x="672" y="-8"/>
      <point x="560" y="-8" type="curve" smooth="yes"/>
      <point x="463" y="-8"/>
      <point x="370" y="73"/>
      <point x="192" y="77" type="curve"/>
      <point x="192" y="58" type="line"/>
      <point x="372" y="183"/>
      <point x="528" y="296"/>
      <point x="528" y="420" type="curve" smooth="yes"/>
      <point x="528" y="514"/>
      <point x="437" y="549"/>
      <point x="338" y="549" type="curve" smooth="yes"/>
      <point x="158" y="549"/>
      <point x="87" y="437"/>
      <point x="86" y="346" type="curve"/>
      <point x="176" y="366" type="line"/>
      <point x="172" y="430"/>
      <point x="225" y="483"/>
      <point x="330" y="483" type="curve" smooth="yes"/>
      <point x="387" y="483"/>
      <point x="438" y="467"/>
      <point x="438" y="413" type="curve" smooth="yes"/>
      <point x="438" y="299"/>
      <point x="204" y="110"/>
      <point x="60" y="87" type="curve"/>
      <point x="60" y="20" type="line"/>
      <point x="317" y="22"/>
      <point x="428" y="-75"/>
    </contour>
  </outline>
</glyph>
<glyph name="ddhaa_chakma.below" format="2">
  <anchor x="-218" y="0" name="_bottom"/>
  <anchor x="-221" y="-360" name="bottom"/>
  <anchor x="-169" y="-313" name="bottom_o"/>
  <anchor x="-30" y="-314" name="bottom_ra"/>
  <anchor x="-171" y="-334" name="bottomright"/>
  <outline>
    <contour>
      <point x="-279" y="-354" type="curve" smooth="yes"/>
      <point x="-124" y="-354"/>
      <point x="16" y="-247"/>
      <point x="16" y="-116" type="curve" smooth="yes"/>
      <point x="16" y="-36"/>
      <point x="-33" y="0"/>
      <point x="-97" y="0" type="curve" smooth="yes"/>
      <point x="-163" y="0"/>
      <point x="-196" y="-36"/>
      <point x="-196" y="-83" type="curve" smooth="yes"/>
      <point x="-196" y="-138"/>
      <point x="-149" y="-161"/>
      <point x="-109" y="-161" type="curve" smooth="yes"/>
      <point x="-61" y="-161"/>
      <point x="-24.308" y="-133.417"/>
      <point x="5.047" y="-107.872" type="curve"/>
      <point x="-6.861" y="-66.688" type="line"/>
      <point x="-32.012" y="-88.862"/>
      <point x="-65.767" y="-111"/>
      <point x="-97" y="-111" type="curve" smooth="yes"/>
      <point x="-112" y="-111"/>
      <point x="-134" y="-106"/>
      <point x="-134" y="-82" type="curve" smooth="yes"/>
      <point x="-134" y="-64"/>
      <point x="-122" y="-49"/>
      <point x="-101" y="-49" type="curve" smooth="yes"/>
      <point x="-82" y="-49"/>
      <point x="-67" y="-61"/>
      <point x="-67" y="-103" type="curve" smooth="yes"/>
      <point x="-67" y="-235"/>
      <point x="-170" y="-293"/>
      <point x="-262" y="-293" type="curve" smooth="yes"/>
      <point x="-309" y="-293"/>
      <point x="-343" y="-278"/>
      <point x="-357" y="-271" type="curve"/>
      <point x="-348" y="-277" type="line"/>
      <point x="-269" y="-240"/>
      <point x="-247" y="-187"/>
      <point x="-247" y="-138" type="curve" smooth="yes"/>
      <point x="-247" y="-68"/>
      <point x="-298" y="-18"/>
      <point x="-374" y="-18" type="curve" smooth="yes"/>
      <point x="-397" y="-18"/>
      <point x="-418" y="-22"/>
      <point x="-439" y="-29" type="curve"/>
      <point x="-436" y="-77" type="line"/>
      <point x="-420" y="-71"/>
      <point x="-406" y="-69"/>
      <point x="-394" y="-69" type="curve" smooth="yes"/>
      <point x="-350" y="-69"/>
      <point x="-329" y="-96"/>
      <point x="-329" y="-138" type="curve" smooth="yes"/>
      <point x="-329" y="-205"/>
      <point x="-383" y="-238"/>
      <point x="-440" y="-260" type="curve"/>
      <point x="-459" y="-304" type="line"/>
      <point x="-426" y="-323"/>
      <point x="-362" y="-354"/>
    </contour>
  </outline>
</glyph>
<glyph name="ddhaa_yyaa.post" format="2">
  <advance width="1041"/>
  <anchor x="993" y="382" name="aaMatra"/>
  <anchor x="367" y="0" name="bottom"/>
  <anchor x="530" y="40" name="bottom_o"/>
  <anchor x="576" y="15" name="bottom_ra"/>
  <anchor x="516" y="37" name="bottomright"/>
  <anchor x="990" y="382" name="eBelow"/>
  <anchor x="993" y="382" name="eiMatra"/>
  <anchor x="414" y="590" name="top"/>
  <anchor x="617" y="522" name="topright"/>
  <outline>
    <contour>
      <point x="315" y="-10" type="curve" smooth="yes"/>
      <point x="563" y="-10"/>
      <point x="715" y="170"/>
      <point x="715" y="385" type="curve" smooth="yes"/>
      <point x="715" y="508"/>
      <point x="649" y="550"/>
      <point x="573" y="550" type="curve" smooth="yes"/>
      <point x="488" y="550"/>
      <point x="432" y="498"/>
      <point x="432" y="429" type="curve" smooth="yes"/>
      <point x="432" y="351"/>
      <point x="500" y="326"/>
      <point x="553" y="326" type="curve" smooth="yes"/>
      <point x="605" y="326"/>
      <point x="646" y="354"/>
      <point x="681" y="389" type="curve"/>
      <point x="665" y="444" type="line"/>
      <point x="636" y="416"/>
      <point x="604" y="390"/>
      <point x="567" y="390" type="curve" smooth="yes"/>
      <point x="543" y="390"/>
      <point x="516" y="401"/>
      <point x="516" y="433" type="curve" smooth="yes"/>
      <point x="516" y="462"/>
      <point x="539" y="483"/>
      <point x="568" y="483" type="curve" smooth="yes"/>
      <point x="595" y="483"/>
      <point x="625" y="465"/>
      <point x="625" y="385" type="curve" smooth="yes"/>
      <point x="625" y="195"/>
      <point x="472" y="57"/>
      <point x="304" y="57" type="curve" smooth="yes"/>
      <point x="239" y="57"/>
      <point x="194" y="76"/>
      <point x="172" y="87" type="curve"/>
      <point x="176" y="81" type="line"/>
      <point x="274" y="142"/>
      <point x="349" y="225"/>
      <point x="349" y="344" type="curve" smooth="yes"/>
      <point x="349" y="461"/>
      <point x="276" y="525"/>
      <point x="176" y="525" type="curve" smooth="yes"/>
      <point x="149" y="525"/>
      <point x="119" y="520"/>
      <point x="89" y="509" type="curve"/>
      <point x="89" y="452" type="line"/>
      <point x="112" y="460"/>
      <point x="136" y="464"/>
      <point x="154" y="464" type="curve" smooth="yes"/>
      <point x="225" y="464"/>
      <point x="259" y="414"/>
      <point x="259" y="334" type="curve" smooth="yes"/>
      <point x="259" y="217"/>
      <point x="182" y="173"/>
      <point x="87" y="124" type="curve"/>
      <point x="60" y="54" type="line"/>
      <point x="105" y="31"/>
      <point x="199" y="-10"/>
    </contour>
    <contour>
      <point x="784" y="-15" type="curve" smooth="yes"/>
      <point x="897" y="-15"/>
      <point x="981" y="56"/>
      <point x="981" y="159" type="curve" smooth="yes"/>
      <point x="981" y="700" type="line"/>
      <point x="891" y="700" type="line"/>
      <point x="891" y="175" type="line" smooth="yes"/>
      <point x="891" y="102"/>
      <point x="842" y="52"/>
      <point x="776" y="52" type="curve" smooth="yes"/>
      <point x="701" y="52"/>
      <point x="636" y="116"/>
      <point x="606" y="169" type="curve"/>
      <point x="560" y="120" type="line"/>
      <point x="591" y="67"/>
      <point x="663" y="-15"/>
    </contour>
  </outline>
</glyph>
<glyph name="dhaa_chakma.below" format="2">
  <anchor x="-225" y="0" name="_bottom"/>
  <anchor x="-225" y="-360" name="bottom"/>
  <anchor x="-136" y="-345" name="bottom_o"/>
  <anchor x="-33" y="-330" name="bottom_ra"/>
  <anchor x="-76" y="-349" name="bottomright"/>
  <outline>
    <contour>
      <point x="-324" y="-365" type="curve"/>
      <point x="-297" y="-337"/>
      <point x="-272" y="-311"/>
      <point x="-225" y="-311" type="curve" smooth="yes"/>
      <point x="-178" y="-311"/>
      <point x="-148" y="-337"/>
      <point x="-121" y="-365" type="curve"/>
      <point x="-57" y="-333"/>
      <point x="-23" y="-273"/>
      <point x="-23" y="-196" type="curve" smooth="yes"/>
      <point x="-23" y="-78"/>
      <point x="-105" y="0"/>
      <point x="-225" y="0" type="curve" smooth="yes"/>
      <point x="-344" y="0"/>
      <point x="-427" y="-78"/>
      <point x="-427" y="-196" type="curve" smooth="yes"/>
      <point x="-427" y="-273"/>
      <point x="-391" y="-334"/>
    </contour>
    <contour>
      <point x="-317" y="-295" type="line"/>
      <point x="-335" y="-271"/>
      <point x="-345" y="-238"/>
      <point x="-345" y="-194" type="curve" smooth="yes"/>
      <point x="-345" y="-96"/>
      <point x="-291" y="-60"/>
      <point x="-225" y="-60" type="curve" smooth="yes"/>
      <point x="-158" y="-60"/>
      <point x="-105" y="-96"/>
      <point x="-105" y="-194" type="curve" smooth="yes"/>
      <point x="-105" y="-237"/>
      <point x="-115" y="-272"/>
      <point x="-131" y="-295" type="curve"/>
      <point x="-119" y="-292" type="line"/>
      <point x="-139" y="-276"/>
      <point x="-174" y="-251"/>
      <point x="-225" y="-251" type="curve" smooth="yes"/>
      <point x="-276" y="-251"/>
      <point x="-311" y="-276"/>
      <point x="-329" y="-292" type="curve"/>
    </contour>
  </outline>
</glyph>
<glyph name="eMatra_chakma.alt" format="2">
  <advance width="210"/>
  <guideline x="246" y="553" angle="300.6773"/>
  <outline>
    <contour>
      <point x="219" y="-59" type="curve"/>
      <point x="253" y="1" type="line"/>
      <point x="227" y="20"/>
      <point x="150" y="91"/>
      <point x="150" y="267" type="curve" smooth="yes"/>
      <point x="150" y="443"/>
      <point x="233" y="517"/>
      <point x="253" y="533" type="curve"/>
      <point x="218" y="592" type="line"/>
      <point x="174" y="566"/>
      <point x="60" y="480"/>
      <point x="60" y="268" type="curve" smooth="yes"/>
      <point x="60" y="56"/>
      <point x="175" y="-30"/>
    </contour>
  </outline>
</glyph>
